{
.appVersion = "1230";
copyright = "This Font Software is licensed under the SIL Open Font License, Version 1.1.";
customParameters = (
{
name = Axes;
value = (
{
Name = Weight;
Tag = wght;
},
{
Name = Width;
Tag = wdth;
}
);
},
{
name = "Virtual Master";
value = (
{
Axis = Weight;
Location = 0;
},
{
Axis = Width;
Location = 0;
}
);
},
{
name = "Enforce Compatibility Check";
value = 1;
}
);
date = "2020-09-26 17:08:28 +0000";
designer = "Mateo Broillet / e-t-c typefoundry";
designerURL = www.mateobroillet.ch;
familyName = Seymaz;
featurePrefixes = (
{
code = "languagesystem DFLT dflt;\012";
name = Languagesystems;
}
);
features = (
{
automatic = 1;
code = "feature salt;\012feature ss01;\012feature calt;\012";
name = aalt;
},
{
automatic = 1;
code = "lookup ccmp_Other_1 {\012	@CombiningTopAccents = [acutecomb circumflexcomb dieresiscomb dotaccentcomb gravecomb ringcomb tildecomb];\012	@CombiningNonTopAccents = [cedillacomb];\012	sub [i]' @CombiningTopAccents by [idotless];\012	sub [i]' @CombiningNonTopAccents @CombiningTopAccents by [idotless];\012} ccmp_Other_1;\012";
name = ccmp;
},
{
code = "sub f t by f_t;\012sub i t by i_t;\012\012";
name = dlig;
},
{
code = "sub f f i by f_f_i;\012sub f f l by f_f_l;\012sub f i by f_i;\012sub f l by f_l;\012sub t i by t_i;";
name = liga;
},
{
automatic = 1;
code = "sub E by E.ss01;\012sub Eacute by Eacute.ss01;\012sub Ecircumflex by Ecircumflex.ss01;\012sub Edieresis by Edieresis.ss01;\012sub Egrave by Egrave.ss01;\012sub F by F.ss01;\012sub J by J.ss01;\012sub L by L.ss01;\012sub T by T.ss01;\012sub f by f.ss01;\012sub y by y.ss01;\012sub one by one.ss01;\012";
name = salt;
},
{
automatic = 1;
code = "sub E by E.ss01;\012sub Eacute by Eacute.ss01;\012sub Ecircumflex by Ecircumflex.ss01;\012sub Edieresis by Edieresis.ss01;\012sub Egrave by Egrave.ss01;\012sub F by F.ss01;\012sub J by J.ss01;\012sub L by L.ss01;\012sub T by T.ss01;\012sub f by f.ss01;\012sub y by y.ss01;\012sub one by one.ss01;\012";
name = ss01;
},
{

glyphs = (
{
color = 4;
glyphname = A;
lastChange = "2020-09-25 16:13:11 +0000";
layers = (
{
hints = (
{
horizontal = 1;
origin = "{0, 5}";
target = up;
type = BottomGhost;
},
{
horizontal = 1;
origin = "{0, 7}";
target = "{1, 3}";
type = Stem;
},
{
horizontal = 1;
origin = "{0, 3}";
target = "{1, 0}";
type = Stem;
},
{
origin = "{0, 5}";
target = "{0, 6}";
type = Stem;
},
{
origin = "{0, 9}";
target = "{0, 0}";
type = Stem;
}
);
layerId = "B64BEB12-03E1-41C2-8D0F-395888C0A328";
paths = (
{
closed = 1;
nodes = (
"178 0 LINE",
"178 685 LINE",
"138 730 LINE",
"46 730 LINE",
"6 685 LINE",
"6 0 LINE",
"86 0 LINE",
"86 327 LINE",
"98 327 LINE",
"98 0 LINE"
);
},
{
closed = 1;
nodes = (
"86 655 LINE",
"98 655 LINE",
"98 402 LINE",
"86 402 LINE"
);
}
);
userData = {
assembly = "PUSHW[ ]\011/* 1 value pushed */
10 
CALL[ ]\011/* CallFunction */
SVTCA[0]\011/* SetFreedomAndProjectionVectorToAxis */
PUSHW[ ]\011/* 1 value pushed */
6 
RCVT[ ]\011/* ReadCVT */
IF[ ]\011/* If */
PUSHW[ ]\011/* 1 value pushed */
5 
MDAP[1]\011/* MoveDirectAbsPt */
ELSE[ ]\011/* Else */
PUSHW[ ]\011/* 2 values pushed */
5 19 
MIAP[0]\011/* MoveIndirectAbsPt */
EIF[ ]\011/* EndIf */
PUSHW[ ]\011/* 1 value pushed */
6 
RCVT[ ]\011/* ReadCVT */
IF[ ]\011/* If */
PUSHW[ ]\011/* 1 value pushed */
0 
MDAP[1]\011/* MoveDirectAbsPt */
ELSE[ ]\011/* Else */
PUSHW[ ]\011/* 2 values pushed */
0 13 
MIAP[0]\011/* MoveIndirectAbsPt */
EIF[ ]\011/* EndIf */
PUSHW[ ]\011/* 1 value pushed */
6 
RCVT[ ]\011/* ReadCVT */
IF[ ]\011/* If */
PUSHW[ ]\011/* 1 value pushed */
3 
MDAP[1]\011/* MoveDirectAbsPt */
ELSE[ ]\011/* Else */
PUSHW[ ]\011/* 2 values pushed */
3 13 
MIAP[0]\011/* MoveIndirectAbsPt */
EIF[ ]\011/* EndIf */
PUSHW[ ]\011/* 3 values pushed */
10 0 5 
SRP1[ ]\011/* SetRefPoint1 */
SRP2[ ]\011/* SetRefPoint2 */
IP[ ]\011/* InterpolatePts */
IUP[0]\011/* InterpolateUntPts */
IUP[1]\011/* InterpolateUntPts */";
};
width = 184;
},
{
hints = (
{
horizontal = 1;
origin = "{0, 5}";
target = up;
type = BottomGhost;
},
{
horizontal = 1;
origin = "{0, 7}";
target = "{1, 3}";
type = Stem;
},
{
horizontal = 1;
origin = "{0, 3}";
target = "{1, 0}";
type = Stem;
},
{
origin = "{0, 5}";
target = "{0, 6}";
type = Stem;
},
{
origin = "{0, 9}";
target = "{0, 0}";
type = Stem;
}
);
layerId = "DBA696BD-A337-48FC-9DA1-CD58B2C81FFB";
paths = (
{
closed = 1;
nodes = (
"42 0 LINE",
"42 682 LINE",
"34 690 LINE",
"14 690 LINE",
"6 682 LINE",
"6 0 LINE",
"18 0 LINE",
"18 359 LINE",
"30 359 LINE",
"30 0 LINE"
);
},
{
closed = 1;
nodes = (
"18 679 LINE",
"30 679 LINE",
"30 370 LINE",
"18 370 LINE"
);
}
);
width = 48;
}
);
note = A;
unicode = 0041;
},
{
color = 4;
glyphname = AE;
lastChange = "2020-09-12 11:53:36 +0000";
layers = (
{
layerId = "B64BEB12-03E1-41C2-8D0F-395888C0A328";
paths = (
{
closed = 1;
nodes = (
"86 0 LINE",
"86 327 LINE",
"98 327 LINE",
"98 0 LINE",
"270 0 LINE",
"270 314 LINE",
"190 314 LINE",
"190 76 LINE",
"178 76 LINE",
"178 326 LINE",
"270 326 LINE",
"270 401 LINE",
"178 401 LINE",
"178 656 LINE",
"190 656 LINE",
"190 413 LINE",
"270 413 LINE",
"270 730 LINE",
"46 730 LINE",
"6 685 LINE",
"6 0 LINE"
);
},
{
closed = 1;
nodes = (
"86 655 LINE",
"98 655 LINE",
"98 402 LINE",
"86 402 LINE"
);
}
);
width = 276;
},
{
layerId = "DBA696BD-A337-48FC-9DA1-CD58B2C81FFB";
paths = (
{
closed = 1;
nodes = (
"18 0 LINE",
"18 359 LINE",
"30 359 LINE",
"30 0 LINE",
"66 0 LINE",
"66 345 LINE",
"54 345 LINE",
"54 11 LINE",
"42 11 LINE",
"42 357 LINE",
"66 357 LINE",
"66 368 LINE",
"42 368 LINE",
"42 679 LINE",
"54 679 LINE",
"54 380 LINE",
"66 380 LINE",
"66 690 LINE",
"14 690 LINE",
"6 682 LINE",
"6 0 LINE"
);
},
{
closed = 1;
nodes = (
"18 679 LINE",
"30 679 LINE",
"30 370 LINE",
"18 370 LINE"
);
}
);
width = 72;
}
);
unicode = 00C6;
},
{
color = 4;
glyphname = B;
lastChange = "2020-09-25 16:12:13 +0000";
layers = (
{
hints = (
{
horizontal = 1;
origin = "{0, 1}";
target = "{1, 0}";
type = Stem;
},
{
horizontal = 1;
origin = "{1, 1}";
target = "{0, 5}";
type = Stem;
},
{
horizontal = 1;
origin = "{0, 0}";
target = "{2, 0}";
type = Stem;
},
{
horizontal = 1;
origin = "{0, 6}";
target = "{2, 3}";
type = Stem;
},
{
origin = "{0, 1}";
target = "{1, 0}";
type = Stem;
},
{
origin = "{1, 3}";
target = "{0, 3}";
type = Stem;
}
);
layerId = "B64BEB12-03E1-41C2-8D0F-395888C0A328";
paths = (
{
closed = 1;
nodes = (
"6 730 LINE",
"6 0 LINE",
"139 0 LINE",
"178 45 LINE",
"178 356 LINE",
"145 356 LINE",
"145 368 LINE",
"178 368 LINE",
"178 685 LINE",
"138 730 LINE"
);
},
{
closed = 1;
nodes = (
"86 75 LINE",
"86 325 LINE",
"98 325 LINE",
"98 75 LINE"
);
},
{
closed = 1;
nodes = (
"86 655 LINE",
"98 655 LINE",
"98 400 LINE",
"86 400 LINE"
);
}
);
userData = {
assembly = "PUSHW[ ]\011/* 1 value pushed */
19 
MDAP[1]\011/* MoveDirectAbsPt */
PUSHW[ ]\011/* 1 value pushed */
11 
MDAP[1]\011/* MoveDirectAbsPt */
PUSHW[ ]\011/* 2 values pushed */
7 1 
MIRP[10100]\011/* MoveIndirectRelPt */
PUSHW[ ]\011/* 1 value pushed */
1 
MDRP[10000]\011/* MoveDirectRelPt */
PUSHW[ ]\011/* 1 value pushed */
7 
SRP0[ ]\011/* SetRefPoint0 */
PUSHW[ ]\011/* 1 value pushed */
3 
MDRP[10000]\011/* MoveDirectRelPt */
PUSHW[ ]\011/* 3 values pushed */
4 11 7 
SRP1[ ]\011/* SetRefPoint1 */
SRP2[ ]\011/* SetRefPoint2 */
IP[ ]\011/* InterpolatePts */
PUSHW[ ]\011/* 1 value pushed */
7 
SRP0[ ]\011/* SetRefPoint0 */
PUSHW[ ]\011/* 1 value pushed */
5 
MDRP[10000]\011/* MoveDirectRelPt */
PUSHW[ ]\011/* 1 value pushed */
19 
SRP0[ ]\011/* SetRefPoint0 */
PUSHW[ ]\011/* 1 value pushed */
9 
MDRP[10000]\011/* MoveDirectRelPt */
PUSHW[ ]\011/* 1 value pushed */
9 
MDAP[1]\011/* MoveDirectAbsPt */
PUSHW[ ]\011/* 2 values pushed */
14 1 
MIRP[10100]\011/* MoveIndirectRelPt */
PUSHW[ ]\011/* 1 value pushed */
15 
MDRP[10000]\011/* MoveDirectRelPt */
PUSHW[ ]\011/* 1 value pushed */
11 
SRP0[ ]\011/* SetRefPoint0 */
PUSHW[ ]\011/* 1 value pushed */
16 
MDRP[10000]\011/* MoveDirectRelPt */
PUSHW[ ]\011/* 1 value pushed */
7 
SRP0[ ]\011/* SetRefPoint0 */
PUSHW[ ]\011/* 1 value pushed */
20 
MDRP[11100]\011/* MoveDirectRelPt */
SVTCA[0]\011/* SetFreedomAndProjectionVectorToAxis */
PUSHW[ ]\011/* 1 value pushed */
0 
MDAP[1]\011/* MoveDirectAbsPt */
PUSHW[ ]\011/* 1 value pushed */
0 
RCVT[ ]\011/* ReadCVT */
IF[ ]\011/* If */
PUSHW[ ]\011/* 1 value pushed */
8 
MDAP[1]\011/* MoveDirectAbsPt */
ELSE[ ]\011/* Else */
PUSHW[ ]\011/* 2 values pushed */
8 2 
MIAP[0]\011/* MoveIndirectAbsPt */
EIF[ ]\011/* EndIf */
PUSHW[ ]\011/* 3 values pushed */
4 8 0 
SRP1[ ]\011/* SetRefPoint1 */
SRP2[ ]\011/* SetRefPoint2 */
IP[ ]\011/* InterpolatePts */
IUP[0]\011/* InterpolateUntPts */
IUP[1]\011/* InterpolateUntPts */";
};
width = 184;
},
{
hints = (
{
horizontal = 1;
origin = "{0, 1}";
target = "{1, 0}";
type = Stem;
},
{
horizontal = 1;
origin = "{1, 1}";
target = "{2, 3}";
type = Stem;
},
{
horizontal = 1;
origin = "{0, 0}";
target = "{2, 0}";
type = Stem;
},
{
origin = "{0, 1}";
target = "{1, 0}";
type = Stem;
},
{
origin = "{1, 3}";
target = "{0, 5}";
type = Stem;
}
);
layerId = "DBA696BD-A337-48FC-9DA1-CD58B2C81FFB";
paths = (
{
closed = 1;
nodes = (
"6 690 LINE",
"6 0 LINE",
"34 0 LINE",
"42 8 LINE",
"42 356 LINE",
"37 356 LINE",
"37 368 LINE",
"42 368 LINE",
"42 682 LINE",
"34 690 LINE"
);
},
{
closed = 1;
nodes = (
"18 11 LINE",
"18 357 LINE",
"30 357 LINE",
"30 11 LINE"
);
},
{
closed = 1;
nodes = (
"18 679 LINE",
"30 679 LINE",
"30 368 LINE",
"18 368 LINE"
);
}
);
width = 48;
}
);
note = B;
unicode = 0042;
},
{
color = 4;
glyphname = C;
lastChange = "2020-09-25 16:11:56 +0000";
layers = (
{
hints = (
{
horizontal = 1;
origin = "{0, 11}";
target = "{0, 1}";
type = Stem;
},
{
horizontal = 1;
origin = "{0, 8}";
target = "{0, 2}";
type = Stem;
},
{
origin = "{0, 0}";
target = "{0, 13}";
type = Stem;
},
{
origin = "{0, 10}";
target = "{0, 1}";
type = Stem;
}
);
layerId = "B64BEB12-03E1-41C2-8D0F-395888C0A328";
paths = (
{
closed = 1;
nodes = (
"98 75 LINE",
"86 75 LINE",
"86 655 LINE",
"98 655 LINE",
"98 370 LINE",
"178 370 LINE",
"178 685 LINE",
"138 730 LINE",
"45 730 LINE",
"6 685 LINE",
"6 45 LINE",
"45 0 LINE",
"139 0 LINE",
"178 45 LINE",
"178 358 LINE",
"98 358 LINE"
);
}
);
userData = {
assembly = "PUSHW[ ]\011/* 1 value pushed */
10 
CALL[ ]\011/* CallFunction */
PUSHW[ ]\011/* 1 value pushed */
16 
MDAP[1]\011/* MoveDirectAbsPt */
PUSHW[ ]\011/* 1 value pushed */
0 
MDAP[1]\011/* MoveDirectAbsPt */
PUSHW[ ]\011/* 2 values pushed */
1 9 
MIRP[10100]\011/* MoveIndirectRelPt */
PUSHW[ ]\011/* 1 value pushed */
16 
SRP0[ ]\011/* SetRefPoint0 */
PUSHW[ ]\011/* 1 value pushed */
5 
MDRP[10000]\011/* MoveDirectRelPt */
PUSHW[ ]\011/* 1 value pushed */
5 
MDAP[1]\011/* MoveDirectAbsPt */
PUSHW[ ]\011/* 1 value pushed */
1 
SRP0[ ]\011/* SetRefPoint0 */
PUSHW[ ]\011/* 1 value pushed */
9 
MDRP[10000]\011/* MoveDirectRelPt */
PUSHW[ ]\011/* 1 value pushed */
0 
SRP0[ ]\011/* SetRefPoint0 */
PUSHW[ ]\011/* 1 value pushed */
11 
MDRP[10000]\011/* MoveDirectRelPt */
PUSHW[ ]\011/* 1 value pushed */
5 
SRP0[ ]\011/* SetRefPoint0 */
PUSHW[ ]\011/* 2 values pushed */
14 9 
MIRP[10100]\011/* MoveIndirectRelPt */
PUSHW[ ]\011/* 1 value pushed */
1 
SRP0[ ]\011/* SetRefPoint0 */
PUSHW[ ]\011/* 1 value pushed */
17 
MDRP[11100]\011/* MoveDirectRelPt */
SVTCA[0]\011/* SetFreedomAndProjectionVectorToAxis */
PUSHW[ ]\011/* 1 value pushed */
6 
RCVT[ ]\011/* ReadCVT */
IF[ ]\011/* If */
PUSHW[ ]\011/* 1 value pushed */
7 
MDAP[1]\011/* MoveDirectAbsPt */
ELSE[ ]\011/* Else */
PUSHW[ ]\011/* 2 values pushed */
7 19 
MIAP[0]\011/* MoveIndirectAbsPt */
EIF[ ]\011/* EndIf */
PUSHW[ ]\011/* 1 value pushed */
6 
RCVT[ ]\011/* ReadCVT */
IF[ ]\011/* If */
PUSHW[ ]\011/* 1 value pushed */
3 
MDAP[1]\011/* MoveDirectAbsPt */
ELSE[ ]\011/* Else */
PUSHW[ ]\011/* 2 values pushed */
3 13 
MIAP[0]\011/* MoveIndirectAbsPt */
EIF[ ]\011/* EndIf */
IUP[0]\011/* InterpolateUntPts */
IUP[1]\011/* InterpolateUntPts */";
};
width = 184;
},
{
hints = (
{
horizontal = 1;
origin = "{0, 11}";
target = "{0, 1}";
type = Stem;
},
{
horizontal = 1;
origin = "{0, 8}";
target = "{0, 2}";
type = Stem;
},
{
origin = "{0, 10}";
target = "{0, 1}";
type = Stem;
},
{
origin = "{0, 0}";
target = "{0, 13}";
type = Stem;
}
);
layerId = "DBA696BD-A337-48FC-9DA1-CD58B2C81FFB";
paths = (
{
closed = 1;
nodes = (
"30 11 LINE",
"18 11 LINE",
"18 679 LINE",
"30 679 LINE",
"30 370 LINE",
"42 370 LINE",
"42 682 LINE",
"34 690 LINE",
"14 690 LINE",
"6 682 LINE",
"6 8 LINE",
"14 0 LINE",
"34 0 LINE",
"42 8 LINE",
"42 358 LINE",
"30 358 LINE"
);
}
);
width = 48;
}
);
note = C;
unicode = 0043;
},
{
color = 4;
glyphname = D;
lastChange = "2020-09-25 16:13:18 +0000";
layers = (
{
hints = (
{
horizontal = 1;
origin = "{0, 2}";
target = "{1, 2}";
type = Stem;
},
{
horizontal = 1;
origin = "{0, 1}";
target = "{1, 3}";
type = Stem;
},
{
origin = "{0, 2}";
target = "{1, 2}";
type = Stem;
},
{
origin = "{1, 1}";
target = "{0, 4}";
type = Stem;
}
);
layerId = "B64BEB12-03E1-41C2-8D0F-395888C0A328";
paths = (
{
closed = 1;
nodes = (
"138 730 LINE",
"6 730 LINE",
"6 0 LINE",
"139 0 LINE",
"178 45 LINE",
"178 685 LINE"
);
},
{
closed = 1;
nodes = (
"98 655 LINE",
"98 75 LINE",
"86 75 LINE",
"86 655 LINE"
);
}
);
userData = {
assembly = "PUSHW[ ]\011/* 1 value pushed */
10 
MDAP[1]\011/* MoveDirectAbsPt */
PUSHW[ ]\011/* 1 value pushed */
8 
MDAP[1]\011/* MoveDirectAbsPt */
PUSHW[ ]\011/* 2 values pushed */
1 1 
MIRP[10100]\011/* MoveIndirectRelPt */
PUSHW[ ]\011/* 1 value pushed */
10 
SRP0[ ]\011/* SetRefPoint0 */
PUSHW[ ]\011/* 1 value pushed */
3 
MDRP[10000]\011/* MoveDirectRelPt */
PUSHW[ ]\011/* 1 value pushed */
3 
MDAP[1]\011/* MoveDirectAbsPt */
PUSHW[ ]\011/* 2 values pushed */
7 1 
MIRP[10100]\011/* MoveIndirectRelPt */
PUSHW[ ]\011/* 1 value pushed */
1 
SRP0[ ]\011/* SetRefPoint0 */
PUSHW[ ]\011/* 1 value pushed */
11 
MDRP[11100]\011/* MoveDirectRelPt */
SVTCA[0]\011/* SetFreedomAndProjectionVectorToAxis */
PUSHW[ ]\011/* 1 value pushed */
4 
MDAP[1]\011/* MoveDirectAbsPt */
PUSHW[ ]\011/* 1 value pushed */
0 
RCVT[ ]\011/* ReadCVT */
IF[ ]\011/* If */
PUSHW[ ]\011/* 1 value pushed */
2 
MDAP[1]\011/* MoveDirectAbsPt */
ELSE[ ]\011/* Else */
PUSHW[ ]\011/* 2 values pushed */
2 2 
MIAP[0]\011/* MoveIndirectAbsPt */
EIF[ ]\011/* EndIf */
IUP[0]\011/* InterpolateUntPts */
IUP[1]\011/* InterpolateUntPts */";
};
width = 184;
},
{
hints = (
{
horizontal = 1;
origin = "{1, 2}";
target = "{0, 2}";
type = Stem;
},
{
horizontal = 1;
origin = "{0, 1}";
target = "{1, 3}";
type = Stem;
},
{
origin = "{0, 2}";
target = "{1, 2}";
type = Stem;
},
{
origin = "{1, 1}";
target = "{0, 4}";
type = Stem;
}
);
layerId = "DBA696BD-A337-48FC-9DA1-CD58B2C81FFB";
paths = (
{
closed = 1;
nodes = (
"34 690 LINE",
"6 690 LINE",
"6 0 LINE",
"34 0 LINE",
"42 8 LINE",
"42 682 LINE"
);
},
{
closed = 1;
nodes = (
"30 679 LINE",
"30 11 LINE",
"18 11 LINE",
"18 679 LINE"
);
}
);
width = 48;
}
);
note = D;
unicode = 0044;
},
{
color = 4;
glyphname = Eth;
lastChange = "2020-10-04 16:45:24 +0000";
layers = (
{
components = (
{
name = D;
}
);
layerId = "B64BEB12-03E1-41C2-8D0F-395888C0A328";
paths = (
{
closed = 1;
nodes = (
"-7 308 LINE",
"151 308 LINE",
"151 383 LINE",
"-7 383 LINE"
);
}
);
width = 184;
},
{
components = (
{
name = D;
}
);
layerId = "DBA696BD-A337-48FC-9DA1-CD58B2C81FFB";
paths = (
{
closed = 1;
nodes = (
"0 340 LINE",
"34 340 LINE",
"34 351 LINE",
"0 351 LINE"
);
}
);
width = 48;
}
);
unicode = 00D0;
},
{
color = 4;
glyphname = E;
lastChange = "2020-09-25 16:13:04 +0000";
layers = (
{
hints = (
{
horizontal = 1;
origin = "{0, 8}";
target = "{0, 3}";
type = Stem;
},
{
horizontal = 1;
origin = "{1, 3}";
target = "{1, 0}";
type = Stem;
},
{
horizontal = 1;
origin = "{0, 2}";
target = "{0, 9}";
type = Stem;
},
{
origin = "{0, 3}";
target = "{0, 8}";
type = Stem;
},
{
origin = "{0, 7}";
target = "{0, 4}";
type = Stem;
}
);
layerId = "B64BEB12-03E1-41C2-8D0F-395888C0A328";
paths = (
{
closed = 1;
nodes = (
"178 414 LINE",
"178 730 LINE",
"6 730 LINE",
"6 0 LINE",
"178 0 LINE",
"178 315 LINE",
"98 315 LINE",
"98 75 LINE",
"86 75 LINE",
"86 655 LINE",
"98 655 LINE",
"98 414 LINE"
);
},
{
closed = 1;
nodes = (
"15 327 LINE",
"178 327 LINE",
"178 402 LINE",
"15 402 LINE"
);
}
);
userData = {
assembly = "PUSHW[ ]\011/* 4 values pushed */
6 1 9 4 
CALL[ ]\011/* CallFunction */
PUSHW[ ]\011/* 1 value pushed */
9 
SRP0[ ]\011/* SetRefPoint0 */
PUSHW[ ]\011/* 1 value pushed */
8 
MDRP[11100]\011/* MoveDirectRelPt */
PUSHW[ ]\011/* 1 value pushed */
0 
MDRP[10000]\011/* MoveDirectRelPt */
PUSHW[ ]\011/* 1 value pushed */
6 
SRP0[ ]\011/* SetRefPoint0 */
PUSHW[ ]\011/* 1 value pushed */
1 
MDRP[10000]\011/* MoveDirectRelPt */
PUSHW[ ]\011/* 1 value pushed */
8 
SRP0[ ]\011/* SetRefPoint0 */
PUSHW[ ]\011/* 1 value pushed */
11 
MDRP[10000]\011/* MoveDirectRelPt */
SVTCA[0]\011/* SetFreedomAndProjectionVectorToAxis */
PUSHW[ ]\011/* 1 value pushed */
10 
MDAP[1]\011/* MoveDirectAbsPt */
PUSHW[ ]\011/* 1 value pushed */
0 
RCVT[ ]\011/* ReadCVT */
IF[ ]\011/* If */
PUSHW[ ]\011/* 1 value pushed */
8 
MDAP[1]\011/* MoveDirectAbsPt */
ELSE[ ]\011/* Else */
PUSHW[ ]\011/* 2 values pushed */
8 2 
MIAP[0]\011/* MoveIndirectAbsPt */
EIF[ ]\011/* EndIf */
IUP[0]\011/* InterpolateUntPts */
IUP[1]\011/* InterpolateUntPts */";
};
width = 184;
},
{
hints = (
{
horizontal = 1;
origin = "{0, 3}";
target = "{0, 8}";
type = Stem;
},
{
horizontal = 1;
origin = "{1, 0}";
target = "{1, 3}";
type = Stem;
},
{
horizontal = 1;
origin = "{0, 2}";
target = "{0, 9}";
type = Stem;
},
{
origin = "{0, 3}";
target = "{0, 8}";
type = Stem;
},
{
origin = "{0, 7}";
target = "{0, 4}";
type = Stem;
}
);
layerId = "DBA696BD-A337-48FC-9DA1-CD58B2C81FFB";
paths = (
{
closed = 1;
nodes = (
"42 380 LINE",
"42 690 LINE",
"6 690 LINE",
"6 0 LINE",
"42 0 LINE",
"42 345 LINE",
"30 345 LINE",
"30 11 LINE",
"18 11 LINE",
"18 679 LINE",
"30 679 LINE",
"30 380 LINE"
);
},
{
closed = 1;
nodes = (
"7 357 LINE",
"42 357 LINE",
"42 368 LINE",
"7 368 LINE"
);
}
);
width = 48;
}
);
note = E;
unicode = 0045;
},
{
color = 4;
glyphname = F;
lastChange = "2020-09-25 16:12:29 +0000";
layers = (
{
hints = (
{
horizontal = 1;
origin = "{0, 5}";
target = up;
type = BottomGhost;
},
{
horizontal = 1;
origin = "{1, 0}";
target = "{1, 3}";
type = Stem;
},
{
horizontal = 1;
origin = "{0, 4}";
target = "{0, 8}";
type = Stem;
},
{
origin = "{0, 5}";
target = "{0, 6}";
type = Stem;
},
{
origin = "{0, 10}";
target = "{1, 1}";
type = Stem;
}
);
layerId = "B64BEB12-03E1-41C2-8D0F-395888C0A328";
paths = (
{
closed = 1;
nodes = (
"178 414 LINE",
"178 730 LINE",
"138 730 LINE",
"46 730 LINE",
"6 730 LINE",
"6 0 LINE",
"86 0 LINE",
"86 75 LINE",
"86 655 LINE",
"98 655 LINE",
"98 414 LINE"
);
},
{
closed = 1;
nodes = (
"15 327 LINE",
"178 327 LINE",
"178 402 LINE",
"15 402 LINE"
);
}
);
userData = {
assembly = "PUSHW[ ]\011/* 1 value pushed */
10 
CALL[ ]\011/* CallFunction */
PUSHW[ ]\011/* 4 values pushed */
5 9 6 14 
CALL[ ]\011/* CallFunction */
PUSHW[ ]\011/* 1 value pushed */
5 
SRP0[ ]\011/* SetRefPoint0 */
PUSHW[ ]\011/* 1 value pushed */
0 
MDRP[10000]\011/* MoveDirectRelPt */
PUSHW[ ]\011/* 1 value pushed */
6 
SRP0[ ]\011/* SetRefPoint0 */
PUSHW[ ]\011/* 2 values pushed */
9 12 
MIRP[10100]\011/* MoveIndirectRelPt */
SVTCA[0]\011/* SetFreedomAndProjectionVectorToAxis */
PUSHW[ ]\011/* 1 value pushed */
6 
RCVT[ ]\011/* ReadCVT */
IF[ ]\011/* If */
PUSHW[ ]\011/* 1 value pushed */
7 
MDAP[1]\011/* MoveDirectAbsPt */
ELSE[ ]\011/* Else */
PUSHW[ ]\011/* 2 values pushed */
7 19 
MIAP[0]\011/* MoveIndirectAbsPt */
EIF[ ]\011/* EndIf */
PUSHW[ ]\011/* 1 value pushed */
6 
RCVT[ ]\011/* ReadCVT */
IF[ ]\011/* If */
PUSHW[ ]\011/* 1 value pushed */
5 
MDAP[1]\011/* MoveDirectAbsPt */
ELSE[ ]\011/* Else */
PUSHW[ ]\011/* 2 values pushed */
5 13 
MIAP[0]\011/* MoveIndirectAbsPt */
EIF[ ]\011/* EndIf */
IUP[0]\011/* InterpolateUntPts */
IUP[1]\011/* InterpolateUntPts */";
};
width = 184;
},
{
hints = (
{
horizontal = 1;
origin = "{0, 5}";
target = up;
type = BottomGhost;
},
{
horizontal = 1;
origin = "{1, 0}";
target = "{1, 3}";
type = Stem;
},
{
horizontal = 1;
origin = "{0, 4}";
target = "{0, 8}";
type = Stem;
},
{
origin = "{0, 5}";
target = "{0, 6}";
type = Stem;
},
{
origin = "{0, 10}";
target = "{1, 1}";
type = Stem;
}
);
layerId = "DBA696BD-A337-48FC-9DA1-CD58B2C81FFB";
paths = (
{
closed = 1;
nodes = (
"42 389 LINE",
"42 690 LINE",
"19 690 LINE",
"12 690 LINE",
"6 690 LINE",
"6 0 LINE",
"18 0 LINE",
"18 75 LINE",
"18 679 LINE",
"30 679 LINE",
"30 389 LINE"
);
},
{
closed = 1;
nodes = (
"7 366 LINE",
"42 366 LINE",
"42 377 LINE",
"7 377 LINE"
);
}
);
width = 48;
}
);
note = F;
unicode = 0046;
},
{
color = 4;
glyphname = G;
lastChange = "2020-09-25 16:13:22 +0000";
layers = (
{
hints = (
{
horizontal = 1;
origin = "{0, 15}";
target = "{0, 5}";
type = Stem;
},
{
horizontal = 1;
origin = "{1, 3}";
target = "{1, 2}";
type = Stem;
},
{
horizontal = 1;
origin = "{0, 12}";
target = "{0, 6}";
type = Stem;
},
{
origin = "{0, 14}";
target = "{0, 5}";
type = Stem;
},
{
origin = "{0, 4}";
target = "{0, 1}";
type = Stem;
}
);
layerId = "B64BEB12-03E1-41C2-8D0F-395888C0A328";
paths = (
{
closed = 1;
nodes = (
"139 0 LINE",
"178 45 LINE",
"178 400 LINE",
"98 400 LINE",
"98 75 LINE",
"86 75 LINE",
"86 655 LINE",
"98 655 LINE",
"98 412 LINE",
"178 412 LINE",
"178 685 LINE",
"138 730 LINE",
"45 730 LINE",
"6 685 LINE",
"6 45 LINE",
"45 0 LINE"
);
},
{
closed = 1;
nodes = (
"175 325 LINE",
"175 400 LINE",
"92 400 LINE",
"92 325 LINE"
);
}
);
userData = {
assembly = "PUSHW[ ]\011/* 1 value pushed */
10 
CALL[ ]\011/* CallFunction */
PUSHW[ ]\011/* 4 values pushed */
14 9 5 14 
CALL[ ]\011/* CallFunction */
PUSHW[ ]\011/* 4 values pushed */
10 9 11 14 
CALL[ ]\011/* CallFunction */
PUSHW[ ]\011/* 1 value pushed */
10 
SRP0[ ]\011/* SetRefPoint0 */
PUSHW[ ]\011/* 1 value pushed */
1 
MDRP[10000]\011/* MoveDirectRelPt */
PUSHW[ ]\011/* 1 value pushed */
11 
SRP0[ ]\011/* SetRefPoint0 */
PUSHW[ ]\011/* 1 value pushed */
15 
MDRP[10000]\011/* MoveDirectRelPt */
PUSHW[ ]\011/* 1 value pushed */
11 
SRP0[ ]\011/* SetRefPoint0 */
PUSHW[ ]\011/* 2 values pushed */
17 9 
MIRP[10100]\011/* MoveIndirectRelPt */
PUSHW[ ]\011/* 1 value pushed */
10 
SRP0[ ]\011/* SetRefPoint0 */
PUSHW[ ]\011/* 1 value pushed */
19 
MDRP[11100]\011/* MoveDirectRelPt */
SVTCA[0]\011/* SetFreedomAndProjectionVectorToAxis */
PUSHW[ ]\011/* 1 value pushed */
6 
RCVT[ ]\011/* ReadCVT */
IF[ ]\011/* If */
PUSHW[ ]\011/* 1 value pushed */
7 
MDAP[1]\011/* MoveDirectAbsPt */
ELSE[ ]\011/* Else */
PUSHW[ ]\011/* 2 values pushed */
7 19 
MIAP[0]\011/* MoveIndirectAbsPt */
EIF[ ]\011/* EndIf */
PUSHW[ ]\011/* 1 value pushed */
6 
RCVT[ ]\011/* ReadCVT */
IF[ ]\011/* If */
PUSHW[ ]\011/* 1 value pushed */
3 
MDAP[1]\011/* MoveDirectAbsPt */
ELSE[ ]\011/* Else */
PUSHW[ ]\011/* 2 values pushed */
3 13 
MIAP[0]\011/* MoveIndirectAbsPt */
EIF[ ]\011/* EndIf */
PUSHW[ ]\011/* 1 value pushed */
7 
SRP0[ ]\011/* SetRefPoint0 */
PUSHW[ ]\011/* 1 value pushed */
10 
MDRP[11100]\011/* MoveDirectRelPt */
IUP[0]\011/* InterpolateUntPts */
IUP[1]\011/* InterpolateUntPts */";
};
width = 184;
},
{
hints = (
{
horizontal = 1;
origin = "{0, 15}";
target = "{0, 5}";
type = Stem;
},
{
horizontal = 1;
origin = "{1, 3}";
target = "{1, 2}";
type = Stem;
},
{
horizontal = 1;
origin = "{0, 12}";
target = "{0, 6}";
type = Stem;
},
{
origin = "{0, 14}";
target = "{0, 5}";
type = Stem;
},
{
origin = "{0, 4}";
target = "{0, 1}";
type = Stem;
}
);
layerId = "DBA696BD-A337-48FC-9DA1-CD58B2C81FFB";
paths = (
{
closed = 1;
nodes = (
"34 0 LINE",
"42 8 LINE",
"42 358 LINE",
"30 358 LINE",
"30 11 LINE",
"18 11 LINE",
"18 679 LINE",
"30 679 LINE",
"30 370 LINE",
"42 370 LINE",
"42 682 LINE",
"34 690 LINE",
"14 690 LINE",
"6 682 LINE",
"6 8 LINE",
"14 0 LINE"
);
},
{
closed = 1;
nodes = (
"39 346 LINE",
"39 358 LINE",
"23 358 LINE",
"23 346 LINE"
);
}
);
width = 48;
}
);
note = G;
unicode = 0047;
},
{
color = 4;
glyphname = H;
lastChange = "2020-09-25 16:13:02 +0000";
layers = (
{
hints = (
{
horizontal = 1;
origin = "{0, 5}";
target = up;
type = BottomGhost;
},
{
horizontal = 1;
origin = "{0, 7}";
target = "{0, 2}";
type = Stem;
},
{
horizontal = 1;
origin = "{0, 4}";
target = down;
type = TopGhost;
},
{
origin = "{0, 5}";
target = "{0, 6}";
type = Stem;
},
{
origin = "{0, 9}";
target = "{0, 10}";
type = Stem;
}
);
layerId = "B64BEB12-03E1-41C2-8D0F-395888C0A328";
paths = (
{
closed = 1;
nodes = (
"98 730 LINE",
"98 402 LINE",
"86 402 LINE",
"86 730 LINE",
"6 730 LINE",
"6 0 LINE",
"86 0 LINE",
"86 327 LINE",
"98 327 LINE",
"98 0 LINE",
"178 0 LINE",
"178 730 LINE"
);
}
);
userData = {
assembly = "PUSHW[ ]\011/* 1 value pushed */
12 
MDAP[1]\011/* MoveDirectAbsPt */
PUSHW[ ]\011/* 1 value pushed */
2 
MDAP[1]\011/* MoveDirectAbsPt */
PUSHW[ ]\011/* 2 values pushed */
1 1 
MIRP[10100]\011/* MoveIndirectRelPt */
PUSHW[ ]\011/* 1 value pushed */
12 
SRP0[ ]\011/* SetRefPoint0 */
PUSHW[ ]\011/* 1 value pushed */
6 
MDRP[10000]\011/* MoveDirectRelPt */
PUSHW[ ]\011/* 1 value pushed */
6 
MDAP[1]\011/* MoveDirectAbsPt */
PUSHW[ ]\011/* 2 values pushed */
5 1 
MIRP[10100]\011/* MoveIndirectRelPt */
PUSHW[ ]\011/* 1 value pushed */
8 
MDRP[10000]\011/* MoveDirectRelPt */
PUSHW[ ]\011/* 1 value pushed */
2 
SRP0[ ]\011/* SetRefPoint0 */
PUSHW[ ]\011/* 1 value pushed */
10 
MDRP[10000]\011/* MoveDirectRelPt */
PUSHW[ ]\011/* 1 value pushed */
1 
SRP0[ ]\011/* SetRefPoint0 */
PUSHW[ ]\011/* 1 value pushed */
13 
MDRP[11100]\011/* MoveDirectRelPt */
SVTCA[0]\011/* SetFreedomAndProjectionVectorToAxis */
PUSHW[ ]\011/* 1 value pushed */
0 
MDAP[1]\011/* MoveDirectAbsPt */
PUSHW[ ]\011/* 1 value pushed */
7 
MDAP[1]\011/* MoveDirectAbsPt */
PUSHW[ ]\011/* 1 value pushed */
0 
RCVT[ ]\011/* ReadCVT */
IF[ ]\011/* If */
PUSHW[ ]\011/* 1 value pushed */
1 
MDAP[1]\011/* MoveDirectAbsPt */
ELSE[ ]\011/* Else */
PUSHW[ ]\011/* 2 values pushed */
1 2 
MIAP[0]\011/* MoveIndirectAbsPt */
EIF[ ]\011/* EndIf */
PUSHW[ ]\011/* 1 value pushed */
0 
RCVT[ ]\011/* ReadCVT */
IF[ ]\011/* If */
PUSHW[ ]\011/* 1 value pushed */
5 
MDAP[1]\011/* MoveDirectAbsPt */
ELSE[ ]\011/* Else */
PUSHW[ ]\011/* 2 values pushed */
5 2 
MIAP[0]\011/* MoveIndirectAbsPt */
EIF[ ]\011/* EndIf */
IUP[0]\011/* InterpolateUntPts */
IUP[1]\011/* InterpolateUntPts */";
};
width = 184;
},
{
hints = (
{
horizontal = 1;
origin = "{0, 5}";
target = up;
type = BottomGhost;
},
{
horizontal = 1;
origin = "{0, 2}";
target = "{0, 7}";
type = Stem;
},
{
horizontal = 1;
origin = "{0, 4}";
target = down;
type = TopGhost;
},
{
origin = "{0, 5}";
target = "{0, 6}";
type = Stem;
},
{
origin = "{0, 9}";
target = "{0, 10}";
type = Stem;
}
);
layerId = "DBA696BD-A337-48FC-9DA1-CD58B2C81FFB";
paths = (
{
closed = 1;
nodes = (
"30 690 LINE",
"30 368 LINE",
"18 368 LINE",
"18 690 LINE",
"6 690 LINE",
"6 0 LINE",
"18 0 LINE",
"18 357 LINE",
"30 357 LINE",
"30 0 LINE",
"42 0 LINE",
"42 690 LINE"
);
}
);
width = 48;
}
);
note = H;
unicode = 0048;
},
{
color = 4;
glyphname = I;
lastChange = "2020-09-25 16:14:00 +0000";
layers = (
{
hints = (
{
horizontal = 1;
origin = "{0, 2}";
target = up;
type = BottomGhost;
},
{
horizontal = 1;
origin = "{0, 1}";
target = down;
type = TopGhost;
},
{
origin = "{0, 2}";
target = "{0, 3}";
type = Stem;
}
);
layerId = "B64BEB12-03E1-41C2-8D0F-395888C0A328";
paths = (
{
closed = 1;
nodes = (
"86 730 LINE",
"6 730 LINE",
"6 0 LINE",
"86 0 LINE"
);
}
);
userData = {
assembly = "PUSHW[ ]\011/* 4 values pushed */
0 1 1 4 
CALL[ ]\011/* CallFunction */
SVTCA[0]\011/* SetFreedomAndProjectionVectorToAxis */
PUSHW[ ]\011/* 1 value pushed */
2 
MDAP[1]\011/* MoveDirectAbsPt */
PUSHW[ ]\011/* 1 value pushed */
0 
RCVT[ ]\011/* ReadCVT */
IF[ ]\011/* If */
PUSHW[ ]\011/* 1 value pushed */
0 
MDAP[1]\011/* MoveDirectAbsPt */
ELSE[ ]\011/* Else */
PUSHW[ ]\011/* 2 values pushed */
0 2 
MIAP[0]\011/* MoveIndirectAbsPt */
EIF[ ]\011/* EndIf */
IUP[0]\011/* InterpolateUntPts */
IUP[1]\011/* InterpolateUntPts */";
};
width = 92;
},
{
hints = (
{
horizontal = 1;
origin = "{0, 2}";
target = up;
type = BottomGhost;
},
{
horizontal = 1;
origin = "{0, 1}";
target = down;
type = TopGhost;
},
{
origin = "{0, 2}";
target = "{0, 3}";
type = Stem;
}
);
layerId = "DBA696BD-A337-48FC-9DA1-CD58B2C81FFB";
paths = (
{
closed = 1;
nodes = (
"18 690 LINE",
"6 690 LINE",
"6 0 LINE",
"18 0 LINE"
);
}
);
width = 24;
}
);
note = I;
unicode = 0049;
},
{
color = 4;
glyphname = J;
lastChange = "2020-09-25 16:12:36 +0000";
layers = (
{
hints = (
{
horizontal = 1;
origin = "{0, 2}";
target = "{0, 10}";
type = Stem;
},
{
horizontal = 1;
origin = "{0, 6}";
target = "{0, 7}";
type = Stem;
},
{
origin = "{0, 1}";
target = "{0, 10}";
type = Stem;
},
{
origin = "{0, 9}";
target = "{0, 4}";
type = Stem;
}
);
layerId = "B64BEB12-03E1-41C2-8D0F-395888C0A328";
paths = (
{
closed = 1;
nodes = (
"6 643 LINE",
"6 45 LINE",
"45 0 LINE",
"139 0 LINE",
"178 45 LINE",
"178 730 LINE",
"6 730 LINE",
"6 655 LINE",
"98 655 LINE",
"98 75 LINE",
"86 75 LINE",
"86 643 LINE"
);
}
);
userData = {
assembly = "PUSHW[ ]\011/* 1 value pushed */
10 
CALL[ ]\011/* CallFunction */
PUSHW[ ]\011/* 1 value pushed */
12 
MDAP[1]\011/* MoveDirectAbsPt */
PUSHW[ ]\011/* 1 value pushed */
4 
MDAP[1]\011/* MoveDirectAbsPt */
PUSHW[ ]\011/* 2 values pushed */
7 9 
MIRP[10100]\011/* MoveIndirectRelPt */
PUSHW[ ]\011/* 1 value pushed */
0 
MDRP[10000]\011/* MoveDirectRelPt */
PUSHW[ ]\011/* 1 value pushed */
0 
MDAP[1]\011/* MoveDirectAbsPt */
PUSHW[ ]\011/* 3 values pushed */
1 4 7 
SRP1[ ]\011/* SetRefPoint1 */
SRP2[ ]\011/* SetRefPoint2 */
IP[ ]\011/* InterpolatePts */
PUSHW[ ]\011/* 1 value pushed */
12 
SRP0[ ]\011/* SetRefPoint0 */
PUSHW[ ]\011/* 1 value pushed */
10 
MDRP[10000]\011/* MoveDirectRelPt */
PUSHW[ ]\011/* 1 value pushed */
10 
MDAP[1]\011/* MoveDirectAbsPt */
PUSHW[ ]\011/* 2 values pushed */
3 9 
MIRP[10100]\011/* MoveIndirectRelPt */
PUSHW[ ]\011/* 1 value pushed */
7 
SRP0[ ]\011/* SetRefPoint0 */
PUSHW[ ]\011/* 1 value pushed */
13 
MDRP[11100]\011/* MoveDirectRelPt */
SVTCA[0]\011/* SetFreedomAndProjectionVectorToAxis */
PUSHW[ ]\011/* 1 value pushed */
6 
RCVT[ ]\011/* ReadCVT */
IF[ ]\011/* If */
PUSHW[ ]\011/* 1 value pushed */
0 
MDAP[1]\011/* MoveDirectAbsPt */
ELSE[ ]\011/* Else */
PUSHW[ ]\011/* 2 values pushed */
0 19 
MIAP[0]\011/* MoveIndirectAbsPt */
EIF[ ]\011/* EndIf */
PUSHW[ ]\011/* 1 value pushed */
6 
RCVT[ ]\011/* ReadCVT */
IF[ ]\011/* If */
PUSHW[ ]\011/* 1 value pushed */
5 
MDAP[1]\011/* MoveDirectAbsPt */
ELSE[ ]\011/* Else */
PUSHW[ ]\011/* 2 values pushed */
5 19 
MIAP[0]\011/* MoveIndirectAbsPt */
EIF[ ]\011/* EndIf */
PUSHW[ ]\011/* 1 value pushed */
6 
RCVT[ ]\011/* ReadCVT */
IF[ ]\011/* If */
PUSHW[ ]\011/* 1 value pushed */
8 
MDAP[1]\011/* MoveDirectAbsPt */
ELSE[ ]\011/* Else */
PUSHW[ ]\011/* 2 values pushed */
8 13 
MIAP[0]\011/* MoveIndirectAbsPt */
EIF[ ]\011/* EndIf */
IUP[0]\011/* InterpolateUntPts */
IUP[1]\011/* InterpolateUntPts */";
};
width = 184;
},
{
hints = (
{
horizontal = 1;
origin = "{0, 2}";
target = "{0, 10}";
type = Stem;
},
{
horizontal = 1;
origin = "{0, 6}";
target = "{0, 7}";
type = Stem;
},
{
origin = "{0, 1}";
target = "{0, 10}";
type = Stem;
},
{
origin = "{0, 9}";
target = "{0, 4}";
type = Stem;
}
);
layerId = "DBA696BD-A337-48FC-9DA1-CD58B2C81FFB";
paths = (
{
closed = 1;
nodes = (
"6 667 LINE",
"6 8 LINE",
"14 0 LINE",
"34 0 LINE",
"42 8 LINE",
"42 690 LINE",
"6 690 LINE",
"6 679 LINE",
"30 679 LINE",
"30 11 LINE",
"18 11 LINE",
"18 667 LINE"
);
}
);
width = 48;
}
);
note = J;
unicode = 004A;
},
{
color = 4;
glyphname = K;
lastChange = "2020-09-25 16:12:09 +0000";
layers = (
{
hints = (
{
horizontal = 1;
origin = "{0, 15}";
target = up;
type = BottomGhost;
},
{
horizontal = 1;
origin = "{0, 7}";
target = "{0, 12}";
type = Stem;
},
{
horizontal = 1;
origin = "{0, 14}";
target = down;
type = TopGhost;
},
{
horizontal = 1;
origin = "{0, 1}";
target = "{0, 6}";
type = Stem;
},
{
origin = "{0, 15}";
target = "{0, 0}";
type = Stem;
},
{
origin = "{0, 3}";
target = "{0, 4}";
type = Stem;
}
);
layerId = "B64BEB12-03E1-41C2-8D0F-395888C0A328";
paths = (
{
closed = 1;
nodes = (
"86 0 LINE",
"86 325 LINE",
"98 325 LINE",
"98 0 LINE",
"178 0 LINE",
"178 358 LINE",
"145 358 LINE",
"145 370 LINE",
"178 370 LINE",
"178 730 LINE",
"98 730 LINE",
"98 400 LINE",
"86 400 LINE",
"86 730 LINE",
"6 730 LINE",
"6 0 LINE"
);
}
);
userData = {
assembly = "PUSHW[ ]\011/* 4 values pushed */
6 1 7 4 
CALL[ ]\011/* CallFunction */
PUSHW[ ]\011/* 1 value pushed */
6 
SRP0[ ]\011/* SetRefPoint0 */
PUSHW[ ]\011/* 1 value pushed */
4 
MDRP[10000]\011/* MoveDirectRelPt */
PUSHW[ ]\011/* 1 value pushed */
6 
SRP0[ ]\011/* SetRefPoint0 */
PUSHW[ ]\011/* 1 value pushed */
9 
MDRP[10000]\011/* MoveDirectRelPt */
PUSHW[ ]\011/* 1 value pushed */
6 
SRP0[ ]\011/* SetRefPoint0 */
PUSHW[ ]\011/* 1 value pushed */
11 
MDRP[10000]\011/* MoveDirectRelPt */
SVTCA[0]\011/* SetFreedomAndProjectionVectorToAxis */
PUSHW[ ]\011/* 1 value pushed */
0 
MDAP[1]\011/* MoveDirectAbsPt */
PUSHW[ ]\011/* 1 value pushed */
8 
MDAP[1]\011/* MoveDirectAbsPt */
PUSHW[ ]\011/* 1 value pushed */
12 
MDAP[1]\011/* MoveDirectAbsPt */
PUSHW[ ]\011/* 1 value pushed */
0 
RCVT[ ]\011/* ReadCVT */
IF[ ]\011/* If */
PUSHW[ ]\011/* 1 value pushed */
2 
MDAP[1]\011/* MoveDirectAbsPt */
ELSE[ ]\011/* Else */
PUSHW[ ]\011/* 2 values pushed */
2 2 
MIAP[0]\011/* MoveIndirectAbsPt */
EIF[ ]\011/* EndIf */
PUSHW[ ]\011/* 1 value pushed */
0 
RCVT[ ]\011/* ReadCVT */
IF[ ]\011/* If */
PUSHW[ ]\011/* 1 value pushed */
6 
MDAP[1]\011/* MoveDirectAbsPt */
ELSE[ ]\011/* Else */
PUSHW[ ]\011/* 2 values pushed */
6 2 
MIAP[0]\011/* MoveIndirectAbsPt */
EIF[ ]\011/* EndIf */
PUSHW[ ]\011/* 3 values pushed */
5 2 0 
SRP1[ ]\011/* SetRefPoint1 */
SRP2[ ]\011/* SetRefPoint2 */
IP[ ]\011/* InterpolatePts */
PUSHW[ ]\011/* 3 values pushed */
11 2 0 
SRP1[ ]\011/* SetRefPoint1 */
SRP2[ ]\011/* SetRefPoint2 */
IP[ ]\011/* InterpolatePts */
IUP[0]\011/* InterpolateUntPts */
IUP[1]\011/* InterpolateUntPts */";
};
width = 184;
},
{
hints = (
{
horizontal = 1;
origin = "{0, 15}";
target = up;
type = BottomGhost;
},
{
horizontal = 1;
origin = "{0, 1}";
target = "{0, 12}";
type = Stem;
},
{
horizontal = 1;
origin = "{0, 14}";
target = down;
type = TopGhost;
},
{
origin = "{0, 15}";
target = "{0, 0}";
type = Stem;
},
{
origin = "{0, 3}";
target = "{0, 6}";
type = Stem;
}
);
layerId = "DBA696BD-A337-48FC-9DA1-CD58B2C81FFB";
paths = (
{
closed = 1;
nodes = (
"18 0 LINE",
"18 357 LINE",
"30 357 LINE",
"30 0 LINE",
"42 0 LINE",
"42 357 LINE",
"37 357 LINE",
"37 368 LINE",
"42 368 LINE",
"42 690 LINE",
"30 690 LINE",
"30 368 LINE",
"18 368 LINE",
"18 690 LINE",
"6 690 LINE",
"6 0 LINE"
);
}
);
width = 48;
}
);
note = K;
unicode = 004B;
},
{
color = 4;
glyphname = L;
lastChange = "2020-10-01 09:03:43 +0000";
layers = (
{
layerId = "B64BEB12-03E1-41C2-8D0F-395888C0A328";
paths = (
{
closed = 1;
nodes = (
"6 730 LINE",
"6 0 LINE",
"92 0 LINE",
"92 75 LINE",
"86 75 LINE",
"86 730 LINE"
);
}
);
userData = {
assembly = "PUSHW[ ]\011/* 1 value pushed */
10 
CALL[ ]\011/* CallFunction */
PUSHW[ ]\011/* 4 values pushed */
0 12 5 14 
CALL[ ]\011/* CallFunction */
PUSHW[ ]\011/* 3 values pushed */
3 5 0 
SRP1[ ]\011/* SetRefPoint1 */
SRP2[ ]\011/* SetRefPoint2 */
IP[ ]\011/* InterpolatePts */
PUSHW[ ]\011/* 1 value pushed */
3 
MDAP[1]\011/* MoveDirectAbsPt */
PUSHW[ ]\011/* 2 values pushed */
2 9 
MIRP[10100]\011/* MoveIndirectRelPt */
SVTCA[0]\011/* SetFreedomAndProjectionVectorToAxis */
PUSHW[ ]\011/* 1 value pushed */
6 
RCVT[ ]\011/* ReadCVT */
IF[ ]\011/* If */
PUSHW[ ]\011/* 1 value pushed */
6 
MDAP[1]\011/* MoveDirectAbsPt */
ELSE[ ]\011/* Else */
PUSHW[ ]\011/* 2 values pushed */
6 19 
MIAP[0]\011/* MoveIndirectAbsPt */
EIF[ ]\011/* EndIf */
PUSHW[ ]\011/* 1 value pushed */
6 
RCVT[ ]\011/* ReadCVT */
IF[ ]\011/* If */
PUSHW[ ]\011/* 1 value pushed */
2 
MDAP[1]\011/* MoveDirectAbsPt */
ELSE[ ]\011/* Else */
PUSHW[ ]\011/* 2 values pushed */
2 13 
MIAP[0]\011/* MoveIndirectAbsPt */
EIF[ ]\011/* EndIf */
PUSHW[ ]\011/* 1 value pushed */
6 
SRP0[ ]\011/* SetRefPoint0 */
PUSHW[ ]\011/* 2 values pushed */
0 8 
MIRP[10100]\011/* MoveIndirectRelPt */
PUSHW[ ]\011/* 1 value pushed */
4 
MDRP[10000]\011/* MoveDirectRelPt */
PUSHW[ ]\011/* 1 value pushed */
5 
MDRP[10000]\011/* MoveDirectRelPt */
IUP[0]\011/* InterpolateUntPts */
IUP[1]\011/* InterpolateUntPts */";
};
width = 92;
},
{
hints = (
{
horizontal = 1;
origin = "{0, 1}";
target = "{0, 4}";
type = Stem;
},
{
horizontal = 1;
origin = "{0, 0}";
target = down;
type = TopGhost;
},
{
origin = "{0, 1}";
target = "{0, 4}";
type = Stem;
}
);
layerId = "DBA696BD-A337-48FC-9DA1-CD58B2C81FFB";
paths = (
{
closed = 1;
nodes = (
"6 690 LINE",
"6 0 LINE",
"24 0 LINE",
"24 11 LINE",
"18 11 LINE",
"18 690 LINE"
);
}
);
width = 24;
}
);
note = T;
unicode = 004C;
},
{
color = 7;
glyphname = Lslash;
lastChange = "2020-10-04 16:46:46 +0000";
layers = (
{
components = (
{
name = L;
}
);
layerId = "DBA696BD-A337-48FC-9DA1-CD58B2C81FFB";
paths = (
{
closed = 1;
nodes = (
"0 362 LINE",
"24 377 LINE",
"24 389 LINE",
"0 374 LINE"
);
}
);
width = 24;
},
{
components = (
{
name = L;
}
);
layerId = "B64BEB12-03E1-41C2-8D0F-395888C0A328";
paths = (
{
closed = 1;
nodes = (
"0 308 LINE",
"92 370 LINE",
"92 445 LINE",
"0 383 LINE"
);
}
);
width = 92;
}
);
unicode = 0141;
},
{
color = 4;
glyphname = M;
lastChange = "2020-09-25 16:12:41 +0000";
layers = (
{
guideLines = (
{
angle = 90;
position = "{86, 615}";
}
);
hints = (
{
horizontal = 1;
origin = "{0, 19}";
target = up;
type = BottomGhost;
},
{
horizontal = 1;
origin = "{0, 18}";
target = "{0, 1}";
type = Stem;
},
{
horizontal = 1;
origin = "{0, 1}";
target = "{0, 16}";
type = Stem;
},
{
origin = "{0, 19}";
target = "{0, 0}";
type = Stem;
},
{
origin = "{0, 7}";
target = "{0, 8}";
type = Stem;
},
{
origin = "{0, 3}";
target = "{0, 4}";
type = Stem;
}
);
layerId = "B64BEB12-03E1-41C2-8D0F-395888C0A328";
paths = (
{
closed = 1;
nodes = (
"86 0 LINE",
"86 655 LINE",
"98 655 LINE",
"98 0 LINE",
"178 0 LINE",
"178 655 LINE",
"190 655 LINE",
"190 0 LINE",
"270 0 LINE",
"270 730 LINE",
"190 730 LINE",
"190 705 LINE",
"178 705 LINE",
"178 730 LINE",
"98 730 LINE",
"98 705 LINE",
"86 705 LINE",
"86 730 LINE",
"6 730 LINE",
"6 0 LINE"
);
}
);
userData = {
assembly = "PUSHW[ ]\011/* 1 value pushed */
15 
MDAP[1]\011/* MoveDirectAbsPt */
PUSHW[ ]\011/* 1 value pushed */
2 
MDAP[1]\011/* MoveDirectAbsPt */
PUSHW[ ]\011/* 2 values pushed */
1 1 
MIRP[10100]\011/* MoveIndirectRelPt */
PUSHW[ ]\011/* 1 value pushed */
2 
SRP0[ ]\011/* SetRefPoint0 */
PUSHW[ ]\011/* 1 value pushed */
4 
MDRP[10000]\011/* MoveDirectRelPt */
PUSHW[ ]\011/* 1 value pushed */
4 
MDAP[1]\011/* MoveDirectAbsPt */
PUSHW[ ]\011/* 1 value pushed */
15 
SRP0[ ]\011/* SetRefPoint0 */
PUSHW[ ]\011/* 1 value pushed */
10 
MDRP[10000]\011/* MoveDirectRelPt */
PUSHW[ ]\011/* 1 value pushed */
10 
MDAP[1]\011/* MoveDirectAbsPt */
PUSHW[ ]\011/* 2 values pushed */
9 1 
MIRP[10100]\011/* MoveIndirectRelPt */
PUSHW[ ]\011/* 3 values pushed */
13 10 1 
SRP1[ ]\011/* SetRefPoint1 */
SRP2[ ]\011/* SetRefPoint2 */
IP[ ]\011/* InterpolatePts */
PUSHW[ ]\011/* 1 value pushed */
1 
SRP0[ ]\011/* SetRefPoint0 */
PUSHW[ ]\011/* 1 value pushed */
16 
MDRP[11100]\011/* MoveDirectRelPt */
SVTCA[0]\011/* SetFreedomAndProjectionVectorToAxis */
PUSHW[ ]\011/* 1 value pushed */
0 
MDAP[1]\011/* MoveDirectAbsPt */
PUSHW[ ]\011/* 1 value pushed */
11 
MDAP[1]\011/* MoveDirectAbsPt */
PUSHW[ ]\011/* 1 value pushed */
0 
RCVT[ ]\011/* ReadCVT */
IF[ ]\011/* If */
PUSHW[ ]\011/* 1 value pushed */
1 
MDAP[1]\011/* MoveDirectAbsPt */
ELSE[ ]\011/* Else */
PUSHW[ ]\011/* 2 values pushed */
1 2 
MIAP[0]\011/* MoveIndirectAbsPt */
EIF[ ]\011/* EndIf */
PUSHW[ ]\011/* 1 value pushed */
0 
RCVT[ ]\011/* ReadCVT */
IF[ ]\011/* If */
PUSHW[ ]\011/* 1 value pushed */
5 
MDAP[1]\011/* MoveDirectAbsPt */
ELSE[ ]\011/* Else */
PUSHW[ ]\011/* 2 values pushed */
5 2 
MIAP[0]\011/* MoveIndirectAbsPt */
EIF[ ]\011/* EndIf */
PUSHW[ ]\011/* 1 value pushed */
0 
RCVT[ ]\011/* ReadCVT */
IF[ ]\011/* If */
PUSHW[ ]\011/* 1 value pushed */
9 
MDAP[1]\011/* MoveDirectAbsPt */
ELSE[ ]\011/* Else */
PUSHW[ ]\011/* 2 values pushed */
9 2 
MIAP[0]\011/* MoveIndirectAbsPt */
EIF[ ]\011/* EndIf */
PUSHW[ ]\011/* 3 values pushed */
4 1 0 
SRP1[ ]\011/* SetRefPoint1 */
SRP2[ ]\011/* SetRefPoint2 */
IP[ ]\011/* InterpolatePts */
PUSHW[ ]\011/* 3 values pushed */
8 1 0 
SRP1[ ]\011/* SetRefPoint1 */
SRP2[ ]\011/* SetRefPoint2 */
IP[ ]\011/* InterpolatePts */
PUSHW[ ]\011/* 3 values pushed */
13 1 0 
SRP1[ ]\011/* SetRefPoint1 */
SRP2[ ]\011/* SetRefPoint2 */
IP[ ]\011/* InterpolatePts */
IUP[0]\011/* InterpolateUntPts */
IUP[1]\011/* InterpolateUntPts */";
};
width = 276;
},
{
hints = (
{
horizontal = 1;
origin = "{0, 19}";
target = up;
type = BottomGhost;
},
{
horizontal = 1;
origin = "{0, 18}";
target = "{0, 1}";
type = Stem;
},
{
origin = "{0, 19}";
target = "{0, 0}";
type = Stem;
},
{
origin = "{0, 7}";
target = "{0, 8}";
type = Stem;
},
{
origin = "{0, 3}";
target = "{0, 4}";
type = Stem;
}
);
layerId = "DBA696BD-A337-48FC-9DA1-CD58B2C81FFB";
paths = (
{
closed = 1;
nodes = (
"18 0 LINE",
"18 679 LINE",
"30 679 LINE",
"30 0 LINE",
"42 0 LINE",
"42 679 LINE",
"54 679 LINE",
"54 0 LINE",
"66 0 LINE",
"66 690 LINE",
"54 690 LINE",
"54 690 LINE",
"42 690 LINE",
"42 690 LINE",
"30 690 LINE",
"30 690 LINE",
"18 690 LINE",
"18 690 LINE",
"6 690 LINE",
"6 0 LINE"
);
}
);
width = 72;
}
);
note = M;
unicode = 004D;
},
{
color = 4;
glyphname = N;
lastChange = "2020-10-04 16:51:45 +0000";
layers = (
{
hints = (
{
horizontal = 1;
origin = "{0, 11}";
target = up;
type = BottomGhost;
},
{
horizontal = 1;
origin = "{0, 10}";
target = "{0, 0}";
type = Stem;
},
{
horizontal = 1;
origin = "{0, 0}";
target = "{0, 8}";
type = Stem;
},
{
origin = "{0, 11}";
target = "{0, 12}";
type = Stem;
},
{
origin = "{0, 2}";
target = "{0, 3}";
type = Stem;
}
);
layerId = "B64BEB12-03E1-41C2-8D0F-395888C0A328";
paths = (
{
closed = 1;
nodes = (
"86 655 LINE",
"98 655 LINE",
"98 0 LINE",
"178 0 LINE",
"178 730 LINE",
"139 730 LINE",
"98 730 LINE",
"98 705 LINE",
"86 705 LINE",
"86 730 LINE",
"6 730 LINE",
"6 0 LINE",
"86 0 LINE"
);
}
);
userData = {
assembly = "PUSHW[ ]\011/* 1 value pushed */
10 
MDAP[1]\011/* MoveDirectAbsPt */
PUSHW[ ]\011/* 1 value pushed */
2 
MDAP[1]\011/* MoveDirectAbsPt */
PUSHW[ ]\011/* 2 values pushed */
1 1 
MIRP[10100]\011/* MoveIndirectRelPt */
PUSHW[ ]\011/* 1 value pushed */
10 
SRP0[ ]\011/* SetRefPoint0 */
PUSHW[ ]\011/* 1 value pushed */
5 
MDRP[10000]\011/* MoveDirectRelPt */
PUSHW[ ]\011/* 1 value pushed */
5 
MDAP[1]\011/* MoveDirectAbsPt */
PUSHW[ ]\011/* 2 values pushed */
4 1 
MIRP[10100]\011/* MoveIndirectRelPt */
PUSHW[ ]\011/* 1 value pushed */
7 
MDRP[10000]\011/* MoveDirectRelPt */
PUSHW[ ]\011/* 1 value pushed */
2 
SRP0[ ]\011/* SetRefPoint0 */
PUSHW[ ]\011/* 1 value pushed */
8 
MDRP[10000]\011/* MoveDirectRelPt */
PUSHW[ ]\011/* 1 value pushed */
1 
SRP0[ ]\011/* SetRefPoint0 */
PUSHW[ ]\011/* 1 value pushed */
11 
MDRP[11100]\011/* MoveDirectRelPt */
SVTCA[0]\011/* SetFreedomAndProjectionVectorToAxis */
PUSHW[ ]\011/* 1 value pushed */
0 
MDAP[1]\011/* MoveDirectAbsPt */
PUSHW[ ]\011/* 1 value pushed */
6 
MDAP[1]\011/* MoveDirectAbsPt */
PUSHW[ ]\011/* 1 value pushed */
0 
RCVT[ ]\011/* ReadCVT */
IF[ ]\011/* If */
PUSHW[ ]\011/* 1 value pushed */
1 
MDAP[1]\011/* MoveDirectAbsPt */
ELSE[ ]\011/* Else */
PUSHW[ ]\011/* 2 values pushed */
1 2 
MIAP[0]\011/* MoveIndirectAbsPt */
EIF[ ]\011/* EndIf */
PUSHW[ ]\011/* 1 value pushed */
0 
RCVT[ ]\011/* ReadCVT */
IF[ ]\011/* If */
PUSHW[ ]\011/* 1 value pushed */
4 
MDAP[1]\011/* MoveDirectAbsPt */
ELSE[ ]\011/* Else */
PUSHW[ ]\011/* 2 values pushed */
4 2 
MIAP[0]\011/* MoveIndirectAbsPt */
EIF[ ]\011/* EndIf */
PUSHW[ ]\011/* 3 values pushed */
3 1 0 
SRP1[ ]\011/* SetRefPoint1 */
SRP2[ ]\011/* SetRefPoint2 */
IP[ ]\011/* InterpolatePts */
PUSHW[ ]\011/* 3 values pushed */
8 1 0 
SRP1[ ]\011/* SetRefPoint1 */
SRP2[ ]\011/* SetRefPoint2 */
IP[ ]\011/* InterpolatePts */
IUP[0]\011/* InterpolateUntPts */
IUP[1]\011/* InterpolateUntPts */";
};
width = 184;
},
{
hints = (
{
horizontal = 1;
origin = "{0, 11}";
target = up;
type = BottomGhost;
},
{
horizontal = 1;
origin = "{0, 10}";
target = "{0, 0}";
type = Stem;
},
{
origin = "{0, 11}";
target = "{0, 12}";
type = Stem;
},
{
origin = "{0, 2}";
target = "{0, 3}";
type = Stem;
}
);
layerId = "DBA696BD-A337-48FC-9DA1-CD58B2C81FFB";
paths = (
{
closed = 1;
nodes = (
"18 679 LINE",
"30 679 LINE",
"30 0 LINE",
"42 0 LINE",
"42 690 LINE",
"34 690 LINE",
"30 690 LINE",
"30 690 LINE",
"18 690 LINE",
"18 690 LINE",
"6 690 LINE",
"6 0 LINE",
"18 0 LINE"
);
}
);
width = 48;
}
);
note = N;
unicode = 004E;
},
{
color = 7;
glyphname = Eng;
lastChange = "2020-10-04 18:24:41 +0000";
layers = (
{
components = (
{
name = N;
}
);
layerId = "DBA696BD-A337-48FC-9DA1-CD58B2C81FFB";
paths = (
{
closed = 1;
nodes = (
"42 -40 LINE",
"42 11 LINE",
"30 11 LINE",
"30 -24 LINE",
"35 -24 LINE",
"35 -36 LINE",
"26 -36 LINE",
"26 -48 LINE",
"34 -48 LINE"
);
}
);
width = 48;
},
{
components = (
{
name = N;
}
);
layerId = "B64BEB12-03E1-41C2-8D0F-395888C0A328";
paths = (
{
closed = 1;
nodes = (
"178 -79 LINE",
"178 10 LINE",
"98 10 LINE",
"98 -62 LINE",
"139 -62 LINE",
"139 -74 LINE",
"98 -74 LINE",
"98 -124 LINE",
"138 -124 LINE"
);
}
);
width = 184;
}
);
unicode = 014A;
},
{
color = 4;
glyphname = O;
lastChange = "2020-09-25 16:13:20 +0000";
layers = (
{
hints = (
{
horizontal = 1;
origin = "{1, 1}";
target = "{0, 1}";
type = Stem;
},
{
horizontal = 1;
origin = "{0, 6}";
target = "{1, 2}";
type = Stem;
},
{
origin = "{0, 0}";
target = "{1, 1}";
type = Stem;
},
{
origin = "{1, 0}";
target = "{0, 3}";
type = Stem;
}
);
layerId = "B64BEB12-03E1-41C2-8D0F-395888C0A328";
paths = (
{
closed = 1;
nodes = (
"6 45 LINE",
"45 0 LINE",
"139 0 LINE",
"178 45 LINE",
"178 685 LINE",
"139 730 LINE",
"46 730 LINE",
"6 685 LINE"
);
},
{
closed = 1;
nodes = (
"98 75 LINE",
"86 75 LINE",
"86 655 LINE",
"98 655 LINE"
);
}
);
userData = {
assembly = "PUSHW[ ]\011/* 1 value pushed */
12 
MDAP[1]\011/* MoveDirectAbsPt */
PUSHW[ ]\011/* 1 value pushed */
10 
MDAP[1]\011/* MoveDirectAbsPt */
PUSHW[ ]\011/* 2 values pushed */
1 1 
MIRP[10100]\011/* MoveIndirectRelPt */
PUSHW[ ]\011/* 1 value pushed */
12 
SRP0[ ]\011/* SetRefPoint0 */
PUSHW[ ]\011/* 1 value pushed */
4 
MDRP[10000]\011/* MoveDirectRelPt */
PUSHW[ ]\011/* 1 value pushed */
4 
MDAP[1]\011/* MoveDirectAbsPt */
PUSHW[ ]\011/* 2 values pushed */
9 1 
MIRP[10100]\011/* MoveIndirectRelPt */
PUSHW[ ]\011/* 1 value pushed */
1 
SRP0[ ]\011/* SetRefPoint0 */
PUSHW[ ]\011/* 1 value pushed */
13 
MDRP[11100]\011/* MoveDirectRelPt */
SVTCA[0]\011/* SetFreedomAndProjectionVectorToAxis */
PUSHW[ ]\011/* 1 value pushed */
6 
MDAP[1]\011/* MoveDirectAbsPt */
PUSHW[ ]\011/* 1 value pushed */
0 
RCVT[ ]\011/* ReadCVT */
IF[ ]\011/* If */
PUSHW[ ]\011/* 1 value pushed */
2 
MDAP[1]\011/* MoveDirectAbsPt */
ELSE[ ]\011/* Else */
PUSHW[ ]\011/* 2 values pushed */
2 2 
MIAP[0]\011/* MoveIndirectAbsPt */
EIF[ ]\011/* EndIf */
IUP[0]\011/* InterpolateUntPts */
IUP[1]\011/* InterpolateUntPts */";
};
width = 184;
},
{
hints = (
{
horizontal = 1;
origin = "{1, 1}";
target = "{0, 1}";
type = Stem;
},
{
horizontal = 1;
origin = "{0, 6}";
target = "{1, 2}";
type = Stem;
},
{
origin = "{0, 0}";
target = "{1, 1}";
type = Stem;
},
{
origin = "{1, 0}";
target = "{0, 3}";
type = Stem;
}
);
layerId = "DBA696BD-A337-48FC-9DA1-CD58B2C81FFB";
paths = (
{
closed = 1;
nodes = (
"6 8 LINE",
"14 0 LINE",
"34 0 LINE",
"42 8 LINE",
"42 682 LINE",
"34 690 LINE",
"14 690 LINE",
"6 682 LINE"
);
},
{
closed = 1;
nodes = (
"30 11 LINE",
"18 11 LINE",
"18 679 LINE",
"30 679 LINE"
);
}
);
width = 48;
}
);
note = O;
unicode = 004F;
},
{
color = 4;
glyphname = Oslash;
lastChange = "2020-10-02 11:58:44 +0000";
layers = (
{
components = (
{
name = O;
}
);
layerId = "B64BEB12-03E1-41C2-8D0F-395888C0A328";
paths = (
{
closed = 1;
nodes = (
"6 -40 LINE",
"86 -40 LINE",
"86 75 LINE",
"6 75 LINE"
);
},
{
closed = 1;
nodes = (
"98 546 LINE",
"178 546 LINE",
"178 770 LINE",
"98 770 LINE"
);
},
{
closed = 1;
nodes = (
"52 308 LINE",
"132 308 LINE",
"132 383 LINE",
"52 383 LINE"
);
}
);
width = 184;
},
{
components = (
{
name = O;
}
);
layerId = "DBA696BD-A337-48FC-9DA1-CD58B2C81FFB";
paths = (
{
closed = 1;
nodes = (
"6 -24 LINE",
"18 -24 LINE",
"18 11 LINE",
"6 11 LINE"
);
},
{
closed = 1;
nodes = (
"30 679 LINE",
"42 679 LINE",
"42 714 LINE",
"30 714 LINE"
);
},
{
closed = 1;
nodes = (
"7 339 LINE",
"41 339 LINE",
"41 351 LINE",
"7 351 LINE"
);
}
);
width = 48;
}
);
unicode = 00D8;
},
{
color = 4;
glyphname = OE;
lastChange = "2020-09-12 11:56:47 +0000";
layers = (
{
components = (
{
name = O;
transform = "{-1, 0, 0, 1, 184, 0}";
}
);
layerId = "B64BEB12-03E1-41C2-8D0F-395888C0A328";
paths = (
{
closed = 1;
nodes = (
"270 0 LINE",
"270 315 LINE",
"190 315 LINE",
"190 75 LINE",
"178 75 LINE",
"178 655 LINE",
"190 655 LINE",
"190 414 LINE",
"270 414 LINE",
"270 730 LINE",
"98 730 LINE",
"98 0 LINE"
);
},
{
closed = 1;
nodes = (
"270 327 LINE",
"270 402 LINE",
"107 402 LINE",
"107 327 LINE"
);
}
);
width = 276;
},
{
components = (
{
name = O;
transform = "{-1, 0, 0, 1, 48, 0}";
}
);
layerId = "DBA696BD-A337-48FC-9DA1-CD58B2C81FFB";
paths = (
{
closed = 1;
nodes = (
"66 0 LINE",
"66 345 LINE",
"54 345 LINE",
"54 11 LINE",
"42 11 LINE",
"42 675 LINE",
"54 675 LINE",
"54 380 LINE",
"66 380 LINE",
"66 690 LINE",
"30 690 LINE",
"30 0 LINE"
);
},
{
closed = 1;
nodes = (
"66 357 LINE",
"66 368 LINE",
"31 368 LINE",
"31 357 LINE"
);
}
);
width = 72;
}
);
unicode = 0152;
},
{
color = 4;
glyphname = P;
lastChange = "2020-09-25 16:12:43 +0000";
layers = (
{
hints = (
{
horizontal = 1;
origin = "{0, 2}";
target = up;
type = BottomGhost;
},
{
horizontal = 1;
origin = "{0, 4}";
target = "{1, 1}";
type = Stem;
},
{
horizontal = 1;
origin = "{0, 1}";
target = "{1, 2}";
type = Stem;
},
{
origin = "{0, 2}";
target = "{0, 3}";
type = Stem;
},
{
origin = "{1, 0}";
target = "{0, 6}";
type = Stem;
}
);
layerId = "B64BEB12-03E1-41C2-8D0F-395888C0A328";
paths = (
{
closed = 1;
nodes = (
"138 730 LINE",
"6 730 LINE",
"6 -1 LINE",
"86 -1 LINE",
"86 219 LINE",
"139 219 LINE",
"178 264 LINE",
"178 685 LINE"
);
},
{
closed = 1;
nodes = (
"98 294 LINE",
"86 294 LINE",
"86 655 LINE",
"98 655 LINE"
);
}
);
userData = {
assembly = "PUSHW[ ]\011/* 1 value pushed */
14 
MDAP[1]\011/* MoveDirectAbsPt */
PUSHW[ ]\011/* 1 value pushed */
10 
MDAP[1]\011/* MoveDirectAbsPt */
PUSHW[ ]\011/* 2 values pushed */
0 1 
MIRP[10100]\011/* MoveIndirectRelPt */
PUSHW[ ]\011/* 1 value pushed */
14 
SRP0[ ]\011/* SetRefPoint0 */
PUSHW[ ]\011/* 1 value pushed */
5 
MDRP[10000]\011/* MoveDirectRelPt */
PUSHW[ ]\011/* 1 value pushed */
5 
MDAP[1]\011/* MoveDirectAbsPt */
PUSHW[ ]\011/* 2 values pushed */
4 1 
MIRP[10100]\011/* MoveIndirectRelPt */
PUSHW[ ]\011/* 1 value pushed */
5 
SRP0[ ]\011/* SetRefPoint0 */
PUSHW[ ]\011/* 1 value pushed */
7 
MDRP[10000]\011/* MoveDirectRelPt */
PUSHW[ ]\011/* 1 value pushed */
4 
SRP0[ ]\011/* SetRefPoint0 */
PUSHW[ ]\011/* 1 value pushed */
11 
MDRP[10000]\011/* MoveDirectRelPt */
PUSHW[ ]\011/* 1 value pushed */
0 
SRP0[ ]\011/* SetRefPoint0 */
PUSHW[ ]\011/* 1 value pushed */
15 
MDRP[11100]\011/* MoveDirectRelPt */
SVTCA[0]\011/* SetFreedomAndProjectionVectorToAxis */
PUSHW[ ]\011/* 1 value pushed */
7 
MDAP[1]\011/* MoveDirectAbsPt */
PUSHW[ ]\011/* 1 value pushed */
9 
MDAP[1]\011/* MoveDirectAbsPt */
PUSHW[ ]\011/* 1 value pushed */
0 
RCVT[ ]\011/* ReadCVT */
IF[ ]\011/* If */
PUSHW[ ]\011/* 1 value pushed */
4 
MDAP[1]\011/* MoveDirectAbsPt */
ELSE[ ]\011/* Else */
PUSHW[ ]\011/* 2 values pushed */
4 2 
MIAP[0]\011/* MoveIndirectAbsPt */
EIF[ ]\011/* EndIf */
IUP[0]\011/* InterpolateUntPts */
IUP[1]\011/* InterpolateUntPts */";
};
width = 184;
},
{
hints = (
{
horizontal = 1;
origin = "{0, 2}";
target = up;
type = BottomGhost;
},
{
horizontal = 1;
origin = "{0, 4}";
target = "{1, 1}";
type = Stem;
},
{
horizontal = 1;
origin = "{1, 2}";
target = "{0, 1}";
type = Stem;
},
{
origin = "{0, 2}";
target = "{0, 3}";
type = Stem;
},
{
origin = "{1, 0}";
target = "{0, 6}";
type = Stem;
}
);
layerId = "DBA696BD-A337-48FC-9DA1-CD58B2C81FFB";
paths = (
{
closed = 1;
nodes = (
"34 689 LINE",
"6 689 LINE",
"6 -1 LINE",
"18 -1 LINE",
"18 219 LINE",
"34 219 LINE",
"42 227 LINE",
"42 681 LINE"
);
},
{
closed = 1;
nodes = (
"30 230 LINE",
"18 230 LINE",
"18 678 LINE",
"30 678 LINE"
);
}
);
width = 48;
}
);
note = P;
unicode = 0050;
},
{
color = 4;
glyphname = Thorn;
lastChange = "2020-09-12 11:56:56 +0000";
layers = (
{
layerId = "B64BEB12-03E1-41C2-8D0F-395888C0A328";
paths = (
{
closed = 1;
nodes = (
"178 90 LINE",
"178 600 LINE",
"139 645 LINE",
"75 645 LINE",
"75 730 LINE",
"6 730 LINE",
"6 0 LINE",
"85 0 LINE",
"85 64 LINE",
"85 45 LINE",
"139 45 LINE"
);
},
{
closed = 1;
nodes = (
"98 120 LINE",
"86 120 LINE",
"86 570 LINE",
"98 570 LINE"
);
}
);
width = 184;
},
{
layerId = "DBA696BD-A337-48FC-9DA1-CD58B2C81FFB";
paths = (
{
closed = 1;
nodes = (
"42 119 LINE",
"42 639 LINE",
"34 647 LINE",
"18 647 LINE",
"18 690 LINE",
"6 690 LINE",
"6 -23 LINE",
"18 -23 LINE",
"18 130 LINE",
"18 111 LINE",
"34 111 LINE"
);
},
{
closed = 1;
nodes = (
"30 122 LINE",
"18 122 LINE",
"18 636 LINE",
"30 636 LINE"
);
}
);
width = 48;
}
);
unicode = 00DE;
},
{
color = 4;
glyphname = Q;
lastChange = "2020-10-05 08:42:29 +0000";
layers = (
{
hints = (
{
horizontal = 1;
origin = "{1, 1}";
target = "{2, 1}";
type = Stem;
},
{
horizontal = 1;
origin = "{1, 6}";
target = "{2, 2}";
type = Stem;
},
{
horizontal = 1;
origin = "{0, 1}";
target = "{2, 1}";
type = Stem;
},
{
origin = "{1, 0}";
target = "{0, 5}";
type = Stem;
},
{
origin = "{0, 1}";
target = "{0, 2}";
type = Stem;
},
{
origin = "{0, 4}";
target = "{1, 3}";
type = Stem;
}
);
layerId = "B64BEB12-03E1-41C2-8D0F-395888C0A328";
paths = (
{
closed = 1;
nodes = (
"57 -23 LINE",
"57 -87 LINE",
"127 -87 LINE",
"127 -23 LINE",
"98 51 LINE",
"86 51 LINE"
);
},
{
closed = 1;
nodes = (
"6 45 LINE",
"45 0 LINE",
"139 0 LINE",
"178 45 LINE",
"178 685 LINE",
"139 730 LINE",
"46 730 LINE",
"6 685 LINE"
);
},
{
closed = 1;
nodes = (
"98 75 LINE",
"86 75 LINE",
"86 655 LINE",
"98 655 LINE"
);
}
);
userData = {
assembly = "PUSHW[ ]\011/* 1 value pushed */
10 
CALL[ ]\011/* CallFunction */
PUSHW[ ]\011/* 1 value pushed */
15 
MDAP[1]\011/* MoveDirectAbsPt */
PUSHW[ ]\011/* 1 value pushed */
11 
MDAP[1]\011/* MoveDirectAbsPt */
PUSHW[ ]\011/* 2 values pushed */
2 9 
MIRP[10100]\011/* MoveIndirectRelPt */
PUSHW[ ]\011/* 1 value pushed */
4 
MDRP[10000]\011/* MoveDirectRelPt */
PUSHW[ ]\011/* 1 value pushed */
11 
SRP0[ ]\011/* SetRefPoint0 */
PUSHW[ ]\011/* 1 value pushed */
6 
MDRP[10000]\011/* MoveDirectRelPt */
PUSHW[ ]\011/* 1 value pushed */
6 
MDAP[1]\011/* MoveDirectAbsPt */
PUSHW[ ]\011/* 1 value pushed */
15 
SRP0[ ]\011/* SetRefPoint0 */
PUSHW[ ]\011/* 1 value pushed */
8 
MDRP[10000]\011/* MoveDirectRelPt */
PUSHW[ ]\011/* 1 value pushed */
8 
MDAP[1]\011/* MoveDirectAbsPt */
PUSHW[ ]\011/* 2 values pushed */
14 9 
MIRP[10100]\011/* MoveIndirectRelPt */
PUSHW[ ]\011/* 1 value pushed */
2 
SRP0[ ]\011/* SetRefPoint0 */
PUSHW[ ]\011/* 1 value pushed */
16 
MDRP[11100]\011/* MoveDirectRelPt */
SVTCA[0]\011/* SetFreedomAndProjectionVectorToAxis */
PUSHW[ ]\011/* 1 value pushed */
5 
MDAP[1]\011/* MoveDirectAbsPt */
PUSHW[ ]\011/* 1 value pushed */
6 
RCVT[ ]\011/* ReadCVT */
IF[ ]\011/* If */
PUSHW[ ]\011/* 1 value pushed */
0 
MDAP[1]\011/* MoveDirectAbsPt */
ELSE[ ]\011/* Else */
PUSHW[ ]\011/* 2 values pushed */
0 19 
MIAP[0]\011/* MoveIndirectAbsPt */
EIF[ ]\011/* EndIf */
PUSHW[ ]\011/* 1 value pushed */
6 
RCVT[ ]\011/* ReadCVT */
IF[ ]\011/* If */
PUSHW[ ]\011/* 1 value pushed */
4 
MDAP[1]\011/* MoveDirectAbsPt */
ELSE[ ]\011/* Else */
PUSHW[ ]\011/* 2 values pushed */
4 13 
MIAP[0]\011/* MoveIndirectAbsPt */
EIF[ ]\011/* EndIf */
PUSHW[ ]\011/* 1 value pushed */
6 
RCVT[ ]\011/* ReadCVT */
IF[ ]\011/* If */
PUSHW[ ]\011/* 1 value pushed */
6 
MDAP[1]\011/* MoveDirectAbsPt */
ELSE[ ]\011/* Else */
PUSHW[ ]\011/* 2 values pushed */
6 13 
MIAP[0]\011/* MoveIndirectAbsPt */
EIF[ ]\011/* EndIf */
IUP[0]\011/* InterpolateUntPts */
IUP[1]\011/* InterpolateUntPts */";
};
width = 184;
},
{
hints = (
{
horizontal = 1;
origin = "{1, 1}";
target = "{2, 1}";
type = Stem;
},
{
horizontal = 1;
origin = "{1, 6}";
target = "{2, 2}";
type = Stem;
},
{
origin = "{1, 0}";
target = "{0, 1}";
type = Stem;
},
{
origin = "{0, 2}";
target = "{1, 3}";
type = Stem;
}
);
layerId = "DBA696BD-A337-48FC-9DA1-CD58B2C81FFB";
paths = (
{
closed = 1;
nodes = (
"18 -5 LINE",
"18 -23 LINE",
"30 -23 LINE",
"30 -5 LINE",
"26 8 LINE",
"22 8 LINE"
);
},
{
closed = 1;
nodes = (
"6 8 LINE",
"14 0 LINE",
"34 0 LINE",
"42 8 LINE",
"42 682 LINE",
"34 690 LINE",
"14 690 LINE",
"6 682 LINE"
);
},
{
closed = 1;
nodes = (
"30 11 LINE",
"18 11 LINE",
"18 679 LINE",
"30 679 LINE"
);
}
);
width = 48;
}
);
note = Q;
unicode = 0051;
},
{
color = 4;
glyphname = R;
lastChange = "2020-10-04 17:04:40 +0000";
layers = (
{
hints = (
{
horizontal = 1;
origin = "{0, 12}";
target = up;
type = BottomGhost;
},
{
horizontal = 1;
origin = "{0, 1}";
target = "{0, 6}";
type = Stem;
},
{
horizontal = 1;
origin = "{0, 11}";
target = "{1, 0}";
type = Stem;
},
{
horizontal = 1;
origin = "{0, 7}";
target = "{1, 3}";
type = Stem;
},
{
origin = "{0, 12}";
target = "{0, 0}";
type = Stem;
},
{
origin = "{0, 3}";
target = "{0, 4}";
type = Stem;
}
);
layerId = "B64BEB12-03E1-41C2-8D0F-395888C0A328";
paths = (
{
closed = 1;
nodes = (
"86 0 LINE",
"86 325 LINE",
"98 325 LINE",
"98 0 LINE",
"178 0 LINE",
"178 356 LINE",
"145 356 LINE",
"145 368 LINE",
"178 368 LINE",
"178 685 LINE",
"138 730 LINE",
"6 730 LINE",
"6 0 LINE"
);
},
{
closed = 1;
nodes = (
"86 655 LINE",
"98 655 LINE",
"98 400 LINE",
"86 400 LINE"
);
}
);
userData = {
assembly = "PUSHW[ ]\011/* 1 value pushed */
18 
MDAP[1]\011/* MoveDirectAbsPt */
PUSHW[ ]\011/* 1 value pushed */
11 
MDAP[1]\011/* MoveDirectAbsPt */
PUSHW[ ]\011/* 1 value pushed */
18 
SRP0[ ]\011/* SetRefPoint0 */
PUSHW[ ]\011/* 1 value pushed */
1 
MDRP[10000]\011/* MoveDirectRelPt */
PUSHW[ ]\011/* 1 value pushed */
1 
MDAP[1]\011/* MoveDirectAbsPt */
PUSHW[ ]\011/* 1 value pushed */
11 
SRP0[ ]\011/* SetRefPoint0 */
PUSHW[ ]\011/* 2 values pushed */
10 1 
MIRP[10100]\011/* MoveIndirectRelPt */
PUSHW[ ]\011/* 1 value pushed */
4 
MDRP[10000]\011/* MoveDirectRelPt */
PUSHW[ ]\011/* 1 value pushed */
10 
SRP0[ ]\011/* SetRefPoint0 */
PUSHW[ ]\011/* 1 value pushed */
6 
MDRP[10000]\011/* MoveDirectRelPt */
PUSHW[ ]\011/* 3 values pushed */
7 11 10 
SRP1[ ]\011/* SetRefPoint1 */
SRP2[ ]\011/* SetRefPoint2 */
IP[ ]\011/* InterpolatePts */
PUSHW[ ]\011/* 1 value pushed */
10 
SRP0[ ]\011/* SetRefPoint0 */
PUSHW[ ]\011/* 1 value pushed */
8 
MDRP[10000]\011/* MoveDirectRelPt */
PUSHW[ ]\011/* 1 value pushed */
1 
SRP0[ ]\011/* SetRefPoint0 */
PUSHW[ ]\011/* 2 values pushed */
13 1 
MIRP[10100]\011/* MoveIndirectRelPt */
PUSHW[ ]\011/* 1 value pushed */
14 
MDRP[10000]\011/* MoveDirectRelPt */
PUSHW[ ]\011/* 1 value pushed */
11 
SRP0[ ]\011/* SetRefPoint0 */
PUSHW[ ]\011/* 1 value pushed */
16 
MDRP[10000]\011/* MoveDirectRelPt */
PUSHW[ ]\011/* 1 value pushed */
10 
SRP0[ ]\011/* SetRefPoint0 */
PUSHW[ ]\011/* 1 value pushed */
19 
MDRP[11100]\011/* MoveDirectRelPt */
SVTCA[0]\011/* SetFreedomAndProjectionVectorToAxis */
PUSHW[ ]\011/* 1 value pushed */
2 
MDAP[1]\011/* MoveDirectAbsPt */
PUSHW[ ]\011/* 1 value pushed */
0 
RCVT[ ]\011/* ReadCVT */
IF[ ]\011/* If */
PUSHW[ ]\011/* 1 value pushed */
0 
MDAP[1]\011/* MoveDirectAbsPt */
ELSE[ ]\011/* Else */
PUSHW[ ]\011/* 2 values pushed */
0 2 
MIAP[0]\011/* MoveIndirectAbsPt */
EIF[ ]\011/* EndIf */
PUSHW[ ]\011/* 1 value pushed */
0 
RCVT[ ]\011/* ReadCVT */
IF[ ]\011/* If */
PUSHW[ ]\011/* 1 value pushed */
10 
MDAP[1]\011/* MoveDirectAbsPt */
ELSE[ ]\011/* Else */
PUSHW[ ]\011/* 2 values pushed */
10 2 
MIAP[0]\011/* MoveIndirectAbsPt */
EIF[ ]\011/* EndIf */
PUSHW[ ]\011/* 3 values pushed */
7 0 2 
SRP1[ ]\011/* SetRefPoint1 */
SRP2[ ]\011/* SetRefPoint2 */
IP[ ]\011/* InterpolatePts */
IUP[0]\011/* InterpolateUntPts */
IUP[1]\011/* InterpolateUntPts */";
};
width = 184;
},
{
hints = (
{
horizontal = 1;
origin = "{0, 12}";
target = up;
type = BottomGhost;
},
{
horizontal = 1;
origin = "{1, 3}";
target = "{0, 1}";
type = Stem;
},
{
horizontal = 1;
origin = "{0, 11}";
target = "{1, 0}";
type = Stem;
},
{
origin = "{0, 12}";
target = "{0, 0}";
type = Stem;
},
{
origin = "{0, 3}";
target = "{0, 4}";
type = Stem;
}
);
layerId = "DBA696BD-A337-48FC-9DA1-CD58B2C81FFB";
paths = (
{
closed = 1;
nodes = (
"18 0 LINE",
"18 357 LINE",
"30 357 LINE",
"30 0 LINE",
"42 0 LINE",
"42 357 LINE",
"36 357 LINE",
"36 368 LINE",
"42 368 LINE",
"42 682 LINE",
"34 690 LINE",
"6 690 LINE",
"6 0 LINE"
);
},
{
closed = 1;
nodes = (
"18 679 LINE",
"30 679 LINE",
"30 368 LINE",
"18 368 LINE"
);
}
);
width = 48;
}
);
note = R;
unicode = 0052;
},
{
color = 4;
glyphname = S;
lastChange = "2020-10-05 08:51:16 +0000";
layers = (
{
hints = (
{
horizontal = 1;
origin = "{0, 18}";
target = "{0, 14}";
type = Stem;
},
{
horizontal = 1;
origin = "{0, 11}";
target = "{0, 1}";
type = Stem;
},
{
horizontal = 1;
origin = "{0, 8}";
target = "{0, 2}";
type = Stem;
},
{
origin = "{0, 4}";
target = "{0, 20}";
type = Stem;
},
{
origin = "{0, 10}";
target = "{0, 1}";
type = Stem;
}
);
layerId = "B64BEB12-03E1-41C2-8D0F-395888C0A328";
paths = (
{
closed = 1;
nodes = (
"139 387 LINE",
"86 387 LINE",
"86 655 LINE",
"98 655 LINE",
"98 399 LINE",
"178 399 LINE",
"178 679 LINE",
"137 730 LINE",
"46 730 LINE",
"6 679 LINE",
"6 349 LINE",
"46 312 LINE",
"99 312 LINE",
"99 75 LINE",
"87 75 LINE",
"87 300 LINE",
"7 300 LINE",
"7 45 LINE",
"47 0 LINE",
"137 0 LINE",
"178 45 LINE",
"178 349 LINE"
);
}
);
userData = {
assembly = "PUSHW[ ]\011/* 1 value pushed */
22 
MDAP[1]\011/* MoveDirectAbsPt */
PUSHW[ ]\011/* 1 value pushed */
8 
MDAP[1]\011/* MoveDirectAbsPt */
PUSHW[ ]\011/* 2 values pushed */
1 1 
MIRP[10100]\011/* MoveIndirectRelPt */
PUSHW[ ]\011/* 1 value pushed */
22 
SRP0[ ]\011/* SetRefPoint0 */
PUSHW[ ]\011/* 1 value pushed */
4 
MDRP[10000]\011/* MoveDirectRelPt */
PUSHW[ ]\011/* 1 value pushed */
4 
MDAP[1]\011/* MoveDirectAbsPt */
PUSHW[ ]\011/* 2 values pushed */
7 1 
MIRP[10100]\011/* MoveIndirectRelPt */
PUSHW[ ]\011/* 1 value pushed */
4 
SRP0[ ]\011/* SetRefPoint0 */
PUSHW[ ]\011/* 1 value pushed */
11 
MDRP[10000]\011/* MoveDirectRelPt */
PUSHW[ ]\011/* 1 value pushed */
1 
SRP0[ ]\011/* SetRefPoint0 */
PUSHW[ ]\011/* 1 value pushed */
15 
MDRP[10000]\011/* MoveDirectRelPt */
PUSHW[ ]\011/* 1 value pushed */
15 
MDAP[1]\011/* MoveDirectAbsPt */
PUSHW[ ]\011/* 1 value pushed */
8 
SRP0[ ]\011/* SetRefPoint0 */
PUSHW[ ]\011/* 1 value pushed */
17 
MDRP[10000]\011/* MoveDirectRelPt */
PUSHW[ ]\011/* 1 value pushed */
7 
SRP0[ ]\011/* SetRefPoint0 */
PUSHW[ ]\011/* 1 value pushed */
19 
MDRP[10000]\011/* MoveDirectRelPt */
PUSHW[ ]\011/* 1 value pushed */
1 
SRP0[ ]\011/* SetRefPoint0 */
PUSHW[ ]\011/* 1 value pushed */
23 
MDRP[11100]\011/* MoveDirectRelPt */
SVTCA[0]\011/* SetFreedomAndProjectionVectorToAxis */
PUSHW[ ]\011/* 1 value pushed */
13 
MDAP[1]\011/* MoveDirectAbsPt */
PUSHW[ ]\011/* 1 value pushed */
0 
RCVT[ ]\011/* ReadCVT */
IF[ ]\011/* If */
PUSHW[ ]\011/* 1 value pushed */
2 
MDAP[1]\011/* MoveDirectAbsPt */
ELSE[ ]\011/* Else */
PUSHW[ ]\011/* 2 values pushed */
2 2 
MIAP[0]\011/* MoveIndirectAbsPt */
EIF[ ]\011/* EndIf */
IUP[0]\011/* InterpolateUntPts */
IUP[1]\011/* InterpolateUntPts */";
};
width = 184;
},
{
hints = (
{
horizontal = 1;
origin = "{0, 18}";
target = "{0, 14}";
type = Stem;
},
{
horizontal = 1;
origin = "{0, 11}";
target = "{0, 1}";
type = Stem;
},
{
horizontal = 1;
origin = "{0, 8}";
target = "{0, 2}";
type = Stem;
},
{
origin = "{0, 17}";
target = "{0, 14}";
type = Stem;
},
{
origin = "{0, 13}";
target = "{0, 20}";
type = Stem;
}
);
layerId = "DBA696BD-A337-48FC-9DA1-CD58B2C81FFB";
paths = (
{
closed = 1;
nodes = (
"34 358 LINE",
"18 358 LINE",
"18 679 LINE",
"30 679 LINE",
"30 370 LINE",
"42 370 LINE",
"42 682 LINE",
"34 690 LINE",
"14 690 LINE",
"6 682 LINE",
"6 355 LINE",
"14 347 LINE",
"30 347 LINE",
"30 11 LINE",
"18 11 LINE",
"18 334 LINE",
"6 334 LINE",
"6 8 LINE",
"14 0 LINE",
"34 0 LINE",
"42 8 LINE",
"42 350 LINE"
);
}
);
width = 48;
}
);
note = S;
unicode = 0053;
},
{
glyphname = Germandbls;
lastChange = "2020-10-04 15:59:09 +0000";
layers = (
{
layerId = "DBA696BD-A337-48FC-9DA1-CD58B2C81FFB";
paths = (
{
closed = 1;
nodes = (
"21 679 LINE",
"30 679 LINE",
"30 370 LINE",
"13 370 LINE",
"13 358 LINE",
"30 358 LINE",
"30 11 LINE",
"13 11 LINE",
"13 0 LINE",
"34 0 LINE",
"42 8 LINE",
"42 358 LINE",
"36 358 LINE",
"36 370 LINE",
"42 370 LINE",
"42 381 LINE",
"42 682 LINE",
"34 690 LINE",
"21 690 LINE"
);
},
{
closed = 1;
nodes = (
"21 690 LINE",
"14 690 LINE",
"6 682 LINE",
"6 0 LINE",
"17 0 LINE",
"17 11 LINE",
"18 11 LINE",
"18 679 LINE",
"21 679 LINE"
);
}
);
width = 48;
},
{
layerId = "B64BEB12-03E1-41C2-8D0F-395888C0A328";
paths = (
{
closed = 1;
nodes = (
"89 655 LINE",
"98 655 LINE",
"98 402 LINE",
"64 402 LINE",
"64 327 LINE",
"98 327 LINE",
"98 75 LINE",
"81 75 LINE",
"81 0 LINE",
"139 0 LINE",
"178 45 LINE",
"178 358 LINE",
"145 358 LINE",
"145 370 LINE",
"178 370 LINE",
"178 402 LINE",
"178 685 LINE",
"138 730 LINE",
"89 730 LINE"
);
},
{
closed = 1;
nodes = (
"89 730 LINE",
"46 730 LINE",
"6 685 LINE",
"6 0 LINE",
"85 0 LINE",
"85 75 LINE",
"86 75 LINE",
"86 655 LINE",
"89 655 LINE"
);
}
);
width = 184;
}
);
unicode = 1E9E;
},
{
color = 4;
glyphname = T;
lastChange = "2020-09-25 16:13:00 +0000";
layers = (
{
hints = (
{
horizontal = 1;
origin = "{0, 3}";
target = up;
type = BottomGhost;
},
{
horizontal = 1;
origin = "{0, 10}";
target = "{0, 1}";
type = Stem;
},
{
origin = "{0, 11}";
target = "{0, 0}";
type = Stem;
},
{
origin = "{0, 3}";
target = "{0, 4}";
type = Stem;
},
{
origin = "{0, 7}";
target = "{0, 8}";
type = Stem;
}
);
layerId = "B64BEB12-03E1-41C2-8D0F-395888C0A328";
paths = (
{
closed = 1;
nodes = (
"66 359 LINE",
"66 655 LINE",
"78 655 LINE",
"78 0 LINE",
"158 0 LINE",
"158 655 LINE",
"170 655 LINE",
"170 359 LINE",
"230 359 LINE",
"230 730 LINE",
"6 730 LINE",
"6 359 LINE"
);
}
);
userData = {
assembly = "PUSHW[ ]\011/* 1 value pushed */
10 
CALL[ ]\011/* CallFunction */
PUSHW[ ]\011/* 4 values pushed */
0 12 5 14 
CALL[ ]\011/* CallFunction */
PUSHW[ ]\011/* 3 values pushed */
3 5 0 
SRP1[ ]\011/* SetRefPoint1 */
SRP2[ ]\011/* SetRefPoint2 */
IP[ ]\011/* InterpolatePts */
PUSHW[ ]\011/* 1 value pushed */
3 
MDAP[1]\011/* MoveDirectAbsPt */
PUSHW[ ]\011/* 2 values pushed */
2 9 
MIRP[10100]\011/* MoveIndirectRelPt */
SVTCA[0]\011/* SetFreedomAndProjectionVectorToAxis */
PUSHW[ ]\011/* 1 value pushed */
6 
RCVT[ ]\011/* ReadCVT */
IF[ ]\011/* If */
PUSHW[ ]\011/* 1 value pushed */
6 
MDAP[1]\011/* MoveDirectAbsPt */
ELSE[ ]\011/* Else */
PUSHW[ ]\011/* 2 values pushed */
6 19 
MIAP[0]\011/* MoveIndirectAbsPt */
EIF[ ]\011/* EndIf */
PUSHW[ ]\011/* 1 value pushed */
6 
RCVT[ ]\011/* ReadCVT */
IF[ ]\011/* If */
PUSHW[ ]\011/* 1 value pushed */
2 
MDAP[1]\011/* MoveDirectAbsPt */
ELSE[ ]\011/* Else */
PUSHW[ ]\011/* 2 values pushed */
2 13 
MIAP[0]\011/* MoveIndirectAbsPt */
EIF[ ]\011/* EndIf */
PUSHW[ ]\011/* 1 value pushed */
6 
SRP0[ ]\011/* SetRefPoint0 */
PUSHW[ ]\011/* 2 values pushed */
0 8 
MIRP[10100]\011/* MoveIndirectRelPt */
PUSHW[ ]\011/* 1 value pushed */
4 
MDRP[10000]\011/* MoveDirectRelPt */
PUSHW[ ]\011/* 1 value pushed */
5 
MDRP[10000]\011/* MoveDirectRelPt */
IUP[0]\011/* InterpolateUntPts */
IUP[1]\011/* InterpolateUntPts */";
};
width = 236;
},
{
hints = (
{
horizontal = 1;
origin = "{0, 3}";
target = up;
type = BottomGhost;
},
{
horizontal = 1;
origin = "{0, 10}";
target = "{0, 1}";
type = Stem;
},
{
origin = "{0, 11}";
target = "{0, 0}";
type = Stem;
},
{
origin = "{0, 7}";
target = "{0, 8}";
type = Stem;
},
{
origin = "{0, 3}";
target = "{0, 4}";
type = Stem;
}
);
layerId = "DBA696BD-A337-48FC-9DA1-CD58B2C81FFB";
paths = (
{
closed = 1;
nodes = (
"18 370 LINE",
"18 679 LINE",
"30 679 LINE",
"30 0 LINE",
"42 0 LINE",
"42 679 LINE",
"54 679 LINE",
"54 370 LINE",
"66 370 LINE",
"66 690 LINE",
"6 690 LINE",
"6 370 LINE"
);
}
);
width = 72;
}
);
note = T;
unicode = 0054;
},
{
color = 7;
glyphname = Tbar;
lastChange = "2020-10-04 17:22:31 +0000";
layers = (
{
components = (
{
name = T;
}
);
layerId = "DBA696BD-A337-48FC-9DA1-CD58B2C81FFB";
paths = (
{
closed = 1;
nodes = (
"18 346 LINE",
"54 346 LINE",
"54 358 LINE",
"18 358 LINE"
);
}
);
width = 72;
},
{
components = (
{
name = T;
}
);
layerId = "B64BEB12-03E1-41C2-8D0F-395888C0A328";
paths = (
{
closed = 1;
nodes = (
"38 272 LINE",
"198 272 LINE",
"198 347 LINE",
"38 347 LINE"
);
}
);
width = 236;
}
);
unicode = 0166;
},
{
color = 4;
glyphname = U;
lastChange = "2020-09-25 16:12:38 +0000";
layers = (
{
hints = (
{
horizontal = 1;
origin = "{0, 9}";
target = "{0, 5}";
type = Stem;
},
{
horizontal = 1;
origin = "{0, 7}";
target = down;
type = TopGhost;
},
{
origin = "{0, 8}";
target = "{0, 5}";
type = Stem;
},
{
origin = "{0, 4}";
target = "{0, 1}";
type = Stem;
}
);
layerId = "B64BEB12-03E1-41C2-8D0F-395888C0A328";
paths = (
{
closed = 1;
nodes = (
"139 0 LINE",
"178 45 LINE",
"178 730 LINE",
"98 730 LINE",
"98 75 LINE",
"86 75 LINE",
"86 730 LINE",
"6 730 LINE",
"6 45 LINE",
"45 0 LINE"
);
}
);
userData = {
assembly = "PUSHW[ ]\011/* 1 value pushed */
10 
MDAP[1]\011/* MoveDirectAbsPt */
PUSHW[ ]\011/* 1 value pushed */
2 
MDAP[1]\011/* MoveDirectAbsPt */
PUSHW[ ]\011/* 1 value pushed */
10 
SRP0[ ]\011/* SetRefPoint0 */
PUSHW[ ]\011/* 1 value pushed */
8 
MDRP[10000]\011/* MoveDirectRelPt */
PUSHW[ ]\011/* 1 value pushed */
8 
MDAP[1]\011/* MoveDirectAbsPt */
PUSHW[ ]\011/* 2 values pushed */
1 1 
MIRP[10100]\011/* MoveIndirectRelPt */
PUSHW[ ]\011/* 1 value pushed */
2 
SRP0[ ]\011/* SetRefPoint0 */
PUSHW[ ]\011/* 2 values pushed */
5 1 
MIRP[10100]\011/* MoveIndirectRelPt */
PUSHW[ ]\011/* 1 value pushed */
11 
MDRP[11100]\011/* MoveDirectRelPt */
SVTCA[0]\011/* SetFreedomAndProjectionVectorToAxis */
PUSHW[ ]\011/* 1 value pushed */
0 
MDAP[1]\011/* MoveDirectAbsPt */
PUSHW[ ]\011/* 1 value pushed */
3 
MDAP[1]\011/* MoveDirectAbsPt */
PUSHW[ ]\011/* 1 value pushed */
0 
RCVT[ ]\011/* ReadCVT */
IF[ ]\011/* If */
PUSHW[ ]\011/* 1 value pushed */
6 
MDAP[1]\011/* MoveDirectAbsPt */
ELSE[ ]\011/* Else */
PUSHW[ ]\011/* 2 values pushed */
6 2 
MIAP[0]\011/* MoveIndirectAbsPt */
EIF[ ]\011/* EndIf */
IUP[0]\011/* InterpolateUntPts */
IUP[1]\011/* InterpolateUntPts */";
};
width = 184;
},
{
hints = (
{
horizontal = 1;
origin = "{0, 5}";
target = "{0, 9}";
type = Stem;
},
{
horizontal = 1;
origin = "{0, 7}";
target = down;
type = TopGhost;
},
{
origin = "{0, 8}";
target = "{0, 5}";
type = Stem;
},
{
origin = "{0, 4}";
target = "{0, 1}";
type = Stem;
}
);
layerId = "DBA696BD-A337-48FC-9DA1-CD58B2C81FFB";
paths = (
{
closed = 1;
nodes = (
"34 0 LINE",
"42 8 LINE",
"42 690 LINE",
"30 690 LINE",
"30 11 LINE",
"18 11 LINE",
"18 690 LINE",
"6 690 LINE",
"6 8 LINE",
"14 0 LINE"
);
}
);
width = 48;
}
);
note = U;
unicode = 0055;
},
{
color = 4;
glyphname = V;
lastChange = "2020-09-25 16:12:51 +0000";
layers = (
{
hints = (
{
horizontal = 1;
origin = "{0, 9}";
target = "{0, 6}";
type = Stem;
},
{
horizontal = 1;
origin = "{0, 8}";
target = down;
type = TopGhost;
},
{
origin = "{0, 9}";
target = "{0, 6}";
type = Stem;
},
{
origin = "{0, 5}";
target = "{0, 2}";
type = Stem;
}
);
layerId = "B64BEB12-03E1-41C2-8D0F-395888C0A328";
paths = (
{
closed = 1;
nodes = (
"45 0 LINE",
"139 0 LINE",
"178 45 LINE",
"178 730 LINE",
"98 730 LINE",
"98 75 LINE",
"86 75 LINE",
"86 730 LINE",
"6 730 LINE",
"6 0 LINE"
);
}
);
userData = {
assembly = "SVTCA[0]\011/* SetFreedomAndProjectionVectorToAxis */
PUSHW[ ]\011/* 1 value pushed */
0 
MDAP[1]\011/* MoveDirectAbsPt */
PUSHW[ ]\011/* 1 value pushed */
4 
MDAP[1]\011/* MoveDirectAbsPt */
PUSHW[ ]\011/* 1 value pushed */
0 
RCVT[ ]\011/* ReadCVT */
IF[ ]\011/* If */
PUSHW[ ]\011/* 1 value pushed */
2 
MDAP[1]\011/* MoveDirectAbsPt */
ELSE[ ]\011/* Else */
PUSHW[ ]\011/* 2 values pushed */
2 2 
MIAP[0]\011/* MoveIndirectAbsPt */
EIF[ ]\011/* EndIf */
PUSHW[ ]\011/* 3 values pushed */
6 2 0 
SRP1[ ]\011/* SetRefPoint1 */
SRP2[ ]\011/* SetRefPoint2 */
IP[ ]\011/* InterpolatePts */
IUP[0]\011/* InterpolateUntPts */
IUP[1]\011/* InterpolateUntPts */";
};
width = 184;
},
{
hints = (
{
horizontal = 1;
origin = "{0, 9}";
target = "{0, 6}";
type = Stem;
},
{
horizontal = 1;
origin = "{0, 8}";
target = down;
type = TopGhost;
},
{
origin = "{0, 9}";
target = "{0, 6}";
type = Stem;
},
{
origin = "{0, 5}";
target = "{0, 2}";
type = Stem;
}
);
layerId = "DBA696BD-A337-48FC-9DA1-CD58B2C81FFB";
paths = (
{
closed = 1;
nodes = (
"12 0 LINE",
"34 0 LINE",
"42 8 LINE",
"42 690 LINE",
"30 690 LINE",
"30 11 LINE",
"18 11 LINE",
"18 690 LINE",
"6 690 LINE",
"6 0 LINE"
);
}
);
width = 48;
}
);
note = V;
unicode = 0056;
},
{
color = 4;
glyphname = W;
lastChange = "2020-09-25 16:12:20 +0000";
layers = (
{
hints = (
{
horizontal = 1;
origin = "{0, 1}";
target = "{0, 19}";
type = Stem;
},
{
horizontal = 1;
origin = "{0, 21}";
target = down;
type = TopGhost;
},
{
horizontal = 1;
origin = "{0, 3}";
target = "{0, 19}";
type = Stem;
},
{
origin = "{0, 0}";
target = "{0, 2}";
type = Stem;
},
{
origin = "{0, 9}";
target = "{0, 11}";
type = Stem;
},
{
origin = "{0, 5}";
target = "{0, 6}";
type = Stem;
}
);
layerId = "B64BEB12-03E1-41C2-8D0F-395888C0A328";
paths = (
{
closed = 1;
nodes = (
"6 45 LINE",
"46 0 LINE",
"86 0 LINE",
"86 25 LINE",
"98 25 LINE",
"98 0 LINE",
"178 0 LINE",
"178 25 LINE",
"190 25 LINE",
"190 0 LINE",
"231 0 LINE",
"270 45 LINE",
"270 730 LINE",
"190 730 LINE",
"190 75 LINE",
"178 75 LINE",
"178 730 LINE",
"98 730 LINE",
"98 75 LINE",
"86 75 LINE",
"86 730 LINE",
"6 730 LINE"
);
}
);
userData = {
assembly = "PUSHW[ ]\011/* 1 value pushed */
10 
CALL[ ]\011/* CallFunction */
SVTCA[0]\011/* SetFreedomAndProjectionVectorToAxis */
PUSHW[ ]\011/* 1 value pushed */
6 
RCVT[ ]\011/* ReadCVT */
IF[ ]\011/* If */
PUSHW[ ]\011/* 1 value pushed */
0 
MDAP[1]\011/* MoveDirectAbsPt */
ELSE[ ]\011/* Else */
PUSHW[ ]\011/* 2 values pushed */
0 19 
MIAP[0]\011/* MoveIndirectAbsPt */
EIF[ ]\011/* EndIf */
PUSHW[ ]\011/* 1 value pushed */
6 
RCVT[ ]\011/* ReadCVT */
IF[ ]\011/* If */
PUSHW[ ]\011/* 1 value pushed */
7 
MDAP[1]\011/* MoveDirectAbsPt */
ELSE[ ]\011/* Else */
PUSHW[ ]\011/* 2 values pushed */
7 19 
MIAP[0]\011/* MoveIndirectAbsPt */
EIF[ ]\011/* EndIf */
PUSHW[ ]\011/* 1 value pushed */
6 
RCVT[ ]\011/* ReadCVT */
IF[ ]\011/* If */
PUSHW[ ]\011/* 1 value pushed */
10 
MDAP[1]\011/* MoveDirectAbsPt */
ELSE[ ]\011/* Else */
PUSHW[ ]\011/* 2 values pushed */
10 19 
MIAP[0]\011/* MoveIndirectAbsPt */
EIF[ ]\011/* EndIf */
PUSHW[ ]\011/* 1 value pushed */
6 
RCVT[ ]\011/* ReadCVT */
IF[ ]\011/* If */
PUSHW[ ]\011/* 1 value pushed */
12 
MDAP[1]\011/* MoveDirectAbsPt */
ELSE[ ]\011/* Else */
PUSHW[ ]\011/* 2 values pushed */
12 19 
MIAP[0]\011/* MoveIndirectAbsPt */
EIF[ ]\011/* EndIf */
PUSHW[ ]\011/* 1 value pushed */
6 
RCVT[ ]\011/* ReadCVT */
IF[ ]\011/* If */
PUSHW[ ]\011/* 1 value pushed */
2 
MDAP[1]\011/* MoveDirectAbsPt */
ELSE[ ]\011/* Else */
PUSHW[ ]\011/* 2 values pushed */
2 13 
MIAP[0]\011/* MoveIndirectAbsPt */
EIF[ ]\011/* EndIf */
PUSHW[ ]\011/* 1 value pushed */
6 
RCVT[ ]\011/* ReadCVT */
IF[ ]\011/* If */
PUSHW[ ]\011/* 1 value pushed */
5 
MDAP[1]\011/* MoveDirectAbsPt */
ELSE[ ]\011/* Else */
PUSHW[ ]\011/* 2 values pushed */
5 13 
MIAP[0]\011/* MoveIndirectAbsPt */
EIF[ ]\011/* EndIf */
PUSHW[ ]\011/* 3 values pushed */
4 2 0 
SRP1[ ]\011/* SetRefPoint1 */
SRP2[ ]\011/* SetRefPoint2 */
IP[ ]\011/* InterpolatePts */
PUSHW[ ]\011/* 3 values pushed */
9 2 0 
SRP1[ ]\011/* SetRefPoint1 */
SRP2[ ]\011/* SetRefPoint2 */
IP[ ]\011/* InterpolatePts */
PUSHW[ ]\011/* 3 values pushed */
14 2 0 
SRP1[ ]\011/* SetRefPoint1 */
SRP2[ ]\011/* SetRefPoint2 */
IP[ ]\011/* InterpolatePts */
IUP[0]\011/* InterpolateUntPts */
IUP[1]\011/* InterpolateUntPts */";
};
width = 276;
},
{
hints = (
{
horizontal = 1;
origin = "{0, 1}";
target = "{0, 19}";
type = Stem;
},
{
horizontal = 1;
origin = "{0, 21}";
target = down;
type = TopGhost;
},
{
horizontal = 1;
origin = "{0, 3}";
target = "{0, 19}";
type = Stem;
},
{
origin = "{0, 0}";
target = "{0, 2}";
type = Stem;
},
{
origin = "{0, 9}";
target = "{0, 11}";
type = Stem;
},
{
origin = "{0, 5}";
target = "{0, 6}";
type = Stem;
}
);
layerId = "DBA696BD-A337-48FC-9DA1-CD58B2C81FFB";
paths = (
{
closed = 1;
nodes = (
"6 8 LINE",
"14 0 LINE",
"18 0 LINE",
"18 6 LINE",
"30 6 LINE",
"30 0 LINE",
"42 0 LINE",
"42 6 LINE",
"54 6 LINE",
"54 0 LINE",
"58 0 LINE",
"66 8 LINE",
"66 690 LINE",
"54 690 LINE",
"54 17 LINE",
"42 17 LINE",
"42 690 LINE",
"30 690 LINE",
"30 17 LINE",
"18 17 LINE",
"18 690 LINE",
"6 690 LINE"
);
}
);
width = 72;
}
);
note = W;
unicode = 0057;
},
{
color = 4;
glyphname = X;
lastChange = "2020-09-25 16:12:34 +0000";
layers = (
{
hints = (
{
horizontal = 1;
origin = "{0, 19}";
target = up;
type = BottomGhost;
},
{
horizontal = 1;
origin = "{0, 1}";
target = "{0, 18}";
type = Stem;
},
{
horizontal = 1;
origin = "{0, 14}";
target = down;
type = TopGhost;
},
{
horizontal = 1;
origin = "{0, 15}";
target = "{0, 12}";
type = Stem;
},
{
origin = "{0, 19}";
target = "{0, 0}";
type = Stem;
},
{
origin = "{0, 3}";
target = "{0, 4}";
type = Stem;
}
);
layerId = "B64BEB12-03E1-41C2-8D0F-395888C0A328";
paths = (
{
closed = 1;
nodes = (
"86 0 LINE",
"86 327 LINE",
"98 327 LINE",
"98 0 LINE",
"178 0 LINE",
"178 358 LINE",
"145 358 LINE",
"145 370 LINE",
"178 370 LINE",
"178 730 LINE",
"98 730 LINE",
"98 402 LINE",
"86 402 LINE",
"86 730 LINE",
"6 730 LINE",
"6 370 LINE",
"39 370 LINE",
"39 358 LINE",
"6 358 LINE",
"6 0 LINE"
);
}
);
userData = {
assembly = "SVTCA[0]\011/* SetFreedomAndProjectionVectorToAxis */
PUSHW[ ]\011/* 1 value pushed */
0 
MDAP[1]\011/* MoveDirectAbsPt */
PUSHW[ ]\011/* 1 value pushed */
8 
MDAP[1]\011/* MoveDirectAbsPt */
PUSHW[ ]\011/* 1 value pushed */
11 
MDAP[1]\011/* MoveDirectAbsPt */
PUSHW[ ]\011/* 1 value pushed */
0 
RCVT[ ]\011/* ReadCVT */
IF[ ]\011/* If */
PUSHW[ ]\011/* 1 value pushed */
2 
MDAP[1]\011/* MoveDirectAbsPt */
ELSE[ ]\011/* Else */
PUSHW[ ]\011/* 2 values pushed */
2 2 
MIAP[0]\011/* MoveIndirectAbsPt */
EIF[ ]\011/* EndIf */
PUSHW[ ]\011/* 1 value pushed */
0 
RCVT[ ]\011/* ReadCVT */
IF[ ]\011/* If */
PUSHW[ ]\011/* 1 value pushed */
5 
MDAP[1]\011/* MoveDirectAbsPt */
ELSE[ ]\011/* Else */
PUSHW[ ]\011/* 2 values pushed */
5 2 
MIAP[0]\011/* MoveIndirectAbsPt */
EIF[ ]\011/* EndIf */
PUSHW[ ]\011/* 3 values pushed */
4 2 0 
SRP1[ ]\011/* SetRefPoint1 */
SRP2[ ]\011/* SetRefPoint2 */
IP[ ]\011/* InterpolatePts */
PUSHW[ ]\011/* 3 values pushed */
10 2 0 
SRP1[ ]\011/* SetRefPoint1 */
SRP2[ ]\011/* SetRefPoint2 */
IP[ ]\011/* InterpolatePts */
IUP[0]\011/* InterpolateUntPts */
IUP[1]\011/* InterpolateUntPts */";
};
width = 184;
},
{
hints = (
{
horizontal = 1;
origin = "{0, 19}";
target = up;
type = BottomGhost;
},
{
horizontal = 1;
origin = "{0, 18}";
target = "{0, 15}";
type = Stem;
},
{
horizontal = 1;
origin = "{0, 14}";
target = down;
type = TopGhost;
},
{
origin = "{0, 19}";
target = "{0, 0}";
type = Stem;
},
{
origin = "{0, 3}";
target = "{0, 4}";
type = Stem;
}
);
layerId = "DBA696BD-A337-48FC-9DA1-CD58B2C81FFB";
paths = (
{
closed = 1;
nodes = (
"18 0 LINE",
"18 359 LINE",
"30 359 LINE",
"30 0 LINE",
"42 0 LINE",
"42 359 LINE",
"36 359 LINE",
"36 370 LINE",
"42 370 LINE",
"42 690 LINE",
"30 690 LINE",
"30 370 LINE",
"18 370 LINE",
"18 690 LINE",
"6 690 LINE",
"6 370 LINE",
"12 370 LINE",
"12 359 LINE",
"6 359 LINE",
"6 0 LINE"
);
}
);
width = 48;
}
);
note = X;
unicode = 0058;
},
{
color = 4;
glyphname = Y;
lastChange = "2020-09-25 16:13:16 +0000";
layers = (
{
hints = (
{
horizontal = 1;
origin = "{0, 9}";
target = "{0, 8}";
type = Stem;
},
{
horizontal = 1;
origin = "{0, 3}";
target = down;
type = TopGhost;
},
{
horizontal = 1;
origin = "{0, 5}";
target = "{0, 1}";
type = Stem;
},
{
origin = "{0, 7}";
target = "{0, 11}";
type = Stem;
},
{
origin = "{0, 4}";
target = "{0, 1}";
type = Stem;
}
);
layerId = "B64BEB12-03E1-41C2-8D0F-395888C0A328";
paths = (
{
closed = 1;
nodes = (
"99 162 LINE",
"87 162 LINE",
"87 730 LINE",
"7 730 LINE",
"7 132 LINE",
"47 87 LINE",
"99 87 LINE",
"99 75 LINE",
"6 75 LINE",
"6 0 LINE",
"140 0 LINE",
"179 45 LINE",
"179 730 LINE",
"99 730 LINE"
);
}
);
userData = {
assembly = "PUSHW[ ]\011/* 1 value pushed */
10 
CALL[ ]\011/* CallFunction */
PUSHW[ ]\011/* 4 values pushed */
3 9 4 14 
CALL[ ]\011/* CallFunction */
PUSHW[ ]\011/* 3 values pushed */
8 4 3 
SRP1[ ]\011/* SetRefPoint1 */
SRP2[ ]\011/* SetRefPoint2 */
IP[ ]\011/* InterpolatePts */
SVTCA[0]\011/* SetFreedomAndProjectionVectorToAxis */
PUSHW[ ]\011/* 1 value pushed */
6 
RCVT[ ]\011/* ReadCVT */
IF[ ]\011/* If */
PUSHW[ ]\011/* 1 value pushed */
0 
MDAP[1]\011/* MoveDirectAbsPt */
ELSE[ ]\011/* Else */
PUSHW[ ]\011/* 2 values pushed */
0 19 
MIAP[0]\011/* MoveIndirectAbsPt */
EIF[ ]\011/* EndIf */
PUSHW[ ]\011/* 1 value pushed */
6 
RCVT[ ]\011/* ReadCVT */
IF[ ]\011/* If */
PUSHW[ ]\011/* 1 value pushed */
6 
MDAP[1]\011/* MoveDirectAbsPt */
ELSE[ ]\011/* Else */
PUSHW[ ]\011/* 2 values pushed */
6 19 
MIAP[0]\011/* MoveIndirectAbsPt */
EIF[ ]\011/* EndIf */
PUSHW[ ]\011/* 1 value pushed */
6 
RCVT[ ]\011/* ReadCVT */
IF[ ]\011/* If */
PUSHW[ ]\011/* 1 value pushed */
3 
MDAP[1]\011/* MoveDirectAbsPt */
ELSE[ ]\011/* Else */
PUSHW[ ]\011/* 2 values pushed */
3 13 
MIAP[0]\011/* MoveIndirectAbsPt */
EIF[ ]\011/* EndIf */
PUSHW[ ]\011/* 3 values pushed */
8 3 0 
SRP1[ ]\011/* SetRefPoint1 */
SRP2[ ]\011/* SetRefPoint2 */
IP[ ]\011/* InterpolatePts */
IUP[0]\011/* InterpolateUntPts */
IUP[1]\011/* InterpolateUntPts */";
};
width = 185;
},
{
hints = (
{
horizontal = 1;
origin = "{0, 9}";
target = "{0, 8}";
type = Stem;
},
{
horizontal = 1;
origin = "{0, 5}";
target = "{0, 1}";
type = Stem;
},
{
horizontal = 1;
origin = "{0, 3}";
target = down;
type = TopGhost;
},
{
origin = "{0, 9}";
target = "{0, 1}";
type = Stem;
},
{
origin = "{0, 7}";
target = "{0, 11}";
type = Stem;
}
);
layerId = "DBA696BD-A337-48FC-9DA1-CD58B2C81FFB";
paths = (
{
closed = 1;
nodes = (
"30 34 LINE",
"18 34 LINE",
"18 690 LINE",
"6 690 LINE",
"6 31 LINE",
"14 23 LINE",
"30 23 LINE",
"30 11 LINE",
"6 11 LINE",
"6 0 LINE",
"32 0 LINE",
"42 8 LINE",
"42 690 LINE",
"30 690 LINE"
);
}
);
width = 48;
}
);
note = Y;
unicode = 0059;
},
{
color = 4;
glyphname = Z;
lastChange = "2020-09-25 16:13:13 +0000";
layers = (
{
hints = (
{
horizontal = 1;
origin = "{0, 1}";
target = "{0, 7}";
type = Stem;
},
{
horizontal = 1;
origin = "{0, 8}";
target = "{0, 18}";
type = Stem;
},
{
horizontal = 1;
origin = "{0, 12}";
target = "{0, 15}";
type = Stem;
},
{
origin = "{0, 0}";
target = "{0, 7}";
type = Stem;
},
{
origin = "{0, 6}";
target = "{0, 2}";
type = Stem;
}
);
layerId = "B64BEB12-03E1-41C2-8D0F-395888C0A328";
paths = (
{
closed = 1;
nodes = (
"6 45 LINE",
"47 0 LINE",
"178 0 LINE",
"178 45 LINE",
"178 300 LINE",
"98 300 LINE",
"98 75 LINE",
"86 75 LINE",
"86 312 LINE",
"178 312 LINE",
"178 685 LINE",
"138 730 LINE",
"6 730 LINE",
"6 399 LINE",
"86 399 LINE",
"86 655 LINE",
"98 655 LINE",
"98 387 LINE",
"6 387 LINE"
);
}
);
userData = {
assembly = "PUSHW[ ]\011/* 3 values pushed */
9 6 3 
CALL[ ]\011/* CallFunction */
PUSHW[ ]\011/* 1 value pushed */
6 
SRP0[ ]\011/* SetRefPoint0 */
PUSHW[ ]\011/* 1 value pushed */
3 
MDRP[10000]\011/* MoveDirectRelPt */
PUSHW[ ]\011/* 1 value pushed */
9 
SRP0[ ]\011/* SetRefPoint0 */
PUSHW[ ]\011/* 1 value pushed */
11 
MDRP[11100]\011/* MoveDirectRelPt */
SVTCA[0]\011/* SetFreedomAndProjectionVectorToAxis */
PUSHW[ ]\011/* 1 value pushed */
0 
RCVT[ ]\011/* ReadCVT */
IF[ ]\011/* If */
PUSHW[ ]\011/* 1 value pushed */
2 
MDAP[1]\011/* MoveDirectAbsPt */
ELSE[ ]\011/* Else */
PUSHW[ ]\011/* 2 values pushed */
2 2 
MIAP[0]\011/* MoveIndirectAbsPt */
EIF[ ]\011/* EndIf */
PUSHW[ ]\011/* 3 values pushed */
8 9 3 
CALL[ ]\011/* CallFunction */
PUSHW[ ]\011/* 1 value pushed */
2 
SRP0[ ]\011/* SetRefPoint0 */
PUSHW[ ]\011/* 1 value pushed */
0 
MDRP[11100]\011/* MoveDirectRelPt */
PUSHW[ ]\011/* 1 value pushed */
9 
SRP0[ ]\011/* SetRefPoint0 */
PUSHW[ ]\011/* 1 value pushed */
5 
MDRP[10000]\011/* MoveDirectRelPt */
IUP[0]\011/* InterpolateUntPts */
IUP[1]\011/* InterpolateUntPts */";
};
width = 184;
},
{
hints = (
{
horizontal = 1;
origin = "{0, 1}";
target = "{0, 7}";
type = Stem;
},
{
horizontal = 1;
origin = "{0, 8}";
target = "{0, 18}";
type = Stem;
},
{
horizontal = 1;
origin = "{0, 12}";
target = "{0, 15}";
type = Stem;
},
{
origin = "{0, 0}";
target = "{0, 7}";
type = Stem;
},
{
origin = "{0, 6}";
target = "{0, 2}";
type = Stem;
}
);
layerId = "DBA696BD-A337-48FC-9DA1-CD58B2C81FFB";
paths = (
{
closed = 1;
nodes = (
"6 8 LINE",
"14 0 LINE",
"42 0 LINE",
"42 45 LINE",
"42 334 LINE",
"30 334 LINE",
"30 11 LINE",
"18 11 LINE",
"18 346 LINE",
"42 346 LINE",
"42 682 LINE",
"34 690 LINE",
"6 690 LINE",
"6 369 LINE",
"18 369 LINE",
"18 679 LINE",
"30 679 LINE",
"30 357 LINE",
"6 357 LINE"
);
}
);
width = 48;
}
);
note = Z;
unicode = 005A;
},
{
color = 4;
glyphname = E.ss01;
lastChange = "2020-09-25 16:13:34 +0000";
layers = (
{
hints = (
{
horizontal = 1;
origin = "{0, 3}";
target = "{1, 2}";
type = Stem;
},
{
horizontal = 1;
origin = "{2, 3}";
target = "{2, 2}";
type = Stem;
},
{
horizontal = 1;
origin = "{0, 2}";
target = "{3, 3}";
type = Stem;
},
{
origin = "{0, 3}";
target = "{0, 0}";
type = Stem;
}
);
layerId = "B64BEB12-03E1-41C2-8D0F-395888C0A328";
paths = (
{
closed = 1;
nodes = (
"86 0 LINE",
"86 730 LINE",
"6 730 LINE",
"6 0 LINE"
);
},
{
closed = 1;
nodes = (
"92 0 LINE",
"92 75 LINE",
"86 75 LINE",
"86 0 LINE"
);
},
{
closed = 1;
nodes = (
"92 327 LINE",
"92 402 LINE",
"86 402 LINE",
"86 327 LINE"
);
},
{
closed = 1;
nodes = (
"92 655 LINE",
"92 730 LINE",
"86 730 LINE",
"86 655 LINE"
);
}
);
userData = {
assembly = "PUSHW[ ]\011/* 4 values pushed */
6 1 9 4 
CALL[ ]\011/* CallFunction */
PUSHW[ ]\011/* 1 value pushed */
9 
SRP0[ ]\011/* SetRefPoint0 */
PUSHW[ ]\011/* 1 value pushed */
8 
MDRP[11100]\011/* MoveDirectRelPt */
PUSHW[ ]\011/* 1 value pushed */
0 
MDRP[10000]\011/* MoveDirectRelPt */
PUSHW[ ]\011/* 1 value pushed */
6 
SRP0[ ]\011/* SetRefPoint0 */
PUSHW[ ]\011/* 1 value pushed */
1 
MDRP[10000]\011/* MoveDirectRelPt */
PUSHW[ ]\011/* 1 value pushed */
8 
SRP0[ ]\011/* SetRefPoint0 */
PUSHW[ ]\011/* 1 value pushed */
11 
MDRP[10000]\011/* MoveDirectRelPt */
SVTCA[0]\011/* SetFreedomAndProjectionVectorToAxis */
PUSHW[ ]\011/* 1 value pushed */
10 
MDAP[1]\011/* MoveDirectAbsPt */
PUSHW[ ]\011/* 1 value pushed */
0 
RCVT[ ]\011/* ReadCVT */
IF[ ]\011/* If */
PUSHW[ ]\011/* 1 value pushed */
8 
MDAP[1]\011/* MoveDirectAbsPt */
ELSE[ ]\011/* Else */
PUSHW[ ]\011/* 2 values pushed */
8 2 
MIAP[0]\011/* MoveIndirectAbsPt */
EIF[ ]\011/* EndIf */
IUP[0]\011/* InterpolateUntPts */
IUP[1]\011/* InterpolateUntPts */";
};
width = 98;
},
{
hints = (
{
horizontal = 1;
origin = "{1, 2}";
target = "{0, 3}";
type = Stem;
},
{
horizontal = 1;
origin = "{2, 2}";
target = "{2, 3}";
type = Stem;
},
{
horizontal = 1;
origin = "{0, 2}";
target = "{3, 3}";
type = Stem;
},
{
origin = "{0, 3}";
target = "{0, 0}";
type = Stem;
}
);
layerId = "DBA696BD-A337-48FC-9DA1-CD58B2C81FFB";
paths = (
{
closed = 1;
nodes = (
"18 0 LINE",
"18 690 LINE",
"6 690 LINE",
"6 0 LINE"
);
},
{
closed = 1;
nodes = (
"24 0 LINE",
"24 11 LINE",
"18 11 LINE",
"18 0 LINE"
);
},
{
closed = 1;
nodes = (
"24 340 LINE",
"24 351 LINE",
"18 351 LINE",
"18 340 LINE"
);
},
{
closed = 1;
nodes = (
"24 679 LINE",
"24 690 LINE",
"18 690 LINE",
"18 679 LINE"
);
}
);
width = 24;
}
);
note = E;
},
{
color = 4;
glyphname = F.ss01;
lastChange = "2020-09-12 11:57:53 +0000";
layers = (
{
layerId = "B64BEB12-03E1-41C2-8D0F-395888C0A328";
paths = (
{
closed = 1;
nodes = (
"86 0 LINE",
"86 730 LINE",
"6 730 LINE",
"6 0 LINE"
);
},
{
closed = 1;
nodes = (
"92 327 LINE",
"92 402 LINE",
"86 402 LINE",
"86 327 LINE"
);
},
{
closed = 1;
nodes = (
"92 655 LINE",
"92 730 LINE",
"86 730 LINE",
"86 655 LINE"
);
}
);
userData = {
assembly = "PUSHW[ ]\011/* 4 values pushed */
6 1 9 4 
CALL[ ]\011/* CallFunction */
PUSHW[ ]\011/* 1 value pushed */
9 
SRP0[ ]\011/* SetRefPoint0 */
PUSHW[ ]\011/* 1 value pushed */
8 
MDRP[11100]\011/* MoveDirectRelPt */
PUSHW[ ]\011/* 1 value pushed */
0 
MDRP[10000]\011/* MoveDirectRelPt */
PUSHW[ ]\011/* 1 value pushed */
6 
SRP0[ ]\011/* SetRefPoint0 */
PUSHW[ ]\011/* 1 value pushed */
1 
MDRP[10000]\011/* MoveDirectRelPt */
PUSHW[ ]\011/* 1 value pushed */
8 
SRP0[ ]\011/* SetRefPoint0 */
PUSHW[ ]\011/* 1 value pushed */
11 
MDRP[10000]\011/* MoveDirectRelPt */
SVTCA[0]\011/* SetFreedomAndProjectionVectorToAxis */
PUSHW[ ]\011/* 1 value pushed */
10 
MDAP[1]\011/* MoveDirectAbsPt */
PUSHW[ ]\011/* 1 value pushed */
0 
RCVT[ ]\011/* ReadCVT */
IF[ ]\011/* If */
PUSHW[ ]\011/* 1 value pushed */
8 
MDAP[1]\011/* MoveDirectAbsPt */
ELSE[ ]\011/* Else */
PUSHW[ ]\011/* 2 values pushed */
8 2 
MIAP[0]\011/* MoveIndirectAbsPt */
EIF[ ]\011/* EndIf */
IUP[0]\011/* InterpolateUntPts */
IUP[1]\011/* InterpolateUntPts */";
};
width = 98;
},
{
layerId = "DBA696BD-A337-48FC-9DA1-CD58B2C81FFB";
paths = (
{
closed = 1;
nodes = (
"18 0 LINE",
"18 690 LINE",
"6 690 LINE",
"6 0 LINE"
);
},
{
closed = 1;
nodes = (
"24 340 LINE",
"24 351 LINE",
"18 351 LINE",
"18 340 LINE"
);
},
{
closed = 1;
nodes = (
"24 679 LINE",
"24 690 LINE",
"18 690 LINE",
"18 679 LINE"
);
}
);
width = 24;
}
);
note = E;
},
{
color = 4;
glyphname = J.ss01;
lastChange = "2020-09-25 16:10:18 +0000";
layers = (
{
hints = (
{
horizontal = 1;
origin = "{1, 3}";
target = "{1, 2}";
type = Stem;
},
{
horizontal = 1;
origin = "{0, 2}";
target = "{0, 3}";
type = Stem;
},
{
origin = "{0, 5}";
target = "{0, 0}";
type = Stem;
}
);
layerId = "B64BEB12-03E1-41C2-8D0F-395888C0A328";
paths = (
{
closed = 1;
nodes = (
"92 0 LINE",
"92 730 LINE",
"6 730 LINE",
"6 655 LINE",
"12 655 LINE",
"12 0 LINE"
);
},
{
closed = 1;
nodes = (
"12 0 LINE",
"12 75 LINE",
"6 75 LINE",
"6 0 LINE"
);
}
);
userData = {
assembly = "PUSHW[ ]\011/* 1 value pushed */
10 
CALL[ ]\011/* CallFunction */
PUSHW[ ]\011/* 4 values pushed */
0 12 5 14 
CALL[ ]\011/* CallFunction */
PUSHW[ ]\011/* 3 values pushed */
3 5 0 
SRP1[ ]\011/* SetRefPoint1 */
SRP2[ ]\011/* SetRefPoint2 */
IP[ ]\011/* InterpolatePts */
PUSHW[ ]\011/* 1 value pushed */
3 
MDAP[1]\011/* MoveDirectAbsPt */
PUSHW[ ]\011/* 2 values pushed */
2 9 
MIRP[10100]\011/* MoveIndirectRelPt */
SVTCA[0]\011/* SetFreedomAndProjectionVectorToAxis */
PUSHW[ ]\011/* 1 value pushed */
6 
RCVT[ ]\011/* ReadCVT */
IF[ ]\011/* If */
PUSHW[ ]\011/* 1 value pushed */
6 
MDAP[1]\011/* MoveDirectAbsPt */
ELSE[ ]\011/* Else */
PUSHW[ ]\011/* 2 values pushed */
6 19 
MIAP[0]\011/* MoveIndirectAbsPt */
EIF[ ]\011/* EndIf */
PUSHW[ ]\011/* 1 value pushed */
6 
RCVT[ ]\011/* ReadCVT */
IF[ ]\011/* If */
PUSHW[ ]\011/* 1 value pushed */
2 
MDAP[1]\011/* MoveDirectAbsPt */
ELSE[ ]\011/* Else */
PUSHW[ ]\011/* 2 values pushed */
2 13 
MIAP[0]\011/* MoveIndirectAbsPt */
EIF[ ]\011/* EndIf */
PUSHW[ ]\011/* 1 value pushed */
6 
SRP0[ ]\011/* SetRefPoint0 */
PUSHW[ ]\011/* 2 values pushed */
0 8 
MIRP[10100]\011/* MoveIndirectRelPt */
PUSHW[ ]\011/* 1 value pushed */
4 
MDRP[10000]\011/* MoveDirectRelPt */
PUSHW[ ]\011/* 1 value pushed */
5 
MDRP[10000]\011/* MoveDirectRelPt */
IUP[0]\011/* InterpolateUntPts */
IUP[1]\011/* InterpolateUntPts */";
};
width = 98;
},
{
layerId = "DBA696BD-A337-48FC-9DA1-CD58B2C81FFB";
paths = (
{
closed = 1;
nodes = (
"24 0 LINE",
"24 690 LINE",
"6 690 LINE",
"6 679 LINE",
"12 679 LINE",
"12 0 LINE"
);
},
{
closed = 1;
nodes = (
"12 0 LINE",
"12 11 LINE",
"6 11 LINE",
"6 0 LINE"
);
}
);
width = 24;
}
);
note = T;
},
{
color = 4;
glyphname = L.ss01;
lastChange = "2020-10-01 09:03:47 +0000";
layers = (
{
hints = (
{
horizontal = 1;
origin = "{0, 10}";
target = "{0, 2}";
type = Stem;
},
{
horizontal = 1;
origin = "{0, 8}";
target = "{0, 3}";
type = Stem;
},
{
origin = "{0, 5}";
target = "{0, 0}";
type = Stem;
},
{
origin = "{0, 10}";
target = "{0, 2}";
type = Stem;
}
);
layerId = "B64BEB12-03E1-41C2-8D0F-395888C0A328";
paths = (
{
closed = 1;
nodes = (
"178 0 LINE",
"178 75 LINE",
"86 75 LINE",
"86 655 LINE",
"98 655 LINE",
"98 87 LINE",
"178 87 LINE",
"178 730 LINE",
"46 730 LINE",
"6 685 LINE",
"6 0 LINE"
);
}
);
userData = {
assembly = "PUSHW[ ]\011/* 4 values pushed */
0 1 3 4 
CALL[ ]\011/* CallFunction */
PUSHW[ ]\011/* 1 value pushed */
3 
SRP0[ ]\011/* SetRefPoint0 */
PUSHW[ ]\011/* 1 value pushed */
2 
MDRP[11100]\011/* MoveDirectRelPt */
SVTCA[0]\011/* SetFreedomAndProjectionVectorToAxis */
PUSHW[ ]\011/* 1 value pushed */
4 
MDAP[1]\011/* MoveDirectAbsPt */
PUSHW[ ]\011/* 1 value pushed */
0 
RCVT[ ]\011/* ReadCVT */
IF[ ]\011/* If */
PUSHW[ ]\011/* 1 value pushed */
2 
MDAP[1]\011/* MoveDirectAbsPt */
ELSE[ ]\011/* Else */
PUSHW[ ]\011/* 2 values pushed */
2 2 
MIAP[0]\011/* MoveIndirectAbsPt */
EIF[ ]\011/* EndIf */
IUP[0]\011/* InterpolateUntPts */
IUP[1]\011/* InterpolateUntPts */";
};
width = 184;
},
{
hints = (
{
horizontal = 1;
origin = "{0, 10}";
target = "{0, 2}";
type = Stem;
},
{
horizontal = 1;
origin = "{0, 8}";
target = "{0, 3}";
type = Stem;
},
{
origin = "{0, 10}";
target = "{0, 2}";
type = Stem;
},
{
origin = "{0, 5}";
target = "{0, 0}";
type = Stem;
}
);
layerId = "DBA696BD-A337-48FC-9DA1-CD58B2C81FFB";
paths = (
{
closed = 1;
nodes = (
"42 0 LINE",
"42 11 LINE",
"18 11 LINE",
"18 679 LINE",
"30 679 LINE",
"30 23 LINE",
"42 23 LINE",
"42 690 LINE",
"16 690 LINE",
"6 682 LINE",
"6 0 LINE"
);
}
);
width = 48;
}
);
note = L;
},
{
color = 4;
glyphname = T.ss01;
lastChange = "2020-09-25 16:13:38 +0000";
layers = (
{
hints = (
{
horizontal = 1;
origin = "{0, 6}";
target = up;
type = BottomGhost;
},
{
horizontal = 1;
origin = "{0, 3}";
target = "{0, 4}";
type = Stem;
},
{
origin = "{0, 6}";
target = "{0, 7}";
type = Stem;
}
);
layerId = "B64BEB12-03E1-41C2-8D0F-395888C0A328";
paths = (
{
closed = 1;
nodes = (
"86 655 LINE",
"92 655 LINE",
"92 730 LINE",
"0 730 LINE",
"0 655 LINE",
"6 655 LINE",
"6 0 LINE",
"86 0 LINE"
);
}
);
userData = {
assembly = "PUSHW[ ]\011/* 1 value pushed */
10 
CALL[ ]\011/* CallFunction */
PUSHW[ ]\011/* 4 values pushed */
0 12 5 14 
CALL[ ]\011/* CallFunction */
PUSHW[ ]\011/* 3 values pushed */
3 5 0 
SRP1[ ]\011/* SetRefPoint1 */
SRP2[ ]\011/* SetRefPoint2 */
IP[ ]\011/* InterpolatePts */
PUSHW[ ]\011/* 1 value pushed */
3 
MDAP[1]\011/* MoveDirectAbsPt */
PUSHW[ ]\011/* 2 values pushed */
2 9 
MIRP[10100]\011/* MoveIndirectRelPt */
SVTCA[0]\011/* SetFreedomAndProjectionVectorToAxis */
PUSHW[ ]\011/* 1 value pushed */
6 
RCVT[ ]\011/* ReadCVT */
IF[ ]\011/* If */
PUSHW[ ]\011/* 1 value pushed */
6 
MDAP[1]\011/* MoveDirectAbsPt */
ELSE[ ]\011/* Else */
PUSHW[ ]\011/* 2 values pushed */
6 19 
MIAP[0]\011/* MoveIndirectAbsPt */
EIF[ ]\011/* EndIf */
PUSHW[ ]\011/* 1 value pushed */
6 
RCVT[ ]\011/* ReadCVT */
IF[ ]\011/* If */
PUSHW[ ]\011/* 1 value pushed */
2 
MDAP[1]\011/* MoveDirectAbsPt */
ELSE[ ]\011/* Else */
PUSHW[ ]\011/* 2 values pushed */
2 13 
MIAP[0]\011/* MoveIndirectAbsPt */
EIF[ ]\011/* EndIf */
PUSHW[ ]\011/* 1 value pushed */
6 
SRP0[ ]\011/* SetRefPoint0 */
PUSHW[ ]\011/* 2 values pushed */
0 8 
MIRP[10100]\011/* MoveIndirectRelPt */
PUSHW[ ]\011/* 1 value pushed */
4 
MDRP[10000]\011/* MoveDirectRelPt */
PUSHW[ ]\011/* 1 value pushed */
5 
MDRP[10000]\011/* MoveDirectRelPt */
IUP[0]\011/* InterpolateUntPts */
IUP[1]\011/* InterpolateUntPts */";
};
width = 92;
},
{
hints = (
{
horizontal = 1;
origin = "{0, 6}";
target = up;
type = BottomGhost;
},
{
horizontal = 1;
origin = "{0, 3}";
target = "{0, 4}";
type = Stem;
},
{
origin = "{0, 6}";
target = "{0, 7}";
type = Stem;
}
);
layerId = "DBA696BD-A337-48FC-9DA1-CD58B2C81FFB";
paths = (
{
closed = 1;
nodes = (
"18 679 LINE",
"24 679 LINE",
"24 690 LINE",
"0 690 LINE",
"0 679 LINE",
"6 679 LINE",
"6 0 LINE",
"18 0 LINE"
);
}
);
width = 24;
}
);
note = T;
},
{
color = 4;
glyphname = a;
lastChange = "2020-09-25 15:22:52 +0000";
layers = (
{
hints = (
{
horizontal = 1;
origin = "{0, 10}";
target = "{1, 0}";
type = Stem;
},
{
horizontal = 1;
origin = "{1, 1}";
target = "{0, 7}";
type = Stem;
},
{
horizontal = 1;
origin = "{0, 4}";
target = "{0, 0}";
type = Stem;
},
{
origin = "{0, 14}";
target = "{0, 15}";
type = Stem;
},
{
origin = "{0, 9}";
target = "{0, 11}";
type = Stem;
}
);
layerId = "B64BEB12-03E1-41C2-8D0F-395888C0A328";
paths = (
{
closed = 1;
nodes = (
"46 600 LINE",
"6 555 LINE",
"6 413 LINE",
"86 413 LINE",
"86 525 LINE",
"98 525 LINE",
"98 401 LINE",
"46 401 LINE",
"6 356 LINE",
"6 45 LINE",
"45 0 LINE",
"86 0 LINE",
"86 25 LINE",
"98 25 LINE",
"98 0 LINE",
"178 0 LINE",
"178 553 LINE",
"139 600 LINE"
);
},
{
closed = 1;
nodes = (
"86 75 LINE",
"86 326 LINE",
"98 326 LINE",
"98 75 LINE"
);
}
);
userData = {
assembly = "PUSHW[ ]\011/* 1 value pushed */
22 
MDAP[1]\011/* MoveDirectAbsPt */
PUSHW[ ]\011/* 1 value pushed */
5 
MDAP[1]\011/* MoveDirectAbsPt */
PUSHW[ ]\011/* 2 values pushed */
2 1 
MIRP[10100]\011/* MoveIndirectRelPt */
PUSHW[ ]\011/* 1 value pushed */
22 
SRP0[ ]\011/* SetRefPoint0 */
PUSHW[ ]\011/* 1 value pushed */
8 
MDRP[10000]\011/* MoveDirectRelPt */
PUSHW[ ]\011/* 1 value pushed */
8 
MDAP[1]\011/* MoveDirectAbsPt */
PUSHW[ ]\011/* 2 values pushed */
21 1 
MIRP[10100]\011/* MoveIndirectRelPt */
PUSHW[ ]\011/* 1 value pushed */
6 
MDRP[10000]\011/* MoveDirectRelPt */
PUSHW[ ]\011/* 1 value pushed */
5 
SRP0[ ]\011/* SetRefPoint0 */
PUSHW[ ]\011/* 1 value pushed */
11 
MDRP[10000]\011/* MoveDirectRelPt */
PUSHW[ ]\011/* 1 value pushed */
21 
SRP0[ ]\011/* SetRefPoint0 */
PUSHW[ ]\011/* 1 value pushed */
13 
MDRP[10000]\011/* MoveDirectRelPt */
PUSHW[ ]\011/* 1 value pushed */
8 
SRP0[ ]\011/* SetRefPoint0 */
PUSHW[ ]\011/* 1 value pushed */
15 
MDRP[10000]\011/* MoveDirectRelPt */
PUSHW[ ]\011/* 1 value pushed */
5 
SRP0[ ]\011/* SetRefPoint0 */
PUSHW[ ]\011/* 1 value pushed */
18 
MDRP[10000]\011/* MoveDirectRelPt */
PUSHW[ ]\011/* 1 value pushed */
2 
SRP0[ ]\011/* SetRefPoint0 */
PUSHW[ ]\011/* 1 value pushed */
23 
MDRP[11100]\011/* MoveDirectRelPt */
SVTCA[0]\011/* SetFreedomAndProjectionVectorToAxis */
PUSHW[ ]\011/* 1 value pushed */
0 
RCVT[ ]\011/* ReadCVT */
IF[ ]\011/* If */
PUSHW[ ]\011/* 1 value pushed */
3 
MDAP[1]\011/* MoveDirectAbsPt */
ELSE[ ]\011/* Else */
PUSHW[ ]\011/* 2 values pushed */
3 2 
MIAP[0]\011/* MoveIndirectAbsPt */
EIF[ ]\011/* EndIf */
PUSHW[ ]\011/* 1 value pushed */
0 
RCVT[ ]\011/* ReadCVT */
IF[ ]\011/* If */
PUSHW[ ]\011/* 1 value pushed */
6 
MDAP[1]\011/* MoveDirectAbsPt */
ELSE[ ]\011/* Else */
PUSHW[ ]\011/* 2 values pushed */
6 2 
MIAP[0]\011/* MoveIndirectAbsPt */
EIF[ ]\011/* EndIf */
PUSHW[ ]\011/* 3 values pushed */
17 14 3 
CALL[ ]\011/* CallFunction */
IUP[0]\011/* InterpolateUntPts */
IUP[1]\011/* InterpolateUntPts */";
};
width = 184;
},
{
hints = (
{
horizontal = 1;
origin = "{0, 10}";
target = "{1, 0}";
type = Stem;
},
{
horizontal = 1;
origin = "{1, 1}";
target = "{0, 7}";
type = Stem;
},
{
horizontal = 1;
origin = "{0, 0}";
target = "{0, 4}";
type = Stem;
},
{
origin = "{0, 9}";
target = "{0, 11}";
type = Stem;
},
{
origin = "{0, 13}";
target = "{0, 15}";
type = Stem;
}
);
layerId = "DBA696BD-A337-48FC-9DA1-CD58B2C81FFB";
paths = (
{
closed = 1;
nodes = (
"14 600 LINE",
"6 592 LINE",
"6 412 LINE",
"18 412 LINE",
"18 589 LINE",
"30 589 LINE",
"30 400 LINE",
"14 400 LINE",
"6 392 LINE",
"6 8 LINE",
"13 0 LINE",
"18 0 LINE",
"18 0 LINE",
"30 0 LINE",
"30 0 LINE",
"42 0 LINE",
"42 592 LINE",
"34 600 LINE"
);
},
{
closed = 1;
nodes = (
"18 11 LINE",
"18 389 LINE",
"30 389 LINE",
"30 11 LINE"
);
}
);
width = 48;
}
);
note = a;
unicode = 0061;
},
{
color = 4;
glyphname = ae;
lastChange = "2020-07-06 07:41:19 +0000";
layers = (
{
guideLines = (
{
position = "{178, 375}";
}
);
layerId = "B64BEB12-03E1-41C2-8D0F-395888C0A328";
paths = (
{
closed = 1;
nodes = (
"89 0 LINE",
"98 0 LINE",
"107 0 LINE",
"231 0 LINE",
"270 45 LINE",
"270 288 LINE",
"190 288 LINE",
"190 75 LINE",
"178 75 LINE",
"178 300 LINE",
"270 300 LINE",
"270 555 LINE",
"230 600 LINE",
"46 600 LINE",
"6 555 LINE",
"6 387 LINE",
"86 387 LINE",
"86 525 LINE",
"98 525 LINE",
"98 375 LINE",
"46 375 LINE",
"6 330 LINE",
"6 45 LINE",
"45 0 LINE"
);
},
{
closed = 1;
nodes = (
"86 300 LINE",
"98 300 LINE",
"98 75 LINE",
"86 75 LINE"
);
},
{
closed = 1;
nodes = (
"178 525 LINE",
"190 525 LINE",
"190 375 LINE",
"178 375 LINE"
);
}
);
width = 276;
},
{
layerId = "DBA696BD-A337-48FC-9DA1-CD58B2C81FFB";
paths = (
{
closed = 1;
nodes = (
"24 0 LINE",
"24 0 LINE",
"30 0 LINE",
"58 0 LINE",
"66 8 LINE",
"66 288 LINE",
"54 288 LINE",
"54 11 LINE",
"42 11 LINE",
"42 300 LINE",
"66 300 LINE",
"66 592 LINE",
"58 600 LINE",
"14 600 LINE",
"6 592 LINE",
"6 412 LINE",
"18 412 LINE",
"18 589 LINE",
"30 589 LINE",
"30 401 LINE",
"14 401 LINE",
"6 393 LINE",
"6 8 LINE",
"13 0 LINE"
);
},
{
closed = 1;
nodes = (
"18 390 LINE",
"30 390 LINE",
"30 11 LINE",
"18 11 LINE"
);
},
{
closed = 1;
nodes = (
"42 589 LINE",
"54 589 LINE",
"54 311 LINE",
"42 311 LINE"
);
}
);
width = 72;
}
);
unicode = 00E6;
},
{
color = 4;
glyphname = b;
lastChange = "2020-09-25 15:29:31 +0000";
layers = (
{
hints = (
{
horizontal = 1;
origin = "{0, 13}";
target = "{1, 3}";
type = Stem;
},
{
horizontal = 1;
origin = "{0, 8}";
target = "{1, 0}";
type = Stem;
},
{
horizontal = 1;
origin = "{0, 12}";
target = down;
type = TopGhost;
},
{
horizontal = 1;
origin = "{0, 1}";
target = "{1, 3}";
type = Stem;
},
{
horizontal = 1;
origin = "{1, 0}";
target = "{0, 10}";
type = Stem;
},
{
origin = "{0, 13}";
target = "{0, 0}";
type = Stem;
},
{
origin = "{0, 3}";
target = "{0, 5}";
type = Stem;
}
);
layerId = "B64BEB12-03E1-41C2-8D0F-395888C0A328";
paths = (
{
closed = 1;
nodes = (
"86 0 LINE",
"86 25 LINE",
"98 25 LINE",
"98 0 LINE",
"139 0 LINE",
"178 45 LINE",
"178 555 LINE",
"139 600 LINE",
"98 600 LINE",
"98 575 LINE",
"86 575 LINE",
"86 730 LINE",
"6 730 LINE",
"6 0 LINE"
);
},
{
closed = 1;
nodes = (
"86 525 LINE",
"98 525 LINE",
"98 75 LINE",
"86 75 LINE"
);
}
);
userData = {
assembly = "PUSHW[ ]\011/* 1 value pushed */
10 
CALL[ ]\011/* CallFunction */
PUSHW[ ]\011/* 1 value pushed */
16 
MDAP[1]\011/* MoveDirectAbsPt */
PUSHW[ ]\011/* 1 value pushed */
12 
MDAP[1]\011/* MoveDirectAbsPt */
PUSHW[ ]\011/* 2 values pushed */
1 9 
MIRP[10100]\011/* MoveIndirectRelPt */
PUSHW[ ]\011/* 1 value pushed */
12 
SRP0[ ]\011/* SetRefPoint0 */
PUSHW[ ]\011/* 1 value pushed */
4 
MDRP[10000]\011/* MoveDirectRelPt */
PUSHW[ ]\011/* 1 value pushed */
4 
MDAP[1]\011/* MoveDirectAbsPt */
PUSHW[ ]\011/* 1 value pushed */
16 
SRP0[ ]\011/* SetRefPoint0 */
PUSHW[ ]\011/* 1 value pushed */
7 
MDRP[10000]\011/* MoveDirectRelPt */
PUSHW[ ]\011/* 1 value pushed */
7 
MDAP[1]\011/* MoveDirectAbsPt */
PUSHW[ ]\011/* 2 values pushed */
5 9 
MIRP[10100]\011/* MoveIndirectRelPt */
PUSHW[ ]\011/* 1 value pushed */
9 
MDRP[10000]\011/* MoveDirectRelPt */
PUSHW[ ]\011/* 1 value pushed */
12 
SRP0[ ]\011/* SetRefPoint0 */
PUSHW[ ]\011/* 1 value pushed */
11 
MDRP[10000]\011/* MoveDirectRelPt */
PUSHW[ ]\011/* 1 value pushed */
11 
MDAP[1]\011/* MoveDirectAbsPt */
PUSHW[ ]\011/* 1 value pushed */
5 
SRP0[ ]\011/* SetRefPoint0 */
PUSHW[ ]\011/* 1 value pushed */
13 
MDRP[10000]\011/* MoveDirectRelPt */
PUSHW[ ]\011/* 1 value pushed */
1 
SRP0[ ]\011/* SetRefPoint0 */
PUSHW[ ]\011/* 1 value pushed */
17 
MDRP[11100]\011/* MoveDirectRelPt */
SVTCA[0]\011/* SetFreedomAndProjectionVectorToAxis */
PUSHW[ ]\011/* 1 value pushed */
6 
RCVT[ ]\011/* ReadCVT */
IF[ ]\011/* If */
PUSHW[ ]\011/* 1 value pushed */
8 
MDAP[1]\011/* MoveDirectAbsPt */
ELSE[ ]\011/* Else */
PUSHW[ ]\011/* 2 values pushed */
8 19 
MIAP[0]\011/* MoveIndirectAbsPt */
EIF[ ]\011/* EndIf */
PUSHW[ ]\011/* 1 value pushed */
6 
RCVT[ ]\011/* ReadCVT */
IF[ ]\011/* If */
PUSHW[ ]\011/* 1 value pushed */
0 
MDAP[1]\011/* MoveDirectAbsPt */
ELSE[ ]\011/* Else */
PUSHW[ ]\011/* 2 values pushed */
0 17 
MIAP[0]\011/* MoveIndirectAbsPt */
EIF[ ]\011/* EndIf */
PUSHW[ ]\011/* 1 value pushed */
6 
RCVT[ ]\011/* ReadCVT */
IF[ ]\011/* If */
PUSHW[ ]\011/* 1 value pushed */
3 
MDAP[1]\011/* MoveDirectAbsPt */
ELSE[ ]\011/* Else */
PUSHW[ ]\011/* 2 values pushed */
3 13 
MIAP[0]\011/* MoveIndirectAbsPt */
EIF[ ]\011/* EndIf */
PUSHW[ ]\011/* 1 value pushed */
6 
RCVT[ ]\011/* ReadCVT */
IF[ ]\011/* If */
PUSHW[ ]\011/* 1 value pushed */
6 
MDAP[1]\011/* MoveDirectAbsPt */
ELSE[ ]\011/* Else */
PUSHW[ ]\011/* 2 values pushed */
6 13 
MIAP[0]\011/* MoveIndirectAbsPt */
EIF[ ]\011/* EndIf */
PUSHW[ ]\011/* 3 values pushed */
5 3 8 
SRP1[ ]\011/* SetRefPoint1 */
SRP2[ ]\011/* SetRefPoint2 */
IP[ ]\011/* InterpolatePts */
PUSHW[ ]\011/* 3 values pushed */
10 3 8 
SRP1[ ]\011/* SetRefPoint1 */
SRP2[ ]\011/* SetRefPoint2 */
IP[ ]\011/* InterpolatePts */
IUP[0]\011/* InterpolateUntPts */
IUP[1]\011/* InterpolateUntPts */";
};
width = 184;
},
{
hints = (
{
horizontal = 1;
origin = "{0, 13}";
target = "{1, 3}";
type = Stem;
},
{
horizontal = 1;
origin = "{0, 10}";
target = "{1, 0}";
type = Stem;
},
{
horizontal = 1;
origin = "{0, 12}";
target = down;
type = TopGhost;
},
{
origin = "{0, 13}";
target = "{0, 0}";
type = Stem;
},
{
origin = "{0, 2}";
target = "{0, 5}";
type = Stem;
}
);
layerId = "DBA696BD-A337-48FC-9DA1-CD58B2C81FFB";
paths = (
{
closed = 1;
nodes = (
"18 0 LINE",
"18 0 LINE",
"30 0 LINE",
"30 0 LINE",
"34 0 LINE",
"42 8 LINE",
"42 592 LINE",
"34 600 LINE",
"30 600 LINE",
"30 600 LINE",
"18 600 LINE",
"18 690 LINE",
"6 690 LINE",
"6 0 LINE"
);
},
{
closed = 1;
nodes = (
"18 590 LINE",
"30 590 LINE",
"30 11 LINE",
"18 11 LINE"
);
}
);
width = 48;
}
);
note = b;
unicode = 0062;
},
{
color = 4;
glyphname = c;
lastChange = "2020-09-25 15:29:36 +0000";
layers = (
{
hints = (
{
horizontal = 1;
origin = "{0, 11}";
target = "{0, 1}";
type = Stem;
},
{
horizontal = 1;
origin = "{0, 2}";
target = "{0, 8}";
type = Stem;
},
{
origin = "{0, 10}";
target = "{0, 1}";
type = Stem;
},
{
origin = "{0, 0}";
target = "{0, 13}";
type = Stem;
}
);
layerId = "B64BEB12-03E1-41C2-8D0F-395888C0A328";
paths = (
{
closed = 1;
nodes = (
"98 75 LINE",
"86 75 LINE",
"86 525 LINE",
"98 525 LINE",
"98 300 LINE",
"177 300 LINE",
"177 555 LINE",
"138 600 LINE",
"45 600 LINE",
"6 555 LINE",
"6 45 LINE",
"45 0 LINE",
"138 0 LINE",
"177 45 LINE",
"177 288 LINE",
"98 288 LINE"
);
}
);
userData = {
assembly = "PUSHW[ ]\011/* 1 value pushed */
17 
MDAP[1]\011/* MoveDirectAbsPt */
PUSHW[ ]\011/* 1 value pushed */
0 
MDAP[1]\011/* MoveDirectAbsPt */
PUSHW[ ]\011/* 2 values pushed */
1 1 
MIRP[10100]\011/* MoveIndirectRelPt */
PUSHW[ ]\011/* 1 value pushed */
17 
SRP0[ ]\011/* SetRefPoint0 */
PUSHW[ ]\011/* 1 value pushed */
5 
MDRP[10000]\011/* MoveDirectRelPt */
PUSHW[ ]\011/* 1 value pushed */
5 
MDAP[1]\011/* MoveDirectAbsPt */
PUSHW[ ]\011/* 1 value pushed */
1 
SRP0[ ]\011/* SetRefPoint0 */
PUSHW[ ]\011/* 1 value pushed */
9 
MDRP[10000]\011/* MoveDirectRelPt */
PUSHW[ ]\011/* 1 value pushed */
0 
SRP0[ ]\011/* SetRefPoint0 */
PUSHW[ ]\011/* 1 value pushed */
11 
MDRP[10000]\011/* MoveDirectRelPt */
PUSHW[ ]\011/* 1 value pushed */
5 
SRP0[ ]\011/* SetRefPoint0 */
PUSHW[ ]\011/* 2 values pushed */
14 1 
MIRP[10100]\011/* MoveIndirectRelPt */
PUSHW[ ]\011/* 1 value pushed */
0 
SRP0[ ]\011/* SetRefPoint0 */
PUSHW[ ]\011/* 1 value pushed */
15 
MDRP[10000]\011/* MoveDirectRelPt */
PUSHW[ ]\011/* 1 value pushed */
1 
SRP0[ ]\011/* SetRefPoint0 */
PUSHW[ ]\011/* 1 value pushed */
18 
MDRP[11100]\011/* MoveDirectRelPt */
SVTCA[0]\011/* SetFreedomAndProjectionVectorToAxis */
PUSHW[ ]\011/* 1 value pushed */
0 
RCVT[ ]\011/* ReadCVT */
IF[ ]\011/* If */
PUSHW[ ]\011/* 1 value pushed */
3 
MDAP[1]\011/* MoveDirectAbsPt */
ELSE[ ]\011/* Else */
PUSHW[ ]\011/* 2 values pushed */
3 2 
MIAP[0]\011/* MoveIndirectAbsPt */
EIF[ ]\011/* EndIf */
PUSHW[ ]\011/* 3 values pushed */
8 10 3 
CALL[ ]\011/* CallFunction */
PUSHW[ ]\011/* 1 value pushed */
3 
SRP0[ ]\011/* SetRefPoint0 */
PUSHW[ ]\011/* 1 value pushed */
0 
MDRP[11100]\011/* MoveDirectRelPt */
IUP[0]\011/* InterpolateUntPts */
IUP[1]\011/* InterpolateUntPts */";
};
width = 183;
},
{
hints = (
{
horizontal = 1;
origin = "{0, 11}";
target = "{0, 1}";
type = Stem;
},
{
horizontal = 1;
origin = "{0, 8}";
target = "{0, 2}";
type = Stem;
},
{
origin = "{0, 10}";
target = "{0, 1}";
type = Stem;
},
{
origin = "{0, 0}";
target = "{0, 13}";
type = Stem;
}
);
layerId = "DBA696BD-A337-48FC-9DA1-CD58B2C81FFB";
paths = (
{
closed = 1;
nodes = (
"30 11 LINE",
"18 11 LINE",
"18 589 LINE",
"30 589 LINE",
"30 300 LINE",
"42 300 LINE",
"42 592 LINE",
"34 600 LINE",
"14 600 LINE",
"6 592 LINE",
"6 8 LINE",
"14 0 LINE",
"34 0 LINE",
"42 8 LINE",
"42 288 LINE",
"30 288 LINE"
);
}
);
width = 48;
}
);
note = c;
unicode = 0063;
},
{
color = 4;
glyphname = d;
lastChange = "2020-09-25 15:36:33 +0000";
layers = (
{
hints = (
{
horizontal = 1;
origin = "{0, 13}";
target = "{1, 3}";
type = Stem;
},
{
horizontal = 1;
origin = "{0, 10}";
target = "{1, 0}";
type = Stem;
},
{
horizontal = 1;
origin = "{0, 6}";
target = down;
type = TopGhost;
},
{
horizontal = 1;
origin = "{0, 1}";
target = "{1, 3}";
type = Stem;
},
{
horizontal = 1;
origin = "{1, 0}";
target = "{0, 8}";
type = Stem;
},
{
origin = "{0, 12}";
target = "{0, 0}";
type = Stem;
},
{
origin = "{0, 3}";
target = "{0, 4}";
type = Stem;
}
);
layerId = "B64BEB12-03E1-41C2-8D0F-395888C0A328";
paths = (
{
closed = 1;
nodes = (
"86 0 LINE",
"86 25 LINE",
"98 25 LINE",
"98 0 LINE",
"178 0 LINE",
"178 730 LINE",
"98 730 LINE",
"98 575 LINE",
"86 575 LINE",
"86 600 LINE",
"45 600 LINE",
"6 555 LINE",
"6 45 LINE",
"46 0 LINE"
);
},
{
closed = 1;
nodes = (
"86 525 LINE",
"98 525 LINE",
"98 75 LINE",
"86 75 LINE"
);
}
);
userData = {
assembly = "PUSHW[ ]\011/* 1 value pushed */
10 
CALL[ ]\011/* CallFunction */
PUSHW[ ]\011/* 1 value pushed */
16 
MDAP[1]\011/* MoveDirectAbsPt */
PUSHW[ ]\011/* 1 value pushed */
3 
MDAP[1]\011/* MoveDirectAbsPt */
PUSHW[ ]\011/* 1 value pushed */
16 
SRP0[ ]\011/* SetRefPoint0 */
PUSHW[ ]\011/* 1 value pushed */
10 
MDRP[10000]\011/* MoveDirectRelPt */
PUSHW[ ]\011/* 1 value pushed */
10 
MDAP[1]\011/* MoveDirectAbsPt */
PUSHW[ ]\011/* 2 values pushed */
12 9 
MIRP[10100]\011/* MoveIndirectRelPt */
PUSHW[ ]\011/* 1 value pushed */
1 
MDRP[10000]\011/* MoveDirectRelPt */
PUSHW[ ]\011/* 1 value pushed */
1 
MDAP[1]\011/* MoveDirectAbsPt */
PUSHW[ ]\011/* 1 value pushed */
3 
SRP0[ ]\011/* SetRefPoint0 */
PUSHW[ ]\011/* 2 values pushed */
4 9 
MIRP[10100]\011/* MoveIndirectRelPt */
PUSHW[ ]\011/* 1 value pushed */
3 
SRP0[ ]\011/* SetRefPoint0 */
PUSHW[ ]\011/* 1 value pushed */
7 
MDRP[10000]\011/* MoveDirectRelPt */
PUSHW[ ]\011/* 1 value pushed */
12 
SRP0[ ]\011/* SetRefPoint0 */
PUSHW[ ]\011/* 1 value pushed */
8 
MDRP[10000]\011/* MoveDirectRelPt */
PUSHW[ ]\011/* 1 value pushed */
8 
MDAP[1]\011/* MoveDirectAbsPt */
PUSHW[ ]\011/* 1 value pushed */
3 
SRP0[ ]\011/* SetRefPoint0 */
PUSHW[ ]\011/* 1 value pushed */
13 
MDRP[10000]\011/* MoveDirectRelPt */
PUSHW[ ]\011/* 1 value pushed */
4 
SRP0[ ]\011/* SetRefPoint0 */
PUSHW[ ]\011/* 1 value pushed */
17 
MDRP[11100]\011/* MoveDirectRelPt */
SVTCA[0]\011/* SetFreedomAndProjectionVectorToAxis */
PUSHW[ ]\011/* 1 value pushed */
6 
RCVT[ ]\011/* ReadCVT */
IF[ ]\011/* If */
PUSHW[ ]\011/* 1 value pushed */
3 
MDAP[1]\011/* MoveDirectAbsPt */
ELSE[ ]\011/* Else */
PUSHW[ ]\011/* 2 values pushed */
3 19 
MIAP[0]\011/* MoveIndirectAbsPt */
EIF[ ]\011/* EndIf */
PUSHW[ ]\011/* 1 value pushed */
6 
RCVT[ ]\011/* ReadCVT */
IF[ ]\011/* If */
PUSHW[ ]\011/* 1 value pushed */
0 
MDAP[1]\011/* MoveDirectAbsPt */
ELSE[ ]\011/* Else */
PUSHW[ ]\011/* 2 values pushed */
0 17 
MIAP[0]\011/* MoveIndirectAbsPt */
EIF[ ]\011/* EndIf */
PUSHW[ ]\011/* 1 value pushed */
6 
RCVT[ ]\011/* ReadCVT */
IF[ ]\011/* If */
PUSHW[ ]\011/* 1 value pushed */
5 
MDAP[1]\011/* MoveDirectAbsPt */
ELSE[ ]\011/* Else */
PUSHW[ ]\011/* 2 values pushed */
5 13 
MIAP[0]\011/* MoveIndirectAbsPt */
EIF[ ]\011/* EndIf */
PUSHW[ ]\011/* 1 value pushed */
6 
RCVT[ ]\011/* ReadCVT */
IF[ ]\011/* If */
PUSHW[ ]\011/* 1 value pushed */
8 
MDAP[1]\011/* MoveDirectAbsPt */
ELSE[ ]\011/* Else */
PUSHW[ ]\011/* 2 values pushed */
8 13 
MIAP[0]\011/* MoveIndirectAbsPt */
EIF[ ]\011/* EndIf */
PUSHW[ ]\011/* 3 values pushed */
2 5 3 
SRP1[ ]\011/* SetRefPoint1 */
SRP2[ ]\011/* SetRefPoint2 */
IP[ ]\011/* InterpolatePts */
PUSHW[ ]\011/* 3 values pushed */
7 5 3 
SRP1[ ]\011/* SetRefPoint1 */
SRP2[ ]\011/* SetRefPoint2 */
IP[ ]\011/* InterpolatePts */
IUP[0]\011/* InterpolateUntPts */
IUP[1]\011/* InterpolateUntPts */";
};
width = 184;
},
{
hints = (
{
horizontal = 1;
origin = "{0, 13}";
target = "{1, 3}";
type = Stem;
},
{
horizontal = 1;
origin = "{0, 10}";
target = "{1, 0}";
type = Stem;
},
{
horizontal = 1;
origin = "{0, 6}";
target = down;
type = TopGhost;
},
{
origin = "{0, 12}";
target = "{0, 0}";
type = Stem;
},
{
origin = "{0, 2}";
target = "{0, 4}";
type = Stem;
}
);
layerId = "DBA696BD-A337-48FC-9DA1-CD58B2C81FFB";
paths = (
{
closed = 1;
nodes = (
"18 0 LINE",
"18 0 LINE",
"30 0 LINE",
"30 0 LINE",
"42 0 LINE",
"42 690 LINE",
"30 690 LINE",
"30 600 LINE",
"18 600 LINE",
"18 600 LINE",
"14 600 LINE",
"6 592 LINE",
"6 8 LINE",
"14 0 LINE"
);
},
{
closed = 1;
nodes = (
"18 589 LINE",
"30 589 LINE",
"30 11 LINE",
"18 11 LINE"
);
}
);
width = 48;
}
);
note = d;
unicode = 0064;
},
{
color = 4;
glyphname = eth;
lastChange = "2020-06-25 13:01:24 +0000";
layers = (
{
components = (
{
name = d;
}
);
layerId = "B64BEB12-03E1-41C2-8D0F-395888C0A328";
paths = (
{
closed = 1;
nodes = (
"27 612 LINE",
"178 612 LINE",
"178 662 LINE",
"27 662 LINE"
);
}
);
width = 184;
},
{
components = (
{
name = d;
}
);
layerId = "DBA696BD-A337-48FC-9DA1-CD58B2C81FFB";
paths = (
{
closed = 1;
nodes = (
"10 612 LINE",
"41 612 LINE",
"41 624 LINE",
"10 624 LINE"
);
}
);
width = 48;
}
);
unicode = 00F0;
},
{
color = 7;
glyphname = dcroat;
lastChange = "2020-10-04 18:00:51 +0000";
layers = (
{
components = (
{
name = d;
}
);
layerId = "DBA696BD-A337-48FC-9DA1-CD58B2C81FFB";
paths = (
{
closed = 1;
nodes = (
"14 612 LINE",
"38 612 LINE",
"38 624 LINE",
"14 624 LINE"
);
}
);
width = 48;
},
{
components = (
{
name = d;
}
);
layerId = "B64BEB12-03E1-41C2-8D0F-395888C0A328";
paths = (
{
closed = 1;
nodes = (
"45 612 LINE",
"178 612 LINE",
"178 687 LINE",
"45 687 LINE"
);
}
);
width = 184;
}
);
unicode = 0111;
},
{
color = 4;
glyphname = e;
lastChange = "2020-09-25 16:07:11 +0000";
layers = (
{
hints = (
{
horizontal = 1;
origin = "{0, 3}";
target = "{0, 9}";
type = Stem;
},
{
horizontal = 1;
origin = "{0, 10}";
target = "{1, 3}";
type = Stem;
},
{
horizontal = 1;
origin = "{0, 0}";
target = "{1, 0}";
type = Stem;
},
{
origin = "{0, 2}";
target = "{0, 9}";
type = Stem;
},
{
origin = "{0, 8}";
target = "{0, 5}";
type = Stem;
}
);
layerId = "B64BEB12-03E1-41C2-8D0F-395888C0A328";
paths = (
{
closed = 1;
nodes = (
"45 600 LINE",
"6 555 LINE",
"6 45 LINE",
"45 0 LINE",
"139 0 LINE",
"178 45 LINE",
"178 288 LINE",
"98 288 LINE",
"98 75 LINE",
"86 75 LINE",
"86 300 LINE",
"178 300 LINE",
"178 555 LINE",
"138 600 LINE"
);
},
{
closed = 1;
nodes = (
"86 525 LINE",
"98 525 LINE",
"98 375 LINE",
"86 375 LINE"
);
}
);
userData = {
assembly = "PUSHW[ ]\011/* 1 value pushed */
18 
MDAP[1]\011/* MoveDirectAbsPt */
PUSHW[ ]\011/* 1 value pushed */
5 
MDAP[1]\011/* MoveDirectAbsPt */
PUSHW[ ]\011/* 2 values pushed */
8 1 
MIRP[10100]\011/* MoveIndirectRelPt */
PUSHW[ ]\011/* 1 value pushed */
1 
MDRP[10000]\011/* MoveDirectRelPt */
PUSHW[ ]\011/* 1 value pushed */
18 
SRP0[ ]\011/* SetRefPoint0 */
PUSHW[ ]\011/* 1 value pushed */
11 
MDRP[10000]\011/* MoveDirectRelPt */
PUSHW[ ]\011/* 1 value pushed */
11 
MDAP[1]\011/* MoveDirectAbsPt */
PUSHW[ ]\011/* 2 values pushed */
4 1 
MIRP[10100]\011/* MoveIndirectRelPt */
PUSHW[ ]\011/* 1 value pushed */
14 
MDRP[10000]\011/* MoveDirectRelPt */
PUSHW[ ]\011/* 1 value pushed */
5 
SRP0[ ]\011/* SetRefPoint0 */
PUSHW[ ]\011/* 1 value pushed */
15 
MDRP[10000]\011/* MoveDirectRelPt */
PUSHW[ ]\011/* 1 value pushed */
8 
SRP0[ ]\011/* SetRefPoint0 */
PUSHW[ ]\011/* 1 value pushed */
19 
MDRP[11100]\011/* MoveDirectRelPt */
SVTCA[0]\011/* SetFreedomAndProjectionVectorToAxis */
PUSHW[ ]\011/* 1 value pushed */
0 
MDAP[1]\011/* MoveDirectAbsPt */
PUSHW[ ]\011/* 1 value pushed */
0 
RCVT[ ]\011/* ReadCVT */
IF[ ]\011/* If */
PUSHW[ ]\011/* 1 value pushed */
9 
MDAP[1]\011/* MoveDirectAbsPt */
ELSE[ ]\011/* Else */
PUSHW[ ]\011/* 2 values pushed */
9 2 
MIAP[0]\011/* MoveIndirectAbsPt */
EIF[ ]\011/* EndIf */
PUSHW[ ]\011/* 1 value pushed */
6 
MDRP[11100]\011/* MoveDirectRelPt */
IUP[0]\011/* InterpolateUntPts */
IUP[1]\011/* InterpolateUntPts */";
};
width = 184;
},
{
hints = (
{
horizontal = 1;
origin = "{0, 3}";
target = "{0, 9}";
type = Stem;
},
{
horizontal = 1;
origin = "{0, 10}";
target = "{1, 3}";
type = Stem;
},
{
horizontal = 1;
origin = "{0, 0}";
target = "{1, 0}";
type = Stem;
},
{
origin = "{0, 2}";
target = "{0, 9}";
type = Stem;
},
{
origin = "{0, 8}";
target = "{0, 5}";
type = Stem;
}
);
layerId = "DBA696BD-A337-48FC-9DA1-CD58B2C81FFB";
paths = (
{
closed = 1;
nodes = (
"14 600 LINE",
"6 592 LINE",
"6 8 LINE",
"14 0 LINE",
"34 0 LINE",
"42 8 LINE",
"42 288 LINE",
"30 288 LINE",
"30 11 LINE",
"18 11 LINE",
"18 300 LINE",
"42 300 LINE",
"42 592 LINE",
"34 600 LINE"
);
},
{
closed = 1;
nodes = (
"18 589 LINE",
"30 589 LINE",
"30 311 LINE",
"18 311 LINE"
);
}
);
width = 48;
}
);
note = e;
unicode = 0065;
},
{
color = 4;
glyphname = f;
lastChange = "2020-09-25 16:07:45 +0000";
layers = (
{
hints = (
{
horizontal = 1;
origin = "{0, 7}";
target = up;
type = BottomGhost;
},
{
horizontal = 1;
origin = "{0, 4}";
target = down;
type = TopGhost;
},
{
horizontal = 1;
origin = "{0, 1}";
target = "{0, 13}";
type = Stem;
},
{
horizontal = 1;
origin = "{0, 4}";
target = "{0, 5}";
type = Stem;
},
{
origin = "{0, 7}";
target = "{0, 8}";
type = Stem;
}
);
layerId = "B64BEB12-03E1-41C2-8D0F-395888C0A328";
paths = (
{
closed = 1;
nodes = (
"92 730 LINE",
"45 730 LINE",
"6 685 LINE",
"6 600 LINE",
"0 600 LINE",
"0 525 LINE",
"6 525 LINE",
"6 0 LINE",
"86 0 LINE",
"86 525 LINE",
"92 525 LINE",
"92 600 LINE",
"86 600 LINE",
"86 655 LINE",
"92 655 LINE"
);
}
);
userData = {
assembly = "PUSHW[ ]\011/* 1 value pushed */
10 
CALL[ ]\011/* CallFunction */
PUSHW[ ]\011/* 4 values pushed */
12 12 5 14 
CALL[ ]\011/* CallFunction */
PUSHW[ ]\011/* 1 value pushed */
12 
SRP0[ ]\011/* SetRefPoint0 */
PUSHW[ ]\011/* 1 value pushed */
0 
MDRP[10000]\011/* MoveDirectRelPt */
PUSHW[ ]\011/* 3 values pushed */
3 5 12 
SRP1[ ]\011/* SetRefPoint1 */
SRP2[ ]\011/* SetRefPoint2 */
IP[ ]\011/* InterpolatePts */
PUSHW[ ]\011/* 1 value pushed */
3 
MDAP[1]\011/* MoveDirectAbsPt */
PUSHW[ ]\011/* 1 value pushed */
7 
MDRP[10000]\011/* MoveDirectRelPt */
PUSHW[ ]\011/* 1 value pushed */
3 
SRP0[ ]\011/* SetRefPoint0 */
PUSHW[ ]\011/* 2 values pushed */
14 9 
MIRP[10100]\011/* MoveIndirectRelPt */
PUSHW[ ]\011/* 1 value pushed */
9 
MDRP[10000]\011/* MoveDirectRelPt */
PUSHW[ ]\011/* 1 value pushed */
12 
SRP0[ ]\011/* SetRefPoint0 */
PUSHW[ ]\011/* 1 value pushed */
16 
MDRP[11100]\011/* MoveDirectRelPt */
SVTCA[0]\011/* SetFreedomAndProjectionVectorToAxis */
PUSHW[ ]\011/* 1 value pushed */
6 
RCVT[ ]\011/* ReadCVT */
IF[ ]\011/* If */
PUSHW[ ]\011/* 1 value pushed */
8 
MDAP[1]\011/* MoveDirectAbsPt */
ELSE[ ]\011/* Else */
PUSHW[ ]\011/* 2 values pushed */
8 19 
MIAP[0]\011/* MoveIndirectAbsPt */
EIF[ ]\011/* EndIf */
PUSHW[ ]\011/* 1 value pushed */
6 
RCVT[ ]\011/* ReadCVT */
IF[ ]\011/* If */
PUSHW[ ]\011/* 1 value pushed */
6 
MDAP[1]\011/* MoveDirectAbsPt */
ELSE[ ]\011/* Else */
PUSHW[ ]\011/* 2 values pushed */
6 17 
MIAP[0]\011/* MoveIndirectAbsPt */
EIF[ ]\011/* EndIf */
PUSHW[ ]\011/* 1 value pushed */
6 
RCVT[ ]\011/* ReadCVT */
IF[ ]\011/* If */
PUSHW[ ]\011/* 1 value pushed */
10 
MDAP[1]\011/* MoveDirectAbsPt */
ELSE[ ]\011/* Else */
PUSHW[ ]\011/* 2 values pushed */
10 17 
MIAP[0]\011/* MoveIndirectAbsPt */
EIF[ ]\011/* EndIf */
PUSHW[ ]\011/* 1 value pushed */
6 
RCVT[ ]\011/* ReadCVT */
IF[ ]\011/* If */
PUSHW[ ]\011/* 1 value pushed */
1 
MDAP[1]\011/* MoveDirectAbsPt */
ELSE[ ]\011/* Else */
PUSHW[ ]\011/* 2 values pushed */
1 13 
MIAP[0]\011/* MoveIndirectAbsPt */
EIF[ ]\011/* EndIf */
PUSHW[ ]\011/* 1 value pushed */
6 
SRP0[ ]\011/* SetRefPoint0 */
PUSHW[ ]\011/* 2 values pushed */
4 8 
MIRP[10100]\011/* MoveIndirectRelPt */
PUSHW[ ]\011/* 1 value pushed */
12 
MDRP[10000]\011/* MoveDirectRelPt */
PUSHW[ ]\011/* 1 value pushed */
13 
MDRP[10000]\011/* MoveDirectRelPt */
IUP[0]\011/* InterpolateUntPts */
IUP[1]\011/* InterpolateUntPts */";
};
width = 92;
},
{
hints = (
{
horizontal = 1;
origin = "{0, 7}";
target = up;
type = BottomGhost;
},
{
horizontal = 1;
origin = "{0, 4}";
target = "{0, 5}";
type = Stem;
},
{
horizontal = 1;
origin = "{0, 1}";
target = "{0, 13}";
type = Stem;
},
{
origin = "{0, 7}";
target = "{0, 8}";
type = Stem;
}
);
layerId = "DBA696BD-A337-48FC-9DA1-CD58B2C81FFB";
paths = (
{
closed = 1;
nodes = (
"24 690 LINE",
"14 690 LINE",
"6 682 LINE",
"6 600 LINE",
"0 600 LINE",
"0 589 LINE",
"6 589 LINE",
"6 0 LINE",
"18 0 LINE",
"18 589 LINE",
"24 589 LINE",
"24 600 LINE",
"18 600 LINE",
"18 679 LINE",
"24 679 LINE"
);
}
);
width = 24;
}
);
note = t;
unicode = 0066;
},
{
color = 4;
glyphname = g;
lastChange = "2020-10-05 08:43:17 +0000";
layers = (
{
hints = (
{
horizontal = 1;
origin = "{0, 21}";
target = "{0, 19}";
type = Stem;
},
{
horizontal = 1;
origin = "{0, 13}";
target = "{1, 3}";
type = Stem;
},
{
horizontal = 1;
origin = "{0, 8}";
target = "{1, 0}";
type = Stem;
},
{
horizontal = 1;
origin = "{1, 0}";
target = "{0, 6}";
type = Stem;
},
{
horizontal = 1;
origin = "{0, 11}";
target = "{1, 3}";
type = Stem;
},
{
horizontal = 1;
origin = "{0, 21}";
target = "{0, 17}";
type = Stem;
},
{
origin = "{0, 16}";
target = "{0, 1}";
type = Stem;
},
{
origin = "{0, 20}";
target = "{0, 17}";
type = Stem;
}
);
layerId = "B64BEB12-03E1-41C2-8D0F-395888C0A328";
paths = (
{
closed = 1;
nodes = (
"139 -130 LINE",
"178 -85 LINE",
"178 555 LINE",
"178 600 LINE",
"98 600 LINE",
"98 575 LINE",
"86 575 LINE",
"86 600 LINE",
"45 600 LINE",
"6 555 LINE",
"6 45 LINE",
"46 0 LINE",
"86 0 LINE",
"86 25 LINE",
"98 25 LINE",
"98 0 LINE",
"98 -55 LINE",
"86 -55 LINE",
"86 -12 LINE",
"6 -12 LINE",
"6 -85 LINE",
"45 -130 LINE"
);
},
{
closed = 1;
nodes = (
"86 525 LINE",
"98 525 LINE",
"98 75 LINE",
"86 75 LINE"
);
}
);
userData = {
assembly = "PUSHW[ ]\011/* 1 value pushed */
10 
CALL[ ]\011/* CallFunction */
PUSHW[ ]\011/* 1 value pushed */
19 
MDAP[1]\011/* MoveDirectAbsPt */
PUSHW[ ]\011/* 1 value pushed */
3 
MDAP[1]\011/* MoveDirectAbsPt */
PUSHW[ ]\011/* 1 value pushed */
19 
SRP0[ ]\011/* SetRefPoint0 */
PUSHW[ ]\011/* 1 value pushed */
6 
MDRP[10000]\011/* MoveDirectRelPt */
PUSHW[ ]\011/* 1 value pushed */
6 
MDAP[1]\011/* MoveDirectAbsPt */
PUSHW[ ]\011/* 1 value pushed */
1 
MDRP[10000]\011/* MoveDirectRelPt */
PUSHW[ ]\011/* 1 value pushed */
6 
SRP0[ ]\011/* SetRefPoint0 */
PUSHW[ ]\011/* 2 values pushed */
17 9 
MIRP[10100]\011/* MoveIndirectRelPt */
PUSHW[ ]\011/* 1 value pushed */
9 
MDRP[10000]\011/* MoveDirectRelPt */
PUSHW[ ]\011/* 1 value pushed */
3 
SRP0[ ]\011/* SetRefPoint0 */
PUSHW[ ]\011/* 1 value pushed */
10 
MDRP[10000]\011/* MoveDirectRelPt */
PUSHW[ ]\011/* 1 value pushed */
3 
SRP0[ ]\011/* SetRefPoint0 */
PUSHW[ ]\011/* 2 values pushed */
14 9 
MIRP[10100]\011/* MoveIndirectRelPt */
PUSHW[ ]\011/* 1 value pushed */
12 
MDRP[10000]\011/* MoveDirectRelPt */
PUSHW[ ]\011/* 1 value pushed */
12 
MDAP[1]\011/* MoveDirectAbsPt */
PUSHW[ ]\011/* 1 value pushed */
3 
SRP0[ ]\011/* SetRefPoint0 */
PUSHW[ ]\011/* 1 value pushed */
15 
MDRP[10000]\011/* MoveDirectRelPt */
PUSHW[ ]\011/* 1 value pushed */
14 
SRP0[ ]\011/* SetRefPoint0 */
PUSHW[ ]\011/* 1 value pushed */
20 
MDRP[11100]\011/* MoveDirectRelPt */
SVTCA[0]\011/* SetFreedomAndProjectionVectorToAxis */
PUSHW[ ]\011/* 1 value pushed */
6 
RCVT[ ]\011/* ReadCVT */
IF[ ]\011/* If */
PUSHW[ ]\011/* 1 value pushed */
8 
MDAP[1]\011/* MoveDirectAbsPt */
ELSE[ ]\011/* Else */
PUSHW[ ]\011/* 2 values pushed */
8 17 
MIAP[0]\011/* MoveIndirectAbsPt */
EIF[ ]\011/* EndIf */
PUSHW[ ]\011/* 1 value pushed */
6 
RCVT[ ]\011/* ReadCVT */
IF[ ]\011/* If */
PUSHW[ ]\011/* 1 value pushed */
11 
MDAP[1]\011/* MoveDirectAbsPt */
ELSE[ ]\011/* Else */
PUSHW[ ]\011/* 2 values pushed */
11 17 
MIAP[0]\011/* MoveIndirectAbsPt */
EIF[ ]\011/* EndIf */
PUSHW[ ]\011/* 1 value pushed */
6 
RCVT[ ]\011/* ReadCVT */
IF[ ]\011/* If */
PUSHW[ ]\011/* 1 value pushed */
4 
MDAP[1]\011/* MoveDirectAbsPt */
ELSE[ ]\011/* Else */
PUSHW[ ]\011/* 2 values pushed */
4 13 
MIAP[0]\011/* MoveIndirectAbsPt */
EIF[ ]\011/* EndIf */
PUSHW[ ]\011/* 1 value pushed */
6 
RCVT[ ]\011/* ReadCVT */
IF[ ]\011/* If */
PUSHW[ ]\011/* 1 value pushed */
0 
MDAP[1]\011/* MoveDirectAbsPt */
ELSE[ ]\011/* Else */
PUSHW[ ]\011/* 2 values pushed */
0 15 
MIAP[0]\011/* MoveIndirectAbsPt */
EIF[ ]\011/* EndIf */
PUSHW[ ]\011/* 2 values pushed */
2 8 
MIRP[10100]\011/* MoveIndirectRelPt */
PUSHW[ ]\011/* 3 values pushed */
10 0 8 
SRP1[ ]\011/* SetRefPoint1 */
SRP2[ ]\011/* SetRefPoint2 */
IP[ ]\011/* InterpolatePts */
IUP[0]\011/* InterpolateUntPts */
IUP[1]\011/* InterpolateUntPts */";
};
width = 184;
},
{
hints = (
{
horizontal = 1;
origin = "{0, 21}";
target = "{0, 17}";
type = Stem;
},
{
horizontal = 1;
origin = "{0, 11}";
target = "{1, 3}";
type = Stem;
},
{
horizontal = 1;
origin = "{0, 8}";
target = "{1, 0}";
type = Stem;
},
{
origin = "{0, 20}";
target = "{0, 17}";
type = Stem;
},
{
origin = "{0, 16}";
target = "{0, 1}";
type = Stem;
}
);
layerId = "DBA696BD-A337-48FC-9DA1-CD58B2C81FFB";
paths = (
{
closed = 1;
nodes = (
"34 -90 LINE",
"42 -82 LINE",
"42 600 LINE",
"42 600 LINE",
"30 600 LINE",
"30 600 LINE",
"18 600 LINE",
"18 600 LINE",
"14 600 LINE",
"6 592 LINE",
"6 8 LINE",
"14 0 LINE",
"18 0 LINE",
"18 0 LINE",
"30 0 LINE",
"30 0 LINE",
"30 -78 LINE",
"18 -78 LINE",
"18 -12 LINE",
"6 -12 LINE",
"6 -82 LINE",
"14 -90 LINE"
);
},
{
closed = 1;
nodes = (
"18 589 LINE",
"30 589 LINE",
"30 11 LINE",
"18 11 LINE"
);
}
);
width = 48;
}
);
note = g;
unicode = 0067;
},
{
color = 4;
glyphname = h;
lastChange = "2020-09-25 16:07:14 +0000";
layers = (
{
hints = (
{
horizontal = 1;
origin = "{0, 11}";
target = up;
type = BottomGhost;
},
{
horizontal = 1;
origin = "{0, 6}";
target = "{0, 0}";
type = Stem;
},
{
horizontal = 1;
origin = "{0, 10}";
target = down;
type = TopGhost;
},
{
horizontal = 1;
origin = "{0, 0}";
target = "{0, 8}";
type = Stem;
},
{
origin = "{0, 11}";
target = "{0, 12}";
type = Stem;
},
{
origin = "{0, 2}";
target = "{0, 3}";
type = Stem;
}
);
layerId = "B64BEB12-03E1-41C2-8D0F-395888C0A328";
paths = (
{
closed = 1;
nodes = (
"86 525 LINE",
"98 525 LINE",
"98 0 LINE",
"178 0 LINE",
"178 555 LINE",
"139 600 LINE",
"98 600 LINE",
"98 575 LINE",
"86 575 LINE",
"86 730 LINE",
"6 730 LINE",
"6 0 LINE",
"86 0 LINE"
);
}
);
userData = {
assembly = "PUSHW[ ]\011/* 1 value pushed */
12 
MDAP[1]\011/* MoveDirectAbsPt */
PUSHW[ ]\011/* 1 value pushed */
9 
MDAP[1]\011/* MoveDirectAbsPt */
PUSHW[ ]\011/* 1 value pushed */
12 
SRP0[ ]\011/* SetRefPoint0 */
PUSHW[ ]\011/* 1 value pushed */
1 
MDRP[10000]\011/* MoveDirectRelPt */
PUSHW[ ]\011/* 1 value pushed */
1 
MDAP[1]\011/* MoveDirectAbsPt */
PUSHW[ ]\011/* 2 values pushed */
0 1 
MIRP[10100]\011/* MoveIndirectRelPt */
PUSHW[ ]\011/* 1 value pushed */
3 
MDRP[10000]\011/* MoveDirectRelPt */
PUSHW[ ]\011/* 1 value pushed */
9 
SRP0[ ]\011/* SetRefPoint0 */
PUSHW[ ]\011/* 1 value pushed */
5 
MDRP[10000]\011/* MoveDirectRelPt */
PUSHW[ ]\011/* 1 value pushed */
5 
MDAP[1]\011/* MoveDirectAbsPt */
PUSHW[ ]\011/* 1 value pushed */
9 
SRP0[ ]\011/* SetRefPoint0 */
PUSHW[ ]\011/* 2 values pushed */
8 1 
MIRP[10100]\011/* MoveIndirectRelPt */
PUSHW[ ]\011/* 1 value pushed */
13 
MDRP[11100]\011/* MoveDirectRelPt */
SVTCA[0]\011/* SetFreedomAndProjectionVectorToAxis */
PUSHW[ ]\011/* 1 value pushed */
2 
MDAP[1]\011/* MoveDirectAbsPt */
PUSHW[ ]\011/* 1 value pushed */
0 
RCVT[ ]\011/* ReadCVT */
IF[ ]\011/* If */
PUSHW[ ]\011/* 1 value pushed */
0 
MDAP[1]\011/* MoveDirectAbsPt */
ELSE[ ]\011/* Else */
PUSHW[ ]\011/* 2 values pushed */
0 2 
MIAP[0]\011/* MoveIndirectAbsPt */
EIF[ ]\011/* EndIf */
PUSHW[ ]\011/* 1 value pushed */
0 
RCVT[ ]\011/* ReadCVT */
IF[ ]\011/* If */
PUSHW[ ]\011/* 1 value pushed */
8 
MDAP[1]\011/* MoveDirectAbsPt */
ELSE[ ]\011/* Else */
PUSHW[ ]\011/* 2 values pushed */
8 2 
MIAP[0]\011/* MoveIndirectAbsPt */
EIF[ ]\011/* EndIf */
PUSHW[ ]\011/* 3 values pushed */
4 0 2 
SRP1[ ]\011/* SetRefPoint1 */
SRP2[ ]\011/* SetRefPoint2 */
IP[ ]\011/* InterpolatePts */
IUP[0]\011/* InterpolateUntPts */
IUP[1]\011/* InterpolateUntPts */";
};
width = 184;
},
{
hints = (
{
horizontal = 1;
origin = "{0, 11}";
target = up;
type = BottomGhost;
},
{
horizontal = 1;
origin = "{0, 8}";
target = "{0, 0}";
type = Stem;
},
{
horizontal = 1;
origin = "{0, 10}";
target = down;
type = TopGhost;
},
{
origin = "{0, 11}";
target = "{0, 12}";
type = Stem;
},
{
origin = "{0, 2}";
target = "{0, 3}";
type = Stem;
}
);
layerId = "DBA696BD-A337-48FC-9DA1-CD58B2C81FFB";
paths = (
{
closed = 1;
nodes = (
"18 589 LINE",
"30 589 LINE",
"30 0 LINE",
"42 0 LINE",
"42 592 LINE",
"34 600 LINE",
"30 600 LINE",
"30 600 LINE",
"18 600 LINE",
"18 690 LINE",
"6 690 LINE",
"6 0 LINE",
"18 0 LINE"
);
}
);
width = 48;
}
);
note = h;
unicode = 0068;
},
{
color = 4;
glyphname = i;
lastChange = "2020-10-04 18:11:43 +0000";
layers = (
{
hints = (
{
horizontal = 1;
origin = "{1, 2}";
target = "{1, 1}";
type = Stem;
},
{
horizontal = 1;
origin = "{0, 0}";
target = "{1, 1}";
type = Stem;
},
{
origin = "{0, 3}";
target = "{1, 3}";
type = Stem;
}
);
layerId = "B64BEB12-03E1-41C2-8D0F-395888C0A328";
paths = (
{
closed = 1;
nodes = (
"6 600 LINE",
"86 600 LINE",
"86 0 LINE",
"6 0 LINE"
);
},
{
closed = 1;
nodes = (
"87 730 LINE",
"6 730 LINE",
"6 612 LINE",
"87 612 LINE"
);
}
);
userData = {
assembly = "PUSHW[ ]\011/* 1 value pushed */
10 
CALL[ ]\011/* CallFunction */
PUSHW[ ]\011/* 4 values pushed */
4 9 5 14 
CALL[ ]\011/* CallFunction */
PUSHW[ ]\011/* 1 value pushed */
5 
SRP0[ ]\011/* SetRefPoint0 */
PUSHW[ ]\011/* 1 value pushed */
0 
MDRP[10000]\011/* MoveDirectRelPt */
PUSHW[ ]\011/* 1 value pushed */
4 
SRP0[ ]\011/* SetRefPoint0 */
PUSHW[ ]\011/* 1 value pushed */
1 
MDRP[10000]\011/* MoveDirectRelPt */
PUSHW[ ]\011/* 1 value pushed */
1 
MDAP[1]\011/* MoveDirectAbsPt */
PUSHW[ ]\011/* 1 value pushed */
4 
SRP0[ ]\011/* SetRefPoint0 */
PUSHW[ ]\011/* 1 value pushed */
9 
MDRP[11100]\011/* MoveDirectRelPt */
SVTCA[0]\011/* SetFreedomAndProjectionVectorToAxis */
PUSHW[ ]\011/* 1 value pushed */
6 
RCVT[ ]\011/* ReadCVT */
IF[ ]\011/* If */
PUSHW[ ]\011/* 1 value pushed */
2 
MDAP[1]\011/* MoveDirectAbsPt */
ELSE[ ]\011/* Else */
PUSHW[ ]\011/* 2 values pushed */
2 17 
MIAP[0]\011/* MoveIndirectAbsPt */
EIF[ ]\011/* EndIf */
PUSHW[ ]\011/* 1 value pushed */
6 
RCVT[ ]\011/* ReadCVT */
IF[ ]\011/* If */
PUSHW[ ]\011/* 1 value pushed */
6 
MDAP[1]\011/* MoveDirectAbsPt */
ELSE[ ]\011/* Else */
PUSHW[ ]\011/* 2 values pushed */
6 19 
MIAP[0]\011/* MoveIndirectAbsPt */
EIF[ ]\011/* EndIf */
PUSHW[ ]\011/* 1 value pushed */
6 
RCVT[ ]\011/* ReadCVT */
IF[ ]\011/* If */
PUSHW[ ]\011/* 1 value pushed */
0 
MDAP[1]\011/* MoveDirectAbsPt */
ELSE[ ]\011/* Else */
PUSHW[ ]\011/* 2 values pushed */
0 13 
MIAP[0]\011/* MoveIndirectAbsPt */
EIF[ ]\011/* EndIf */
PUSHW[ ]\011/* 1 value pushed */
6 
SRP0[ ]\011/* SetRefPoint0 */
PUSHW[ ]\011/* 2 values pushed */
4 8 
MIRP[10100]\011/* MoveIndirectRelPt */
IUP[0]\011/* InterpolateUntPts */
IUP[1]\011/* InterpolateUntPts */";
};
width = 92;
},
{
hints = (
{
horizontal = 1;
origin = "{1, 2}";
target = "{1, 1}";
type = Stem;
},
{
horizontal = 1;
origin = "{0, 0}";
target = "{1, 1}";
type = Stem;
},
{
origin = "{0, 3}";
target = "{1, 3}";
type = Stem;
}
);
layerId = "DBA696BD-A337-48FC-9DA1-CD58B2C81FFB";
paths = (
{
closed = 1;
nodes = (
"6 600 LINE",
"18 600 LINE",
"18 0 LINE",
"6 0 LINE"
);
},
{
closed = 1;
nodes = (
"18 690 LINE",
"6 690 LINE",
"6 612 LINE",
"18 612 LINE"
);
}
);
width = 24;
}
);
note = i;
unicode = 0069;
},
{
color = 4;
glyphname = idotless;
lastChange = "2020-06-25 13:01:24 +0000";
layers = (
{
layerId = "B64BEB12-03E1-41C2-8D0F-395888C0A328";
paths = (
{
closed = 1;
nodes = (
"6 600 LINE",
"86 600 LINE",
"86 0 LINE",
"6 0 LINE"
);
}
);
userData = {
assembly = "PUSHW[ ]\011/* 1 value pushed */
10 
CALL[ ]\011/* CallFunction */
PUSHW[ ]\011/* 4 values pushed */
4 9 5 14 
CALL[ ]\011/* CallFunction */
PUSHW[ ]\011/* 1 value pushed */
5 
SRP0[ ]\011/* SetRefPoint0 */
PUSHW[ ]\011/* 1 value pushed */
0 
MDRP[10000]\011/* MoveDirectRelPt */
PUSHW[ ]\011/* 1 value pushed */
4 
SRP0[ ]\011/* SetRefPoint0 */
PUSHW[ ]\011/* 1 value pushed */
1 
MDRP[10000]\011/* MoveDirectRelPt */
PUSHW[ ]\011/* 1 value pushed */
1 
MDAP[1]\011/* MoveDirectAbsPt */
PUSHW[ ]\011/* 1 value pushed */
4 
SRP0[ ]\011/* SetRefPoint0 */
PUSHW[ ]\011/* 1 value pushed */
9 
MDRP[11100]\011/* MoveDirectRelPt */
SVTCA[0]\011/* SetFreedomAndProjectionVectorToAxis */
PUSHW[ ]\011/* 1 value pushed */
6 
RCVT[ ]\011/* ReadCVT */
IF[ ]\011/* If */
PUSHW[ ]\011/* 1 value pushed */
2 
MDAP[1]\011/* MoveDirectAbsPt */
ELSE[ ]\011/* Else */
PUSHW[ ]\011/* 2 values pushed */
2 17 
MIAP[0]\011/* MoveIndirectAbsPt */
EIF[ ]\011/* EndIf */
PUSHW[ ]\011/* 1 value pushed */
6 
RCVT[ ]\011/* ReadCVT */
IF[ ]\011/* If */
PUSHW[ ]\011/* 1 value pushed */
6 
MDAP[1]\011/* MoveDirectAbsPt */
ELSE[ ]\011/* Else */
PUSHW[ ]\011/* 2 values pushed */
6 19 
MIAP[0]\011/* MoveIndirectAbsPt */
EIF[ ]\011/* EndIf */
PUSHW[ ]\011/* 1 value pushed */
6 
RCVT[ ]\011/* ReadCVT */
IF[ ]\011/* If */
PUSHW[ ]\011/* 1 value pushed */
0 
MDAP[1]\011/* MoveDirectAbsPt */
ELSE[ ]\011/* Else */
PUSHW[ ]\011/* 2 values pushed */
0 13 
MIAP[0]\011/* MoveIndirectAbsPt */
EIF[ ]\011/* EndIf */
PUSHW[ ]\011/* 1 value pushed */
6 
SRP0[ ]\011/* SetRefPoint0 */
PUSHW[ ]\011/* 2 values pushed */
4 8 
MIRP[10100]\011/* MoveIndirectRelPt */
IUP[0]\011/* InterpolateUntPts */
IUP[1]\011/* InterpolateUntPts */";
};
width = 92;
},
{
layerId = "DBA696BD-A337-48FC-9DA1-CD58B2C81FFB";
paths = (
{
closed = 1;
nodes = (
"6 600 LINE",
"18 600 LINE",
"18 0 LINE",
"6 0 LINE"
);
}
);
width = 24;
}
);
note = i;
unicode = 0131;
},
{
color = 7;
glyphname = iogonek;
lastChange = "2020-10-04 18:12:34 +0000";
layers = (
{
components = (
{
name = ogonek;
transform = "{1, 0, 0, 1, -24, 0}";
}
);
layerId = "DBA696BD-A337-48FC-9DA1-CD58B2C81FFB";
paths = (
{
closed = 1;
nodes = (
"18 0 LINE",
"18 600 LINE",
"6 600 LINE",
"6 0 LINE"
);
},
{
closed = 1;
nodes = (
"18 612 LINE",
"18 690 LINE",
"6 690 LINE",
"6 612 LINE"
);
}
);
width = 24;
},
{
components = (
{
name = ogonek;
transform = "{1, 0, 0, 1, 17, 0}";
}
);
layerId = "B64BEB12-03E1-41C2-8D0F-395888C0A328";
paths = (
{
closed = 1;
nodes = (
"86 0 LINE",
"86 600 LINE",
"6 600 LINE",
"6 0 LINE"
);
},
{
closed = 1;
nodes = (
"87 612 LINE",
"87 730 LINE",
"6 730 LINE",
"6 612 LINE"
);
}
);
width = 93;
}
);
unicode = 012F;
},
{
color = 4;
glyphname = j;
lastChange = "2020-09-25 16:07:39 +0000";
layers = (
{
hints = (
{
horizontal = 1;
origin = "{1, 2}";
target = "{1, 1}";
type = Stem;
},
{
horizontal = 1;
origin = "{0, 1}";
target = "{1, 1}";
type = Stem;
},
{
origin = "{0, 4}";
target = "{0, 3}";
type = Stem;
}
);
layerId = "B64BEB12-03E1-41C2-8D0F-395888C0A328";
paths = (
{
closed = 1;
nodes = (
"6 -15 LINE",
"6 600 LINE",
"86 600 LINE",
"86 -130 LINE",
"6 -130 LINE"
);
},
{
closed = 1;
nodes = (
"86 730 LINE",
"6 730 LINE",
"6 612 LINE",
"86 612 LINE"
);
}
);
userData = {
assembly = "PUSHW[ ]\011/* 1 value pushed */
10 
CALL[ ]\011/* CallFunction */
PUSHW[ ]\011/* 4 values pushed */
3 12 0 14 
CALL[ ]\011/* CallFunction */
PUSHW[ ]\011/* 1 value pushed */
3 
SRP0[ ]\011/* SetRefPoint0 */
PUSHW[ ]\011/* 2 values pushed */
5 9 
MIRP[10100]\011/* MoveIndirectRelPt */
PUSHW[ ]\011/* 1 value pushed */
3 
SRP0[ ]\011/* SetRefPoint0 */
PUSHW[ ]\011/* 1 value pushed */
7 
MDRP[10000]\011/* MoveDirectRelPt */
PUSHW[ ]\011/* 1 value pushed */
5 
SRP0[ ]\011/* SetRefPoint0 */
PUSHW[ ]\011/* 1 value pushed */
8 
MDRP[10000]\011/* MoveDirectRelPt */
PUSHW[ ]\011/* 1 value pushed */
8 
MDAP[1]\011/* MoveDirectAbsPt */
PUSHW[ ]\011/* 1 value pushed */
4 
SRP0[ ]\011/* SetRefPoint0 */
PUSHW[ ]\011/* 1 value pushed */
10 
MDRP[10000]\011/* MoveDirectRelPt */
PUSHW[ ]\011/* 1 value pushed */
3 
SRP0[ ]\011/* SetRefPoint0 */
PUSHW[ ]\011/* 1 value pushed */
12 
MDRP[11100]\011/* MoveDirectRelPt */
SVTCA[0]\011/* SetFreedomAndProjectionVectorToAxis */
PUSHW[ ]\011/* 1 value pushed */
6 
RCVT[ ]\011/* ReadCVT */
IF[ ]\011/* If */
PUSHW[ ]\011/* 1 value pushed */
4 
MDAP[1]\011/* MoveDirectAbsPt */
ELSE[ ]\011/* Else */
PUSHW[ ]\011/* 2 values pushed */
4 17 
MIAP[0]\011/* MoveIndirectAbsPt */
EIF[ ]\011/* EndIf */
PUSHW[ ]\011/* 1 value pushed */
6 
RCVT[ ]\011/* ReadCVT */
IF[ ]\011/* If */
PUSHW[ ]\011/* 1 value pushed */
9 
MDAP[1]\011/* MoveDirectAbsPt */
ELSE[ ]\011/* Else */
PUSHW[ ]\011/* 2 values pushed */
9 19 
MIAP[0]\011/* MoveIndirectAbsPt */
EIF[ ]\011/* EndIf */
PUSHW[ ]\011/* 1 value pushed */
6 
RCVT[ ]\011/* ReadCVT */
IF[ ]\011/* If */
PUSHW[ ]\011/* 1 value pushed */
1 
MDAP[1]\011/* MoveDirectAbsPt */
ELSE[ ]\011/* Else */
PUSHW[ ]\011/* 2 values pushed */
1 15 
MIAP[0]\011/* MoveIndirectAbsPt */
EIF[ ]\011/* EndIf */
PUSHW[ ]\011/* 1 value pushed */
9 
SRP0[ ]\011/* SetRefPoint0 */
PUSHW[ ]\011/* 2 values pushed */
7 8 
MIRP[10100]\011/* MoveIndirectRelPt */
IUP[0]\011/* InterpolateUntPts */
IUP[1]\011/* InterpolateUntPts */";
};
width = 92;
},
{
hints = (
{
horizontal = 1;
origin = "{1, 2}";
target = "{1, 1}";
type = Stem;
},
{
horizontal = 1;
origin = "{0, 1}";
target = "{1, 1}";
type = Stem;
},
{
origin = "{0, 4}";
target = "{0, 3}";
type = Stem;
}
);
layerId = "DBA696BD-A337-48FC-9DA1-CD58B2C81FFB";
paths = (
{
closed = 1;
nodes = (
"6 49 LINE",
"6 600 LINE",
"18 600 LINE",
"18 -90 LINE",
"6 -90 LINE"
);
},
{
closed = 1;
nodes = (
"18 690 LINE",
"6 690 LINE",
"6 612 LINE",
"18 612 LINE"
);
}
);
width = 24;
}
);
note = j;
unicode = 006A;
},
{
color = 4;
glyphname = k;
lastChange = "2020-09-25 16:07:56 +0000";
layers = (
{
guideLines = (
{
angle = 270;
position = "{86, 420}";
}
);
hints = (
{
horizontal = 1;
origin = "{0, 15}";
target = up;
type = BottomGhost;
},
{
horizontal = 1;
origin = "{0, 1}";
target = "{0, 6}";
type = Stem;
},
{
horizontal = 1;
origin = "{0, 10}";
target = up;
type = BottomGhost;
},
{
horizontal = 1;
origin = "{0, 14}";
target = down;
type = TopGhost;
},
{
horizontal = 1;
origin = "{0, 7}";
target = "{0, 12}";
type = Stem;
},
{
origin = "{0, 15}";
target = "{0, 0}";
type = Stem;
},
{
origin = "{0, 3}";
target = "{0, 4}";
type = Stem;
}
);
layerId = "B64BEB12-03E1-41C2-8D0F-395888C0A328";
paths = (
{
closed = 1;
nodes = (
"86 0 LINE",
"86 308 LINE",
"98 308 LINE",
"98 0 LINE",
"178 0 LINE",
"178 339 LINE",
"145 339 LINE",
"145 351 LINE",
"178 351 LINE",
"178 600 LINE",
"98 600 LINE",
"98 383 LINE",
"86 383 LINE",
"86 730 LINE",
"6 730 LINE",
"6 0 LINE"
);
}
);
userData = {
assembly = "PUSHW[ ]\011/* 1 value pushed */
10 
CALL[ ]\011/* CallFunction */
PUSHW[ ]\011/* 4 values pushed */
4 9 5 14 
CALL[ ]\011/* CallFunction */
PUSHW[ ]\011/* 1 value pushed */
4 
SRP0[ ]\011/* SetRefPoint0 */
PUSHW[ ]\011/* 1 value pushed */
7 
MDRP[10000]\011/* MoveDirectRelPt */
SVTCA[0]\011/* SetFreedomAndProjectionVectorToAxis */
PUSHW[ ]\011/* 1 value pushed */
6 
RCVT[ ]\011/* ReadCVT */
IF[ ]\011/* If */
PUSHW[ ]\011/* 1 value pushed */
6 
MDAP[1]\011/* MoveDirectAbsPt */
ELSE[ ]\011/* Else */
PUSHW[ ]\011/* 2 values pushed */
6 19 
MIAP[0]\011/* MoveIndirectAbsPt */
EIF[ ]\011/* EndIf */
PUSHW[ ]\011/* 1 value pushed */
6 
RCVT[ ]\011/* ReadCVT */
IF[ ]\011/* If */
PUSHW[ ]\011/* 1 value pushed */
9 
MDAP[1]\011/* MoveDirectAbsPt */
ELSE[ ]\011/* Else */
PUSHW[ ]\011/* 2 values pushed */
9 17 
MIAP[0]\011/* MoveIndirectAbsPt */
EIF[ ]\011/* EndIf */
PUSHW[ ]\011/* 1 value pushed */
6 
RCVT[ ]\011/* ReadCVT */
IF[ ]\011/* If */
PUSHW[ ]\011/* 1 value pushed */
1 
MDAP[1]\011/* MoveDirectAbsPt */
ELSE[ ]\011/* Else */
PUSHW[ ]\011/* 2 values pushed */
1 13 
MIAP[0]\011/* MoveIndirectAbsPt */
EIF[ ]\011/* EndIf */
PUSHW[ ]\011/* 1 value pushed */
6 
RCVT[ ]\011/* ReadCVT */
IF[ ]\011/* If */
PUSHW[ ]\011/* 1 value pushed */
4 
MDAP[1]\011/* MoveDirectAbsPt */
ELSE[ ]\011/* Else */
PUSHW[ ]\011/* 2 values pushed */
4 13 
MIAP[0]\011/* MoveIndirectAbsPt */
EIF[ ]\011/* EndIf */
PUSHW[ ]\011/* 3 values pushed */
3 1 6 
SRP1[ ]\011/* SetRefPoint1 */
SRP2[ ]\011/* SetRefPoint2 */
IP[ ]\011/* InterpolatePts */
PUSHW[ ]\011/* 3 values pushed */
8 1 6 
SRP1[ ]\011/* SetRefPoint1 */
SRP2[ ]\011/* SetRefPoint2 */
IP[ ]\011/* InterpolatePts */
IUP[0]\011/* InterpolateUntPts */
IUP[1]\011/* InterpolateUntPts */";
};
width = 184;
},
{
hints = (
{
horizontal = 1;
origin = "{0, 15}";
target = up;
type = BottomGhost;
},
{
horizontal = 1;
origin = "{0, 1}";
target = "{0, 12}";
type = Stem;
},
{
horizontal = 1;
origin = "{0, 10}";
target = up;
type = BottomGhost;
},
{
horizontal = 1;
origin = "{0, 14}";
target = down;
type = TopGhost;
},
{
origin = "{0, 15}";
target = "{0, 0}";
type = Stem;
},
{
origin = "{0, 3}";
target = "{0, 4}";
type = Stem;
}
);
layerId = "DBA696BD-A337-48FC-9DA1-CD58B2C81FFB";
paths = (
{
closed = 1;
nodes = (
"18 0 LINE",
"18 300 LINE",
"30 300 LINE",
"30 0 LINE",
"42 0 LINE",
"42 300 LINE",
"36 300 LINE",
"36 311 LINE",
"42 311 LINE",
"42 600 LINE",
"30 600 LINE",
"30 311 LINE",
"18 311 LINE",
"18 690 LINE",
"6 690 LINE",
"6 0 LINE"
);
}
);
width = 48;
}
);
note = k;
unicode = 006B;
},
{
color = 4;
glyphname = l;
lastChange = "2020-09-25 16:07:09 +0000";
layers = (
{
hints = (
{
horizontal = 1;
origin = "{0, 3}";
target = up;
type = BottomGhost;
},
{
horizontal = 1;
origin = "{0, 2}";
target = down;
type = TopGhost;
},
{
origin = "{0, 3}";
target = "{0, 0}";
type = Stem;
}
);
layerId = "B64BEB12-03E1-41C2-8D0F-395888C0A328";
paths = (
{
closed = 1;
nodes = (
"86 0 LINE",
"86 730 LINE",
"6 730 LINE",
"6 0 LINE"
);
}
);
userData = {
assembly = "PUSHW[ ]\011/* 4 values pushed */
0 1 1 4 
CALL[ ]\011/* CallFunction */
SVTCA[0]\011/* SetFreedomAndProjectionVectorToAxis */
PUSHW[ ]\011/* 1 value pushed */
2 
MDAP[1]\011/* MoveDirectAbsPt */
PUSHW[ ]\011/* 1 value pushed */
0 
RCVT[ ]\011/* ReadCVT */
IF[ ]\011/* If */
PUSHW[ ]\011/* 1 value pushed */
0 
MDAP[1]\011/* MoveDirectAbsPt */
ELSE[ ]\011/* Else */
PUSHW[ ]\011/* 2 values pushed */
0 2 
MIAP[0]\011/* MoveIndirectAbsPt */
EIF[ ]\011/* EndIf */
IUP[0]\011/* InterpolateUntPts */
IUP[1]\011/* InterpolateUntPts */";
};
width = 92;
},
{
hints = (
{
horizontal = 1;
origin = "{0, 3}";
target = up;
type = BottomGhost;
},
{
horizontal = 1;
origin = "{0, 2}";
target = down;
type = TopGhost;
},
{
origin = "{0, 3}";
target = "{0, 0}";
type = Stem;
}
);
layerId = "DBA696BD-A337-48FC-9DA1-CD58B2C81FFB";
paths = (
{
closed = 1;
nodes = (
"18 0 LINE",
"18 690 LINE",
"6 690 LINE",
"6 0 LINE"
);
}
);
width = 24;
}
);
note = l;
unicode = 006C;
},
{
color = 7;
glyphname = lslash;
lastChange = "2020-10-04 18:19:34 +0000";
layers = (
{
components = (
{
name = l;
}
);
layerId = "DBA696BD-A337-48FC-9DA1-CD58B2C81FFB";
paths = (
{
closed = 1;
nodes = (
"0 362 LINE",
"24 377 LINE",
"24 389 LINE",
"0 374 LINE"
);
}
);
width = 24;
},
{
components = (
{
name = l;
}
);
layerId = "B64BEB12-03E1-41C2-8D0F-395888C0A328";
paths = (
{
closed = 1;
nodes = (
"0 308 LINE",
"92 370 LINE",
"92 445 LINE",
"0 383 LINE"
);
}
);
width = 92;
}
);
unicode = 0142;
},
{
color = 4;
glyphname = m;
lastChange = "2020-10-02 09:34:13 +0000";
layers = (
{
hints = (
{
horizontal = 1;
origin = "{0, 9}";
target = up;
type = BottomGhost;
},
{
horizontal = 1;
origin = "{0, 8}";
target = "{0, 11}";
type = Stem;
},
{
horizontal = 1;
origin = "{0, 11}";
target = "{0, 6}";
type = Stem;
},
{
origin = "{0, 9}";
target = "{0, 10}";
type = Stem;
},
{
origin = "{0, 17}";
target = "{0, 18}";
type = Stem;
},
{
origin = "{0, 13}";
target = "{0, 14}";
type = Stem;
}
);
layerId = "B64BEB12-03E1-41C2-8D0F-395888C0A328";
paths = (
{
closed = 1;
nodes = (
"190 600 LINE",
"190 575 LINE",
"178 575 LINE",
"178 600 LINE",
"98 600 LINE",
"98 575 LINE",
"86 575 LINE",
"86 600 LINE",
"6 600 LINE",
"6 0 LINE",
"86 0 LINE",
"86 525 LINE",
"98 525 LINE",
"98 0 LINE",
"178 0 LINE",
"178 525 LINE",
"190 525 LINE",
"190 0 LINE",
"270 0 LINE",
"270 555 LINE",
"231 600 LINE"
);
}
);
userData = {
assembly = "PUSHW[ ]\011/* 1 value pushed */
10 
CALL[ ]\011/* CallFunction */
PUSHW[ ]\011/* 1 value pushed */
19 
MDAP[1]\011/* MoveDirectAbsPt */
PUSHW[ ]\011/* 1 value pushed */
11 
MDRP[10000]\011/* MoveDirectRelPt */
PUSHW[ ]\011/* 1 value pushed */
11 
MDAP[1]\011/* MoveDirectAbsPt */
PUSHW[ ]\011/* 1 value pushed */
7 
MDRP[11100]\011/* MoveDirectRelPt */
NPUSHW[ ]\011/* 3 values pushed */
111 7 1 
DELTAP1[ ]\011/* DeltaExceptionP1 */
PUSHW[ ]\011/* 1 value pushed */
3 
MDRP[11100]\011/* MoveDirectRelPt */
NPUSHW[ ]\011/* 3 values pushed */
111 3 1 
DELTAP1[ ]\011/* DeltaExceptionP1 */
PUSHW[ ]\011/* 2 values pushed */
2 9 
MIRP[10100]\011/* MoveIndirectRelPt */
PUSHW[ ]\011/* 1 value pushed */
7 
SRP0[ ]\011/* SetRefPoint0 */
PUSHW[ ]\011/* 2 values pushed */
6 9 
MIRP[10100]\011/* MoveIndirectRelPt */
PUSHW[ ]\011/* 1 value pushed */
11 
SRP0[ ]\011/* SetRefPoint0 */
PUSHW[ ]\011/* 2 values pushed */
10 9 
MIRP[10100]\011/* MoveIndirectRelPt */
PUSHW[ ]\011/* 1 value pushed */
14 
MDRP[10000]\011/* MoveDirectRelPt */
PUSHW[ ]\011/* 1 value pushed */
7 
SRP0[ ]\011/* SetRefPoint0 */
PUSHW[ ]\011/* 1 value pushed */
15 
MDRP[10000]\011/* MoveDirectRelPt */
PUSHW[ ]\011/* 1 value pushed */
15 
MDAP[1]\011/* MoveDirectAbsPt */
PUSHW[ ]\011/* 1 value pushed */
6 
SRP0[ ]\011/* SetRefPoint0 */
PUSHW[ ]\011/* 1 value pushed */
17 
MDRP[10000]\011/* MoveDirectRelPt */
PUSHW[ ]\011/* 1 value pushed */
3 
SRP0[ ]\011/* SetRefPoint0 */
PUSHW[ ]\011/* 1 value pushed */
18 
MDRP[10000]\011/* MoveDirectRelPt */
PUSHW[ ]\011/* 1 value pushed */
18 
MDAP[1]\011/* MoveDirectAbsPt */
PUSHW[ ]\011/* 1 value pushed */
2 
SRP0[ ]\011/* SetRefPoint0 */
PUSHW[ ]\011/* 1 value pushed */
20 
MDRP[11100]\011/* MoveDirectRelPt */
SVTCA[0]\011/* SetFreedomAndProjectionVectorToAxis */
PUSHW[ ]\011/* 1 value pushed */
6 
RCVT[ ]\011/* ReadCVT */
IF[ ]\011/* If */
PUSHW[ ]\011/* 1 value pushed */
0 
MDAP[1]\011/* MoveDirectAbsPt */
ELSE[ ]\011/* Else */
PUSHW[ ]\011/* 2 values pushed */
0 17 
MIAP[0]\011/* MoveIndirectAbsPt */
EIF[ ]\011/* EndIf */
PUSHW[ ]\011/* 1 value pushed */
6 
RCVT[ ]\011/* ReadCVT */
IF[ ]\011/* If */
PUSHW[ ]\011/* 1 value pushed */
12 
MDAP[1]\011/* MoveDirectAbsPt */
ELSE[ ]\011/* Else */
PUSHW[ ]\011/* 2 values pushed */
12 17 
MIAP[0]\011/* MoveIndirectAbsPt */
EIF[ ]\011/* EndIf */
PUSHW[ ]\011/* 1 value pushed */
6 
RCVT[ ]\011/* ReadCVT */
IF[ ]\011/* If */
PUSHW[ ]\011/* 1 value pushed */
15 
MDAP[1]\011/* MoveDirectAbsPt */
ELSE[ ]\011/* Else */
PUSHW[ ]\011/* 2 values pushed */
15 17 
MIAP[0]\011/* MoveIndirectAbsPt */
EIF[ ]\011/* EndIf */
PUSHW[ ]\011/* 1 value pushed */
6 
RCVT[ ]\011/* ReadCVT */
IF[ ]\011/* If */
PUSHW[ ]\011/* 1 value pushed */
2 
MDAP[1]\011/* MoveDirectAbsPt */
ELSE[ ]\011/* Else */
PUSHW[ ]\011/* 2 values pushed */
2 13 
MIAP[0]\011/* MoveIndirectAbsPt */
EIF[ ]\011/* EndIf */
PUSHW[ ]\011/* 1 value pushed */
6 
RCVT[ ]\011/* ReadCVT */
IF[ ]\011/* If */
PUSHW[ ]\011/* 1 value pushed */
6 
MDAP[1]\011/* MoveDirectAbsPt */
ELSE[ ]\011/* Else */
PUSHW[ ]\011/* 2 values pushed */
6 13 
MIAP[0]\011/* MoveIndirectAbsPt */
EIF[ ]\011/* EndIf */
PUSHW[ ]\011/* 1 value pushed */
6 
RCVT[ ]\011/* ReadCVT */
IF[ ]\011/* If */
PUSHW[ ]\011/* 1 value pushed */
10 
MDAP[1]\011/* MoveDirectAbsPt */
ELSE[ ]\011/* Else */
PUSHW[ ]\011/* 2 values pushed */
10 13 
MIAP[0]\011/* MoveIndirectAbsPt */
EIF[ ]\011/* EndIf */
PUSHW[ ]\011/* 3 values pushed */
14 2 0 
SRP1[ ]\011/* SetRefPoint1 */
SRP2[ ]\011/* SetRefPoint2 */
IP[ ]\011/* InterpolatePts */
PUSHW[ ]\011/* 3 values pushed */
17 2 0 
SRP1[ ]\011/* SetRefPoint1 */
SRP2[ ]\011/* SetRefPoint2 */
IP[ ]\011/* InterpolatePts */
IUP[0]\011/* InterpolateUntPts */
IUP[1]\011/* InterpolateUntPts */";
};
width = 276;
},
{
hints = (
{
horizontal = 1;
origin = "{0, 9}";
target = up;
type = BottomGhost;
},
{
horizontal = 1;
origin = "{0, 8}";
target = "{0, 11}";
type = Stem;
},
{
origin = "{0, 9}";
target = "{0, 10}";
type = Stem;
},
{
origin = "{0, 17}";
target = "{0, 18}";
type = Stem;
},
{
origin = "{0, 13}";
target = "{0, 14}";
type = Stem;
}
);
layerId = "DBA696BD-A337-48FC-9DA1-CD58B2C81FFB";
paths = (
{
closed = 1;
nodes = (
"54 600 LINE",
"54 600 LINE",
"42 600 LINE",
"42 600 LINE",
"30 600 LINE",
"30 600 LINE",
"18 600 LINE",
"18 600 LINE",
"6 600 LINE",
"6 0 LINE",
"18 0 LINE",
"18 589 LINE",
"30 589 LINE",
"30 0 LINE",
"42 0 LINE",
"42 589 LINE",
"54 589 LINE",
"54 0 LINE",
"66 0 LINE",
"66 592 LINE",
"58 600 LINE"
);
}
);
width = 72;
}
);
note = m;
unicode = 006D;
},
{
color = 4;
glyphname = n;
lastChange = "2020-09-25 15:36:10 +0000";
layers = (
{
hints = (
{
horizontal = 1;
origin = "{0, 11}";
target = up;
type = BottomGhost;
},
{
horizontal = 1;
origin = "{0, 10}";
target = "{0, 0}";
type = Stem;
},
{
horizontal = 1;
origin = "{0, 0}";
target = "{0, 8}";
type = Stem;
},
{
origin = "{0, 11}";
target = "{0, 12}";
type = Stem;
},
{
origin = "{0, 2}";
target = "{0, 3}";
type = Stem;
}
);
layerId = "B64BEB12-03E1-41C2-8D0F-395888C0A328";
paths = (
{
closed = 1;
nodes = (
"86 525 LINE",
"98 525 LINE",
"98 0 LINE",
"178 0 LINE",
"178 555 LINE",
"139 600 LINE",
"98 600 LINE",
"98 575 LINE",
"86 575 LINE",
"86 600 LINE",
"6 600 LINE",
"6 0 LINE",
"86 0 LINE"
);
}
);
userData = {
assembly = "PUSHW[ ]\011/* 1 value pushed */
12 
MDAP[1]\011/* MoveDirectAbsPt */
PUSHW[ ]\011/* 1 value pushed */
9 
MDAP[1]\011/* MoveDirectAbsPt */
PUSHW[ ]\011/* 1 value pushed */
12 
SRP0[ ]\011/* SetRefPoint0 */
PUSHW[ ]\011/* 1 value pushed */
1 
MDRP[10000]\011/* MoveDirectRelPt */
PUSHW[ ]\011/* 1 value pushed */
1 
MDAP[1]\011/* MoveDirectAbsPt */
PUSHW[ ]\011/* 2 values pushed */
0 1 
MIRP[10100]\011/* MoveIndirectRelPt */
PUSHW[ ]\011/* 1 value pushed */
4 
MDRP[10000]\011/* MoveDirectRelPt */
PUSHW[ ]\011/* 1 value pushed */
9 
SRP0[ ]\011/* SetRefPoint0 */
PUSHW[ ]\011/* 1 value pushed */
5 
MDRP[10000]\011/* MoveDirectRelPt */
PUSHW[ ]\011/* 1 value pushed */
5 
MDAP[1]\011/* MoveDirectAbsPt */
PUSHW[ ]\011/* 1 value pushed */
9 
SRP0[ ]\011/* SetRefPoint0 */
PUSHW[ ]\011/* 2 values pushed */
8 1 
MIRP[10100]\011/* MoveIndirectRelPt */
PUSHW[ ]\011/* 1 value pushed */
13 
MDRP[11100]\011/* MoveDirectRelPt */
SVTCA[0]\011/* SetFreedomAndProjectionVectorToAxis */
PUSHW[ ]\011/* 1 value pushed */
2 
MDAP[1]\011/* MoveDirectAbsPt */
PUSHW[ ]\011/* 1 value pushed */
5 
MDAP[1]\011/* MoveDirectAbsPt */
PUSHW[ ]\011/* 1 value pushed */
0 
RCVT[ ]\011/* ReadCVT */
IF[ ]\011/* If */
PUSHW[ ]\011/* 1 value pushed */
0 
MDAP[1]\011/* MoveDirectAbsPt */
ELSE[ ]\011/* Else */
PUSHW[ ]\011/* 2 values pushed */
0 2 
MIAP[0]\011/* MoveIndirectAbsPt */
EIF[ ]\011/* EndIf */
PUSHW[ ]\011/* 1 value pushed */
0 
RCVT[ ]\011/* ReadCVT */
IF[ ]\011/* If */
PUSHW[ ]\011/* 1 value pushed */
8 
MDAP[1]\011/* MoveDirectAbsPt */
ELSE[ ]\011/* Else */
PUSHW[ ]\011/* 2 values pushed */
8 2 
MIAP[0]\011/* MoveIndirectAbsPt */
EIF[ ]\011/* EndIf */
PUSHW[ ]\011/* 3 values pushed */
4 0 2 
SRP1[ ]\011/* SetRefPoint1 */
SRP2[ ]\011/* SetRefPoint2 */
IP[ ]\011/* InterpolatePts */
IUP[0]\011/* InterpolateUntPts */
IUP[1]\011/* InterpolateUntPts */";
};
width = 184;
},
{
hints = (
{
horizontal = 1;
origin = "{0, 11}";
target = up;
type = BottomGhost;
},
{
horizontal = 1;
origin = "{0, 10}";
target = "{0, 0}";
type = Stem;
},
{
origin = "{0, 11}";
target = "{0, 12}";
type = Stem;
},
{
origin = "{0, 2}";
target = "{0, 3}";
type = Stem;
}
);
layerId = "DBA696BD-A337-48FC-9DA1-CD58B2C81FFB";
paths = (
{
closed = 1;
nodes = (
"18 589 LINE",
"30 589 LINE",
"30 0 LINE",
"42 0 LINE",
"42 592 LINE",
"34 600 LINE",
"30 600 LINE",
"30 600 LINE",
"18 600 LINE",
"18 600 LINE",
"6 600 LINE",
"6 0 LINE",
"18 0 LINE"
);
}
);
width = 48;
}
);
note = n;
unicode = 006E;
},
{
color = 7;
glyphname = eng;
lastChange = "2020-10-04 18:24:31 +0000";
layers = (
{
components = (
{
name = n;
}
);
layerId = "DBA696BD-A337-48FC-9DA1-CD58B2C81FFB";
paths = (
{
closed = 1;
nodes = (
"42 -40 LINE",
"42 11 LINE",
"30 11 LINE",
"30 -24 LINE",
"35 -24 LINE",
"35 -36 LINE",
"26 -36 LINE",
"26 -48 LINE",
"34 -48 LINE"
);
}
);
width = 48;
},
{
components = (
{
name = n;
}
);
layerId = "B64BEB12-03E1-41C2-8D0F-395888C0A328";
paths = (
{
closed = 1;
nodes = (
"178 -79 LINE",
"178 10 LINE",
"98 10 LINE",
"98 -62 LINE",
"139 -62 LINE",
"139 -74 LINE",
"98 -74 LINE",
"98 -124 LINE",
"138 -124 LINE"
);
}
);
width = 184;
}
);
unicode = 014B;
},
{
color = 4;
glyphname = o;
lastChange = "2020-09-25 15:35:47 +0000";
layers = (
{
hints = (
{
horizontal = 1;
origin = "{1, 1}";
target = "{0, 3}";
type = Stem;
},
{
horizontal = 1;
origin = "{0, 0}";
target = "{1, 2}";
type = Stem;
},
{
origin = "{0, 2}";
target = "{1, 1}";
type = Stem;
},
{
origin = "{1, 0}";
target = "{0, 5}";
type = Stem;
}
);
layerId = "B64BEB12-03E1-41C2-8D0F-395888C0A328";
paths = (
{
closed = 1;
nodes = (
"45 600 LINE",
"6 555 LINE",
"6 45 LINE",
"45 0 LINE",
"139 0 LINE",
"178 45 LINE",
"178 555 LINE",
"138 600 LINE"
);
},
{
closed = 1;
nodes = (
"98 75 LINE",
"86 75 LINE",
"86 525 LINE",
"98 525 LINE"
);
}
);
userData = {
assembly = "PUSHW[ ]\011/* 1 value pushed */
10 
CALL[ ]\011/* CallFunction */
PUSHW[ ]\011/* 1 value pushed */
12 
MDAP[1]\011/* MoveDirectAbsPt */
PUSHW[ ]\011/* 1 value pushed */
8 
MDAP[1]\011/* MoveDirectAbsPt */
PUSHW[ ]\011/* 2 values pushed */
1 9 
MIRP[10100]\011/* MoveIndirectRelPt */
PUSHW[ ]\011/* 1 value pushed */
12 
SRP0[ ]\011/* SetRefPoint0 */
PUSHW[ ]\011/* 1 value pushed */
5 
MDRP[10000]\011/* MoveDirectRelPt */
PUSHW[ ]\011/* 1 value pushed */
5 
MDAP[1]\011/* MoveDirectAbsPt */
PUSHW[ ]\011/* 2 values pushed */
10 9 
MIRP[10100]\011/* MoveIndirectRelPt */
PUSHW[ ]\011/* 1 value pushed */
1 
SRP0[ ]\011/* SetRefPoint0 */
PUSHW[ ]\011/* 1 value pushed */
13 
MDRP[11100]\011/* MoveDirectRelPt */
SVTCA[0]\011/* SetFreedomAndProjectionVectorToAxis */
PUSHW[ ]\011/* 1 value pushed */
6 
RCVT[ ]\011/* ReadCVT */
IF[ ]\011/* If */
PUSHW[ ]\011/* 1 value pushed */
0 
MDAP[1]\011/* MoveDirectAbsPt */
ELSE[ ]\011/* Else */
PUSHW[ ]\011/* 2 values pushed */
0 17 
MIAP[0]\011/* MoveIndirectAbsPt */
EIF[ ]\011/* EndIf */
PUSHW[ ]\011/* 1 value pushed */
6 
RCVT[ ]\011/* ReadCVT */
IF[ ]\011/* If */
PUSHW[ ]\011/* 1 value pushed */
3 
MDAP[1]\011/* MoveDirectAbsPt */
ELSE[ ]\011/* Else */
PUSHW[ ]\011/* 2 values pushed */
3 13 
MIAP[0]\011/* MoveIndirectAbsPt */
EIF[ ]\011/* EndIf */
IUP[0]\011/* InterpolateUntPts */
IUP[1]\011/* InterpolateUntPts */";
};
width = 184;
},
{
hints = (
{
horizontal = 1;
origin = "{0, 3}";
target = "{1, 1}";
type = Stem;
},
{
horizontal = 1;
origin = "{0, 0}";
target = "{1, 2}";
type = Stem;
},
{
origin = "{0, 2}";
target = "{1, 1}";
type = Stem;
},
{
origin = "{1, 0}";
target = "{0, 5}";
type = Stem;
}
);
layerId = "DBA696BD-A337-48FC-9DA1-CD58B2C81FFB";
paths = (
{
closed = 1;
nodes = (
"14 600 LINE",
"6 592 LINE",
"6 8 LINE",
"14 0 LINE",
"34 0 LINE",
"42 8 LINE",
"42 592 LINE",
"34 600 LINE"
);
},
{
closed = 1;
nodes = (
"30 11 LINE",
"18 11 LINE",
"18 589 LINE",
"30 589 LINE"
);
}
);
width = 48;
}
);
note = o;
unicode = 006F;
},
{
color = 4;
glyphname = oslash;
lastChange = "2020-10-02 11:57:18 +0000";
layers = (
{
components = (
{
name = o;
}
);
layerId = "B64BEB12-03E1-41C2-8D0F-395888C0A328";
paths = (
{
closed = 1;
nodes = (
"6 -40 LINE",
"86 -40 LINE",
"86 75 LINE",
"6 75 LINE"
);
},
{
closed = 1;
nodes = (
"98 540 LINE",
"178 540 LINE",
"178 655 LINE",
"98 655 LINE"
);
},
{
closed = 1;
nodes = (
"52 263 LINE",
"132 263 LINE",
"132 338 LINE",
"52 338 LINE"
);
}
);
width = 184;
},
{
components = (
{
name = o;
}
);
layerId = "DBA696BD-A337-48FC-9DA1-CD58B2C81FFB";
paths = (
{
closed = 1;
nodes = (
"6 -24 LINE",
"18 -24 LINE",
"18 11 LINE",
"6 11 LINE"
);
},
{
closed = 1;
nodes = (
"30 589 LINE",
"42 589 LINE",
"42 624 LINE",
"30 624 LINE"
);
},
{
closed = 1;
nodes = (
"8 295 LINE",
"42 295 LINE",
"42 307 LINE",
"8 307 LINE"
);
}
);
width = 48;
}
);
unicode = 00F8;
},
{
color = 4;
glyphname = oe;
lastChange = "2020-06-25 13:11:18 +0000";
layers = (
{
layerId = "B64BEB12-03E1-41C2-8D0F-395888C0A328";
paths = (
{
closed = 1;
nodes = (
"45 600 LINE",
"6 555 LINE",
"6 45 LINE",
"45 0 LINE",
"139 0 LINE",
"178 45 LINE",
"178 555 LINE",
"138 600 LINE"
);
},
{
closed = 1;
nodes = (
"98 75 LINE",
"86 75 LINE",
"86 525 LINE",
"98 525 LINE"
);
},
{
closed = 1;
nodes = (
"137 600 LINE",
"98 555 LINE",
"98 45 LINE",
"137 0 LINE",
"231 0 LINE",
"270 45 LINE",
"270 288 LINE",
"190 288 LINE",
"190 75 LINE",
"178 75 LINE",
"178 300 LINE",
"270 300 LINE",
"270 555 LINE",
"230 600 LINE"
);
},
{
closed = 1;
nodes = (
"178 525 LINE",
"190 525 LINE",
"190 375 LINE",
"178 375 LINE"
);
}
);
width = 276;
},
{
layerId = "DBA696BD-A337-48FC-9DA1-CD58B2C81FFB";
paths = (
{
closed = 1;
nodes = (
"14 600 LINE",
"6 592 LINE",
"6 8 LINE",
"14 0 LINE",
"34 0 LINE",
"42 0 LINE",
"42 600 LINE",
"34 600 LINE"
);
},
{
closed = 1;
nodes = (
"30 11 LINE",
"18 11 LINE",
"18 589 LINE",
"30 589 LINE"
);
},
{
closed = 1;
nodes = (
"38 600 LINE",
"30 600 LINE",
"30 0 LINE",
"38 0 LINE",
"58 0 LINE",
"66 8 LINE",
"66 288 LINE",
"54 288 LINE",
"54 11 LINE",
"42 11 LINE",
"42 300 LINE",
"66 300 LINE",
"66 592 LINE",
"58 600 LINE"
);
},
{
closed = 1;
nodes = (
"42 589 LINE",
"54 589 LINE",
"54 311 LINE",
"42 311 LINE"
);
}
);
width = 72;
}
);
unicode = 0153;
},
{
color = 4;
glyphname = p;
lastChange = "2020-09-25 16:07:33 +0000";
layers = (
{
hints = (
{
horizontal = 1;
origin = "{0, 8}";
target = up;
type = BottomGhost;
},
{
horizontal = 1;
origin = "{0, 12}";
target = "{1, 1}";
type = Stem;
},
{
horizontal = 1;
origin = "{0, 7}";
target = "{1, 2}";
type = Stem;
},
{
horizontal = 1;
origin = "{1, 2}";
target = "{0, 5}";
type = Stem;
},
{
horizontal = 1;
origin = "{0, 10}";
target = "{1, 1}";
type = Stem;
},
{
origin = "{0, 8}";
target = "{0, 9}";
type = Stem;
},
{
origin = "{0, 12}";
target = "{0, 0}";
type = Stem;
}
);
layerId = "B64BEB12-03E1-41C2-8D0F-395888C0A328";
paths = (
{
closed = 1;
nodes = (
"178 45 LINE",
"178 555 LINE",
"139 600 LINE",
"98 600 LINE",
"98 575 LINE",
"86 575 LINE",
"86 600 LINE",
"6 600 LINE",
"6 -130 LINE",
"86 -130 LINE",
"86 25 LINE",
"98 25 LINE",
"98 0 LINE",
"139 0 LINE"
);
},
{
closed = 1;
nodes = (
"98 75 LINE",
"86 75 LINE",
"86 525 LINE",
"98 525 LINE"
);
}
);
userData = {
assembly = "PUSHW[ ]\011/* 1 value pushed */
10 
CALL[ ]\011/* CallFunction */
PUSHW[ ]\011/* 1 value pushed */
16 
MDAP[1]\011/* MoveDirectAbsPt */
PUSHW[ ]\011/* 1 value pushed */
12 
MDAP[1]\011/* MoveDirectAbsPt */
PUSHW[ ]\011/* 1 value pushed */
1 
MDRP[10000]\011/* MoveDirectRelPt */
PUSHW[ ]\011/* 1 value pushed */
1 
MDAP[1]\011/* MoveDirectAbsPt */
PUSHW[ ]\011/* 1 value pushed */
16 
SRP0[ ]\011/* SetRefPoint0 */
PUSHW[ ]\011/* 1 value pushed */
4 
MDRP[10000]\011/* MoveDirectRelPt */
PUSHW[ ]\011/* 1 value pushed */
4 
MDAP[1]\011/* MoveDirectAbsPt */
PUSHW[ ]\011/* 2 values pushed */
3 9 
MIRP[10100]\011/* MoveIndirectRelPt */
PUSHW[ ]\011/* 1 value pushed */
7 
MDRP[10000]\011/* MoveDirectRelPt */
PUSHW[ ]\011/* 1 value pushed */
12 
SRP0[ ]\011/* SetRefPoint0 */
PUSHW[ ]\011/* 1 value pushed */
8 
MDRP[10000]\011/* MoveDirectRelPt */
PUSHW[ ]\011/* 1 value pushed */
8 
MDAP[1]\011/* MoveDirectAbsPt */
PUSHW[ ]\011/* 1 value pushed */
12 
SRP0[ ]\011/* SetRefPoint0 */
PUSHW[ ]\011/* 2 values pushed */
10 9 
MIRP[10100]\011/* MoveIndirectRelPt */
PUSHW[ ]\011/* 1 value pushed */
3 
SRP0[ ]\011/* SetRefPoint0 */
PUSHW[ ]\011/* 1 value pushed */
13 
MDRP[10000]\011/* MoveDirectRelPt */
PUSHW[ ]\011/* 1 value pushed */
10 
SRP0[ ]\011/* SetRefPoint0 */
PUSHW[ ]\011/* 1 value pushed */
17 
MDRP[11100]\011/* MoveDirectRelPt */
SVTCA[0]\011/* SetFreedomAndProjectionVectorToAxis */
PUSHW[ ]\011/* 1 value pushed */
6 
RCVT[ ]\011/* ReadCVT */
IF[ ]\011/* If */
PUSHW[ ]\011/* 1 value pushed */
5 
MDAP[1]\011/* MoveDirectAbsPt */
ELSE[ ]\011/* Else */
PUSHW[ ]\011/* 2 values pushed */
5 17 
MIAP[0]\011/* MoveIndirectAbsPt */
EIF[ ]\011/* EndIf */
PUSHW[ ]\011/* 1 value pushed */
6 
RCVT[ ]\011/* ReadCVT */
IF[ ]\011/* If */
PUSHW[ ]\011/* 1 value pushed */
8 
MDAP[1]\011/* MoveDirectAbsPt */
ELSE[ ]\011/* Else */
PUSHW[ ]\011/* 2 values pushed */
8 17 
MIAP[0]\011/* MoveIndirectAbsPt */
EIF[ ]\011/* EndIf */
PUSHW[ ]\011/* 1 value pushed */
6 
RCVT[ ]\011/* ReadCVT */
IF[ ]\011/* If */
PUSHW[ ]\011/* 1 value pushed */
3 
MDAP[1]\011/* MoveDirectAbsPt */
ELSE[ ]\011/* Else */
PUSHW[ ]\011/* 2 values pushed */
3 15 
MIAP[0]\011/* MoveIndirectAbsPt */
EIF[ ]\011/* EndIf */
PUSHW[ ]\011/* 1 value pushed */
6 
RCVT[ ]\011/* ReadCVT */
IF[ ]\011/* If */
PUSHW[ ]\011/* 1 value pushed */
0 
MDAP[1]\011/* MoveDirectAbsPt */
ELSE[ ]\011/* Else */
PUSHW[ ]\011/* 2 values pushed */
0 13 
MIAP[0]\011/* MoveIndirectAbsPt */
EIF[ ]\011/* EndIf */
PUSHW[ ]\011/* 3 values pushed */
2 3 5 
SRP1[ ]\011/* SetRefPoint1 */
SRP2[ ]\011/* SetRefPoint2 */
IP[ ]\011/* InterpolatePts */
PUSHW[ ]\011/* 3 values pushed */
7 3 5 
SRP1[ ]\011/* SetRefPoint1 */
SRP2[ ]\011/* SetRefPoint2 */
IP[ ]\011/* InterpolatePts */
IUP[0]\011/* InterpolateUntPts */
IUP[1]\011/* InterpolateUntPts */";
};
width = 184;
},
{
hints = (
{
horizontal = 1;
origin = "{0, 8}";
target = up;
type = BottomGhost;
},
{
horizontal = 1;
origin = "{0, 10}";
target = "{1, 1}";
type = Stem;
},
{
horizontal = 1;
origin = "{0, 7}";
target = "{1, 2}";
type = Stem;
},
{
origin = "{0, 8}";
target = "{0, 9}";
type = Stem;
},
{
origin = "{0, 11}";
target = "{0, 0}";
type = Stem;
}
);
layerId = "DBA696BD-A337-48FC-9DA1-CD58B2C81FFB";
paths = (
{
closed = 1;
nodes = (
"42 8 LINE",
"42 592 LINE",
"34 600 LINE",
"30 600 LINE",
"30 600 LINE",
"18 600 LINE",
"18 600 LINE",
"6 600 LINE",
"6 -90 LINE",
"18 -90 LINE",
"18 0 LINE",
"30 0 LINE",
"30 0 LINE",
"34 0 LINE"
);
},
{
closed = 1;
nodes = (
"30 11 LINE",
"18 11 LINE",
"18 589 LINE",
"30 589 LINE"
);
}
);
width = 48;
}
);
note = p;
unicode = 0070;
},
{
color = 4;
glyphname = thorn;
lastChange = "2020-09-12 11:29:58 +0000";
layers = (
{
layerId = "B64BEB12-03E1-41C2-8D0F-395888C0A328";
paths = (
{
closed = 1;
nodes = (
"178 -2 LINE",
"178 508 LINE",
"139 553 LINE",
"95 553 LINE",
"95 600 LINE",
"6 600 LINE",
"6 -130 LINE",
"85 -130 LINE",
"85 -28 LINE",
"85 -47 LINE",
"139 -47 LINE"
);
},
{
closed = 1;
nodes = (
"98 28 LINE",
"86 28 LINE",
"86 478 LINE",
"98 478 LINE"
);
}
);
width = 184;
},
{
layerId = "DBA696BD-A337-48FC-9DA1-CD58B2C81FFB";
paths = (
{
closed = 1;
nodes = (
"42 29 LINE",
"42 549 LINE",
"34 557 LINE",
"18 557 LINE",
"18 600 LINE",
"6 600 LINE",
"6 -90 LINE",
"18 -90 LINE",
"18 40 LINE",
"18 21 LINE",
"34 21 LINE"
);
},
{
closed = 1;
nodes = (
"30 32 LINE",
"18 32 LINE",
"18 546 LINE",
"30 546 LINE"
);
}
);
width = 48;
}
);
unicode = 00FE;
},
{
color = 4;
glyphname = q;
lastChange = "2020-09-25 16:08:03 +0000";
layers = (
{
hints = (
{
horizontal = 1;
origin = "{0, 3}";
target = up;
type = BottomGhost;
},
{
horizontal = 1;
origin = "{0, 13}";
target = "{1, 2}";
type = Stem;
},
{
horizontal = 1;
origin = "{0, 10}";
target = "{1, 3}";
type = Stem;
},
{
horizontal = 1;
origin = "{0, 1}";
target = "{1, 2}";
type = Stem;
},
{
horizontal = 1;
origin = "{1, 3}";
target = "{0, 8}";
type = Stem;
},
{
origin = "{0, 12}";
target = "{0, 0}";
type = Stem;
},
{
origin = "{0, 3}";
target = "{0, 4}";
type = Stem;
}
);
layerId = "B64BEB12-03E1-41C2-8D0F-395888C0A328";
paths = (
{
closed = 1;
nodes = (
"86 0 LINE",
"86 25 LINE",
"98 25 LINE",
"98 -130 LINE",
"178 -130 LINE",
"178 600 LINE",
"98 600 LINE",
"98 575 LINE",
"86 575 LINE",
"86 600 LINE",
"45 600 LINE",
"6 555 LINE",
"6 45 LINE",
"45 0 LINE"
);
},
{
closed = 1;
nodes = (
"98 525 LINE",
"98 75 LINE",
"86 75 LINE",
"86 525 LINE"
);
}
);
userData = {
assembly = "PUSHW[ ]\011/* 1 value pushed */
10 
CALL[ ]\011/* CallFunction */
PUSHW[ ]\011/* 1 value pushed */
16 
MDAP[1]\011/* MoveDirectAbsPt */
PUSHW[ ]\011/* 1 value pushed */
4 
MDAP[1]\011/* MoveDirectAbsPt */
PUSHW[ ]\011/* 1 value pushed */
16 
SRP0[ ]\011/* SetRefPoint0 */
PUSHW[ ]\011/* 1 value pushed */
0 
MDRP[10000]\011/* MoveDirectRelPt */
PUSHW[ ]\011/* 1 value pushed */
0 
MDAP[1]\011/* MoveDirectAbsPt */
PUSHW[ ]\011/* 2 values pushed */
12 9 
MIRP[10100]\011/* MoveIndirectRelPt */
PUSHW[ ]\011/* 1 value pushed */
3 
MDRP[10000]\011/* MoveDirectRelPt */
PUSHW[ ]\011/* 1 value pushed */
3 
MDAP[1]\011/* MoveDirectAbsPt */
PUSHW[ ]\011/* 1 value pushed */
4 
SRP0[ ]\011/* SetRefPoint0 */
PUSHW[ ]\011/* 2 values pushed */
6 9 
MIRP[10100]\011/* MoveIndirectRelPt */
PUSHW[ ]\011/* 1 value pushed */
4 
SRP0[ ]\011/* SetRefPoint0 */
PUSHW[ ]\011/* 1 value pushed */
8 
MDRP[10000]\011/* MoveDirectRelPt */
PUSHW[ ]\011/* 1 value pushed */
12 
SRP0[ ]\011/* SetRefPoint0 */
PUSHW[ ]\011/* 1 value pushed */
10 
MDRP[10000]\011/* MoveDirectRelPt */
PUSHW[ ]\011/* 1 value pushed */
10 
MDAP[1]\011/* MoveDirectAbsPt */
PUSHW[ ]\011/* 1 value pushed */
4 
SRP0[ ]\011/* SetRefPoint0 */
PUSHW[ ]\011/* 1 value pushed */
13 
MDRP[10000]\011/* MoveDirectRelPt */
PUSHW[ ]\011/* 1 value pushed */
6 
SRP0[ ]\011/* SetRefPoint0 */
PUSHW[ ]\011/* 1 value pushed */
17 
MDRP[11100]\011/* MoveDirectRelPt */
SVTCA[0]\011/* SetFreedomAndProjectionVectorToAxis */
PUSHW[ ]\011/* 1 value pushed */
6 
RCVT[ ]\011/* ReadCVT */
IF[ ]\011/* If */
PUSHW[ ]\011/* 1 value pushed */
2 
MDAP[1]\011/* MoveDirectAbsPt */
ELSE[ ]\011/* Else */
PUSHW[ ]\011/* 2 values pushed */
2 17 
MIAP[0]\011/* MoveIndirectAbsPt */
EIF[ ]\011/* EndIf */
PUSHW[ ]\011/* 1 value pushed */
6 
RCVT[ ]\011/* ReadCVT */
IF[ ]\011/* If */
PUSHW[ ]\011/* 1 value pushed */
5 
MDAP[1]\011/* MoveDirectAbsPt */
ELSE[ ]\011/* Else */
PUSHW[ ]\011/* 2 values pushed */
5 17 
MIAP[0]\011/* MoveIndirectAbsPt */
EIF[ ]\011/* EndIf */
PUSHW[ ]\011/* 1 value pushed */
6 
RCVT[ ]\011/* ReadCVT */
IF[ ]\011/* If */
PUSHW[ ]\011/* 1 value pushed */
7 
MDAP[1]\011/* MoveDirectAbsPt */
ELSE[ ]\011/* Else */
PUSHW[ ]\011/* 2 values pushed */
7 15 
MIAP[0]\011/* MoveIndirectAbsPt */
EIF[ ]\011/* EndIf */
PUSHW[ ]\011/* 1 value pushed */
6 
RCVT[ ]\011/* ReadCVT */
IF[ ]\011/* If */
PUSHW[ ]\011/* 1 value pushed */
10 
MDAP[1]\011/* MoveDirectAbsPt */
ELSE[ ]\011/* Else */
PUSHW[ ]\011/* 2 values pushed */
10 13 
MIAP[0]\011/* MoveIndirectAbsPt */
EIF[ ]\011/* EndIf */
PUSHW[ ]\011/* 3 values pushed */
4 7 2 
SRP1[ ]\011/* SetRefPoint1 */
SRP2[ ]\011/* SetRefPoint2 */
IP[ ]\011/* InterpolatePts */
PUSHW[ ]\011/* 3 values pushed */
9 7 2 
SRP1[ ]\011/* SetRefPoint1 */
SRP2[ ]\011/* SetRefPoint2 */
IP[ ]\011/* InterpolatePts */
IUP[0]\011/* InterpolateUntPts */
IUP[1]\011/* InterpolateUntPts */";
};
width = 184;
},
{
hints = (
{
horizontal = 1;
origin = "{0, 3}";
target = up;
type = BottomGhost;
},
{
horizontal = 1;
origin = "{0, 13}";
target = "{1, 2}";
type = Stem;
},
{
horizontal = 1;
origin = "{0, 10}";
target = "{1, 3}";
type = Stem;
},
{
origin = "{0, 12}";
target = "{0, 0}";
type = Stem;
},
{
origin = "{0, 3}";
target = "{0, 4}";
type = Stem;
}
);
layerId = "DBA696BD-A337-48FC-9DA1-CD58B2C81FFB";
paths = (
{
closed = 1;
nodes = (
"18 0 LINE",
"18 0 LINE",
"30 0 LINE",
"30 -90 LINE",
"42 -90 LINE",
"42 600 LINE",
"30 600 LINE",
"30 600 LINE",
"18 600 LINE",
"18 600 LINE",
"14 600 LINE",
"6 592 LINE",
"6 8 LINE",
"14 0 LINE"
);
},
{
closed = 1;
nodes = (
"30 589 LINE",
"30 14 LINE",
"18 14 LINE",
"18 589 LINE"
);
}
);
width = 48;
}
);
note = q;
unicode = 0071;
},
{
color = 4;
glyphname = r;
lastChange = "2020-09-25 16:07:21 +0000";
layers = (
{
hints = (
{
horizontal = 1;
origin = "{0, 11}";
target = up;
type = BottomGhost;
},
{
horizontal = 1;
origin = "{0, 10}";
target = "{0, 0}";
type = Stem;
},
{
horizontal = 1;
origin = "{0, 0}";
target = "{0, 8}";
type = Stem;
},
{
origin = "{0, 11}";
target = "{0, 12}";
type = Stem;
},
{
origin = "{0, 2}";
target = "{0, 3}";
type = Stem;
}
);
layerId = "B64BEB12-03E1-41C2-8D0F-395888C0A328";
paths = (
{
closed = 1;
nodes = (
"86 525 LINE",
"98 525 LINE",
"98 300 LINE",
"178 300 LINE",
"178 555 LINE",
"139 600 LINE",
"98 600 LINE",
"98 575 LINE",
"86 575 LINE",
"86 600 LINE",
"6 600 LINE",
"6 0 LINE",
"86 0 LINE"
);
}
);
userData = {
assembly = "PUSHW[ ]\011/* 1 value pushed */
12 
MDAP[1]\011/* MoveDirectAbsPt */
PUSHW[ ]\011/* 1 value pushed */
9 
MDAP[1]\011/* MoveDirectAbsPt */
PUSHW[ ]\011/* 1 value pushed */
12 
SRP0[ ]\011/* SetRefPoint0 */
PUSHW[ ]\011/* 1 value pushed */
1 
MDRP[10000]\011/* MoveDirectRelPt */
PUSHW[ ]\011/* 1 value pushed */
1 
MDAP[1]\011/* MoveDirectAbsPt */
PUSHW[ ]\011/* 2 values pushed */
0 1 
MIRP[10100]\011/* MoveIndirectRelPt */
PUSHW[ ]\011/* 1 value pushed */
4 
MDRP[10000]\011/* MoveDirectRelPt */
PUSHW[ ]\011/* 1 value pushed */
9 
SRP0[ ]\011/* SetRefPoint0 */
PUSHW[ ]\011/* 1 value pushed */
5 
MDRP[10000]\011/* MoveDirectRelPt */
PUSHW[ ]\011/* 1 value pushed */
5 
MDAP[1]\011/* MoveDirectAbsPt */
PUSHW[ ]\011/* 1 value pushed */
9 
SRP0[ ]\011/* SetRefPoint0 */
PUSHW[ ]\011/* 2 values pushed */
8 1 
MIRP[10100]\011/* MoveIndirectRelPt */
PUSHW[ ]\011/* 1 value pushed */
13 
MDRP[11100]\011/* MoveDirectRelPt */
SVTCA[0]\011/* SetFreedomAndProjectionVectorToAxis */
PUSHW[ ]\011/* 1 value pushed */
2 
MDAP[1]\011/* MoveDirectAbsPt */
PUSHW[ ]\011/* 1 value pushed */
5 
MDAP[1]\011/* MoveDirectAbsPt */
PUSHW[ ]\011/* 1 value pushed */
0 
RCVT[ ]\011/* ReadCVT */
IF[ ]\011/* If */
PUSHW[ ]\011/* 1 value pushed */
0 
MDAP[1]\011/* MoveDirectAbsPt */
ELSE[ ]\011/* Else */
PUSHW[ ]\011/* 2 values pushed */
0 2 
MIAP[0]\011/* MoveIndirectAbsPt */
EIF[ ]\011/* EndIf */
PUSHW[ ]\011/* 3 values pushed */
4 0 2 
SRP1[ ]\011/* SetRefPoint1 */
SRP2[ ]\011/* SetRefPoint2 */
IP[ ]\011/* InterpolatePts */
IUP[0]\011/* InterpolateUntPts */
IUP[1]\011/* InterpolateUntPts */";
};
width = 184;
},
{
hints = (
{
horizontal = 1;
origin = "{0, 11}";
target = up;
type = BottomGhost;
},
{
horizontal = 1;
origin = "{0, 10}";
target = "{0, 0}";
type = Stem;
},
{
origin = "{0, 11}";
target = "{0, 12}";
type = Stem;
},
{
origin = "{0, 2}";
target = "{0, 3}";
type = Stem;
}
);
layerId = "DBA696BD-A337-48FC-9DA1-CD58B2C81FFB";
paths = (
{
closed = 1;
nodes = (
"18 589 LINE",
"30 589 LINE",
"30 300 LINE",
"42 300 LINE",
"42 592 LINE",
"34 600 LINE",
"30 600 LINE",
"30 600 LINE",
"18 600 LINE",
"18 600 LINE",
"6 600 LINE",
"6 0 LINE",
"18 0 LINE"
);
}
);
width = 48;
}
);
note = r;
unicode = 0072;
},
{
color = 4;
glyphname = s;
lastChange = "2020-09-29 10:50:32 +0000";
layers = (
{
hints = (
{
horizontal = 1;
origin = "{0, 18}";
target = "{0, 14}";
type = Stem;
},
{
horizontal = 1;
origin = "{0, 11}";
target = "{0, 1}";
type = Stem;
},
{
horizontal = 1;
origin = "{0, 8}";
target = "{0, 2}";
type = Stem;
},
{
origin = "{0, 13}";
target = "{0, 20}";
type = Stem;
},
{
origin = "{0, 17}";
target = "{0, 14}";
type = Stem;
}
);
layerId = "B64BEB12-03E1-41C2-8D0F-395888C0A328";
paths = (
{
closed = 1;
nodes = (
"139 336 LINE",
"86 336 LINE",
"86 525 LINE",
"98 525 LINE",
"98 349 LINE",
"178 349 LINE",
"178 555 LINE",
"137 600 LINE",
"46 600 LINE",
"6 555 LINE",
"6 300 LINE",
"46 261 LINE",
"98 261 LINE",
"98 75 LINE",
"86 75 LINE",
"86 248 LINE",
"6 248 LINE",
"6 45 LINE",
"46 0 LINE",
"137 0 LINE",
"178 45 LINE",
"178 300 LINE"
);
}
);
userData = {
assembly = "PUSHW[ ]\011/* 1 value pushed */
10 
CALL[ ]\011/* CallFunction */
PUSHW[ ]\011/* 1 value pushed */
22 
MDAP[1]\011/* MoveDirectAbsPt */
PUSHW[ ]\011/* 1 value pushed */
8 
MDAP[1]\011/* MoveDirectAbsPt */
PUSHW[ ]\011/* 2 values pushed */
1 9 
MIRP[10100]\011/* MoveIndirectRelPt */
PUSHW[ ]\011/* 1 value pushed */
22 
SRP0[ ]\011/* SetRefPoint0 */
PUSHW[ ]\011/* 1 value pushed */
4 
MDRP[10000]\011/* MoveDirectRelPt */
PUSHW[ ]\011/* 1 value pushed */
4 
MDAP[1]\011/* MoveDirectAbsPt */
PUSHW[ ]\011/* 2 values pushed */
7 9 
MIRP[10100]\011/* MoveIndirectRelPt */
PUSHW[ ]\011/* 1 value pushed */
4 
SRP0[ ]\011/* SetRefPoint0 */
PUSHW[ ]\011/* 1 value pushed */
11 
MDRP[10000]\011/* MoveDirectRelPt */
PUSHW[ ]\011/* 1 value pushed */
1 
SRP0[ ]\011/* SetRefPoint0 */
PUSHW[ ]\011/* 1 value pushed */
15 
MDRP[10000]\011/* MoveDirectRelPt */
PUSHW[ ]\011/* 1 value pushed */
8 
SRP0[ ]\011/* SetRefPoint0 */
PUSHW[ ]\011/* 1 value pushed */
17 
MDRP[10000]\011/* MoveDirectRelPt */
PUSHW[ ]\011/* 1 value pushed */
7 
SRP0[ ]\011/* SetRefPoint0 */
PUSHW[ ]\011/* 1 value pushed */
19 
MDRP[10000]\011/* MoveDirectRelPt */
PUSHW[ ]\011/* 1 value pushed */
1 
SRP0[ ]\011/* SetRefPoint0 */
PUSHW[ ]\011/* 1 value pushed */
23 
MDRP[11100]\011/* MoveDirectRelPt */
SVTCA[0]\011/* SetFreedomAndProjectionVectorToAxis */
PUSHW[ ]\011/* 1 value pushed */
6 
RCVT[ ]\011/* ReadCVT */
IF[ ]\011/* If */
PUSHW[ ]\011/* 1 value pushed */
13 
MDAP[1]\011/* MoveDirectAbsPt */
ELSE[ ]\011/* Else */
PUSHW[ ]\011/* 2 values pushed */
13 17 
MIAP[0]\011/* MoveIndirectAbsPt */
EIF[ ]\011/* EndIf */
PUSHW[ ]\011/* 1 value pushed */
6 
RCVT[ ]\011/* ReadCVT */
IF[ ]\011/* If */
PUSHW[ ]\011/* 1 value pushed */
2 
MDAP[1]\011/* MoveDirectAbsPt */
ELSE[ ]\011/* Else */
PUSHW[ ]\011/* 2 values pushed */
2 13 
MIAP[0]\011/* MoveIndirectAbsPt */
EIF[ ]\011/* EndIf */
PUSHW[ ]\011/* 1 value pushed */
5 
MDRP[11100]\011/* MoveDirectRelPt */
IUP[0]\011/* InterpolateUntPts */
IUP[1]\011/* InterpolateUntPts */";
};
width = 184;
},
{
hints = (
{
horizontal = 1;
origin = "{0, 18}";
target = "{0, 14}";
type = Stem;
},
{
horizontal = 1;
origin = "{0, 11}";
target = "{0, 1}";
type = Stem;
},
{
horizontal = 1;
origin = "{0, 8}";
target = "{0, 2}";
type = Stem;
},
{
origin = "{0, 17}";
target = "{0, 14}";
type = Stem;
},
{
origin = "{0, 13}";
target = "{0, 20}";
type = Stem;
}
);
layerId = "DBA696BD-A337-48FC-9DA1-CD58B2C81FFB";
paths = (
{
closed = 1;
nodes = (
"34 311 LINE",
"18 311 LINE",
"18 589 LINE",
"30 589 LINE",
"30 323 LINE",
"42 323 LINE",
"42 592 LINE",
"34 600 LINE",
"14 600 LINE",
"6 592 LINE",
"6 308 LINE",
"14 300 LINE",
"30 300 LINE",
"30 11 LINE",
"18 11 LINE",
"18 287 LINE",
"6 287 LINE",
"6 8 LINE",
"14 0 LINE",
"34 0 LINE",
"42 8 LINE",
"42 303 LINE"
);
}
);
width = 48;
}
);
note = s;
unicode = 0073;
},
{
color = 4;
glyphname = germandbls;
lastChange = "2020-10-04 16:00:14 +0000";
layers = (
{
layerId = "B64BEB12-03E1-41C2-8D0F-395888C0A328";
paths = (
{
closed = 1;
nodes = (
"89 655 LINE",
"98 655 LINE",
"98 402 LINE",
"64 402 LINE",
"64 327 LINE",
"98 327 LINE",
"98 75 LINE",
"81 75 LINE",
"81 0 LINE",
"139 0 LINE",
"178 45 LINE",
"178 358 LINE",
"145 358 LINE",
"145 370 LINE",
"178 370 LINE",
"178 402 LINE",
"178 685 LINE",
"138 730 LINE",
"89 730 LINE"
);
},
{
closed = 1;
nodes = (
"89 730 LINE",
"46 730 LINE",
"6 685 LINE",
"6 0 LINE",
"85 0 LINE",
"85 75 LINE",
"86 75 LINE",
"86 655 LINE",
"89 655 LINE"
);
}
);
width = 184;
},
{
layerId = "DBA696BD-A337-48FC-9DA1-CD58B2C81FFB";
paths = (
{
closed = 1;
nodes = (
"21 679 LINE",
"30 679 LINE",
"30 370 LINE",
"13 370 LINE",
"13 358 LINE",
"30 358 LINE",
"30 11 LINE",
"13 11 LINE",
"13 0 LINE",
"34 0 LINE",
"42 8 LINE",
"42 358 LINE",
"36 358 LINE",
"36 370 LINE",
"42 370 LINE",
"42 381 LINE",
"42 682 LINE",
"34 690 LINE",
"21 690 LINE"
);
},
{
closed = 1;
nodes = (
"21 690 LINE",
"14 690 LINE",
"6 682 LINE",
"6 0 LINE",
"17 0 LINE",
"17 11 LINE",
"18 11 LINE",
"18 679 LINE",
"21 679 LINE"
);
}
);
width = 48;
}
);
unicode = 00DF;
},
{
color = 4;
glyphname = t;
lastChange = "2020-10-04 18:38:19 +0000";
layers = (
{
hints = (
{
horizontal = 1;
origin = "{0, 12}";
target = up;
type = BottomGhost;
},
{
horizontal = 1;
origin = "{0, 8}";
target = down;
type = TopGhost;
},
{
horizontal = 1;
origin = "{0, 6}";
target = down;
type = TopGhost;
},
{
horizontal = 1;
origin = "{0, 8}";
target = "{0, 9}";
type = Stem;
},
{
origin = "{0, 12}";
target = "{0, 13}";
type = Stem;
}
);
layerId = "B64BEB12-03E1-41C2-8D0F-395888C0A328";
paths = (
{
closed = 1;
nodes = (
"86 75 LINE",
"86 525 LINE",
"93 525 LINE",
"93 600 LINE",
"86 600 LINE",
"86 730 LINE",
"6 730 LINE",
"6 600 LINE",
"0 600 LINE",
"0 525 LINE",
"6 525 LINE",
"6 45 LINE",
"6 0 LINE",
"86 0 LINE",
"86 75 LINE"
);
}
);
userData = {
assembly = "PUSHW[ ]\011/* 1 value pushed */
10 
CALL[ ]\011/* CallFunction */
PUSHW[ ]\011/* 4 values pushed */
12 12 5 14 
CALL[ ]\011/* CallFunction */
PUSHW[ ]\011/* 1 value pushed */
12 
SRP0[ ]\011/* SetRefPoint0 */
PUSHW[ ]\011/* 1 value pushed */
0 
MDRP[10000]\011/* MoveDirectRelPt */
PUSHW[ ]\011/* 3 values pushed */
3 5 12 
SRP1[ ]\011/* SetRefPoint1 */
SRP2[ ]\011/* SetRefPoint2 */
IP[ ]\011/* InterpolatePts */
PUSHW[ ]\011/* 1 value pushed */
3 
MDAP[1]\011/* MoveDirectAbsPt */
PUSHW[ ]\011/* 1 value pushed */
7 
MDRP[10000]\011/* MoveDirectRelPt */
PUSHW[ ]\011/* 1 value pushed */
3 
SRP0[ ]\011/* SetRefPoint0 */
PUSHW[ ]\011/* 2 values pushed */
14 9 
MIRP[10100]\011/* MoveIndirectRelPt */
PUSHW[ ]\011/* 1 value pushed */
9 
MDRP[10000]\011/* MoveDirectRelPt */
PUSHW[ ]\011/* 1 value pushed */
12 
SRP0[ ]\011/* SetRefPoint0 */
PUSHW[ ]\011/* 1 value pushed */
16 
MDRP[11100]\011/* MoveDirectRelPt */
SVTCA[0]\011/* SetFreedomAndProjectionVectorToAxis */
PUSHW[ ]\011/* 1 value pushed */
6 
RCVT[ ]\011/* ReadCVT */
IF[ ]\011/* If */
PUSHW[ ]\011/* 1 value pushed */
8 
MDAP[1]\011/* MoveDirectAbsPt */
ELSE[ ]\011/* Else */
PUSHW[ ]\011/* 2 values pushed */
8 19 
MIAP[0]\011/* MoveIndirectAbsPt */
EIF[ ]\011/* EndIf */
PUSHW[ ]\011/* 1 value pushed */
6 
RCVT[ ]\011/* ReadCVT */
IF[ ]\011/* If */
PUSHW[ ]\011/* 1 value pushed */
6 
MDAP[1]\011/* MoveDirectAbsPt */
ELSE[ ]\011/* Else */
PUSHW[ ]\011/* 2 values pushed */
6 17 
MIAP[0]\011/* MoveIndirectAbsPt */
EIF[ ]\011/* EndIf */
PUSHW[ ]\011/* 1 value pushed */
6 
RCVT[ ]\011/* ReadCVT */
IF[ ]\011/* If */
PUSHW[ ]\011/* 1 value pushed */
10 
MDAP[1]\011/* MoveDirectAbsPt */
ELSE[ ]\011/* Else */
PUSHW[ ]\011/* 2 values pushed */
10 17 
MIAP[0]\011/* MoveIndirectAbsPt */
EIF[ ]\011/* EndIf */
PUSHW[ ]\011/* 1 value pushed */
6 
RCVT[ ]\011/* ReadCVT */
IF[ ]\011/* If */
PUSHW[ ]\011/* 1 value pushed */
1 
MDAP[1]\011/* MoveDirectAbsPt */
ELSE[ ]\011/* Else */
PUSHW[ ]\011/* 2 values pushed */
1 13 
MIAP[0]\011/* MoveIndirectAbsPt */
EIF[ ]\011/* EndIf */
PUSHW[ ]\011/* 1 value pushed */
6 
SRP0[ ]\011/* SetRefPoint0 */
PUSHW[ ]\011/* 2 values pushed */
4 8 
MIRP[10100]\011/* MoveIndirectRelPt */
PUSHW[ ]\011/* 1 value pushed */
12 
MDRP[10000]\011/* MoveDirectRelPt */
PUSHW[ ]\011/* 1 value pushed */
13 
MDRP[10000]\011/* MoveDirectRelPt */
IUP[0]\011/* InterpolateUntPts */
IUP[1]\011/* InterpolateUntPts */";
};
width = 93;
},
{
hints = (
{
horizontal = 1;
origin = "{0, 12}";
target = up;
type = BottomGhost;
},
{
horizontal = 1;
origin = "{0, 8}";
target = "{0, 9}";
type = Stem;
},
{
horizontal = 1;
origin = "{0, 6}";
target = down;
type = TopGhost;
},
{
origin = "{0, 12}";
target = "{0, 13}";
type = Stem;
}
);
layerId = "DBA696BD-A337-48FC-9DA1-CD58B2C81FFB";
paths = (
{
closed = 1;
nodes = (
"18 11 LINE",
"18 589 LINE",
"24 589 LINE",
"24 600 LINE",
"18 600 LINE",
"18 690 LINE",
"6 690 LINE",
"6 600 LINE",
"0 600 LINE",
"0 589 LINE",
"6 589 LINE",
"6 11 LINE",
"6 0 LINE",
"18 0 LINE",
"18 11 LINE"
);
}
);
width = 24;
}
);
note = t;
unicode = 0074;
},
{
color = 7;
glyphname = tbar;
lastChange = "2020-10-04 18:35:26 +0000";
layers = (
{
components = (
{
name = t;
}
);
layerId = "DBA696BD-A337-48FC-9DA1-CD58B2C81FFB";
paths = (
{
closed = 1;
nodes = (
"0 566 LINE",
"24 566 LINE",
"24 577 LINE",
"0 577 LINE"
);
}
);
width = 24;
},
{
components = (
{
name = t;
}
);
layerId = "B64BEB12-03E1-41C2-8D0F-395888C0A328";
paths = (
{
closed = 1;
nodes = (
"0 438 LINE",
"93 438 LINE",
"93 513 LINE",
"0 513 LINE"
);
}
);
width = 92;
}
);
unicode = 0167;
},
{
color = 4;
glyphname = u;
lastChange = "2020-09-25 16:07:37 +0000";
layers = (
{
hints = (
{
horizontal = 1;
origin = "{0, 5}";
target = "{0, 1}";
type = Stem;
},
{
horizontal = 1;
origin = "{0, 3}";
target = down;
type = TopGhost;
},
{
horizontal = 1;
origin = "{0, 7}";
target = "{0, 1}";
type = Stem;
},
{
origin = "{0, 9}";
target = "{0, 10}";
type = Stem;
},
{
origin = "{0, 4}";
target = "{0, 6}";
type = Stem;
}
);
layerId = "B64BEB12-03E1-41C2-8D0F-395888C0A328";
paths = (
{
closed = 1;
nodes = (
"98 75 LINE",
"86 75 LINE",
"86 600 LINE",
"6 600 LINE",
"6 45 LINE",
"45 0 LINE",
"86 0 LINE",
"86 25 LINE",
"98 25 LINE",
"98 0 LINE",
"178 0 LINE",
"178 600 LINE",
"98 600 LINE"
);
}
);
userData = {
assembly = "PUSHW[ ]\011/* 1 value pushed */
12 
MDAP[1]\011/* MoveDirectAbsPt */
PUSHW[ ]\011/* 1 value pushed */
0 
MDAP[1]\011/* MoveDirectAbsPt */
PUSHW[ ]\011/* 2 values pushed */
1 1 
MIRP[10100]\011/* MoveIndirectRelPt */
PUSHW[ ]\011/* 1 value pushed */
0 
SRP0[ ]\011/* SetRefPoint0 */
PUSHW[ ]\011/* 1 value pushed */
4 
MDRP[10000]\011/* MoveDirectRelPt */
PUSHW[ ]\011/* 1 value pushed */
12 
SRP0[ ]\011/* SetRefPoint0 */
PUSHW[ ]\011/* 1 value pushed */
7 
MDRP[10000]\011/* MoveDirectRelPt */
PUSHW[ ]\011/* 1 value pushed */
7 
MDAP[1]\011/* MoveDirectAbsPt */
PUSHW[ ]\011/* 2 values pushed */
10 1 
MIRP[10100]\011/* MoveIndirectRelPt */
PUSHW[ ]\011/* 1 value pushed */
5 
MDRP[10000]\011/* MoveDirectRelPt */
PUSHW[ ]\011/* 1 value pushed */
5 
MDAP[1]\011/* MoveDirectAbsPt */
PUSHW[ ]\011/* 1 value pushed */
1 
SRP0[ ]\011/* SetRefPoint0 */
PUSHW[ ]\011/* 1 value pushed */
13 
MDRP[11100]\011/* MoveDirectRelPt */
SVTCA[0]\011/* SetFreedomAndProjectionVectorToAxis */
PUSHW[ ]\011/* 1 value pushed */
0 
MDAP[1]\011/* MoveDirectAbsPt */
PUSHW[ ]\011/* 1 value pushed */
8 
MDAP[1]\011/* MoveDirectAbsPt */
PUSHW[ ]\011/* 1 value pushed */
0 
RCVT[ ]\011/* ReadCVT */
IF[ ]\011/* If */
PUSHW[ ]\011/* 1 value pushed */
2 
MDAP[1]\011/* MoveDirectAbsPt */
ELSE[ ]\011/* Else */
PUSHW[ ]\011/* 2 values pushed */
2 2 
MIAP[0]\011/* MoveIndirectAbsPt */
EIF[ ]\011/* EndIf */
PUSHW[ ]\011/* 1 value pushed */
0 
RCVT[ ]\011/* ReadCVT */
IF[ ]\011/* If */
PUSHW[ ]\011/* 1 value pushed */
5 
MDAP[1]\011/* MoveDirectAbsPt */
ELSE[ ]\011/* Else */
PUSHW[ ]\011/* 2 values pushed */
5 2 
MIAP[0]\011/* MoveIndirectAbsPt */
EIF[ ]\011/* EndIf */
PUSHW[ ]\011/* 3 values pushed */
4 2 0 
SRP1[ ]\011/* SetRefPoint1 */
SRP2[ ]\011/* SetRefPoint2 */
IP[ ]\011/* InterpolatePts */
IUP[0]\011/* InterpolateUntPts */
IUP[1]\011/* InterpolateUntPts */";
};
width = 184;
},
{
hints = (
{
horizontal = 1;
origin = "{0, 1}";
target = "{0, 5}";
type = Stem;
},
{
horizontal = 1;
origin = "{0, 3}";
target = down;
type = TopGhost;
},
{
origin = "{0, 4}";
target = "{0, 6}";
type = Stem;
},
{
origin = "{0, 8}";
target = "{0, 10}";
type = Stem;
}
);
layerId = "DBA696BD-A337-48FC-9DA1-CD58B2C81FFB";
paths = (
{
closed = 1;
nodes = (
"30 11 LINE",
"18 11 LINE",
"18 600 LINE",
"6 600 LINE",
"6 8 LINE",
"14 0 LINE",
"18 0 LINE",
"18 0 LINE",
"30 0 LINE",
"30 0 LINE",
"42 0 LINE",
"42 600 LINE",
"30 600 LINE"
);
}
);
width = 48;
}
);
note = u;
unicode = 0075;
},
{
color = 4;
glyphname = v;
lastChange = "2020-09-25 16:07:24 +0000";
layers = (
{
hints = (
{
horizontal = 1;
origin = "{0, 0}";
target = "{0, 6}";
type = Stem;
},
{
horizontal = 1;
origin = "{0, 8}";
target = down;
type = TopGhost;
},
{
origin = "{0, 9}";
target = "{0, 6}";
type = Stem;
},
{
origin = "{0, 5}";
target = "{0, 2}";
type = Stem;
}
);
layerId = "B64BEB12-03E1-41C2-8D0F-395888C0A328";
paths = (
{
closed = 1;
nodes = (
"46 0 LINE",
"139 0 LINE",
"178 45 LINE",
"178 600 LINE",
"98 600 LINE",
"98 75 LINE",
"86 75 LINE",
"86 600 LINE",
"6 600 LINE",
"6 45 LINE"
);
}
);
userData = {
assembly = "PUSHW[ ]\011/* 1 value pushed */
10 
CALL[ ]\011/* CallFunction */
SVTCA[0]\011/* SetFreedomAndProjectionVectorToAxis */
PUSHW[ ]\011/* 1 value pushed */
6 
RCVT[ ]\011/* ReadCVT */
IF[ ]\011/* If */
PUSHW[ ]\011/* 1 value pushed */
0 
MDAP[1]\011/* MoveDirectAbsPt */
ELSE[ ]\011/* Else */
PUSHW[ ]\011/* 2 values pushed */
0 17 
MIAP[0]\011/* MoveIndirectAbsPt */
EIF[ ]\011/* EndIf */
PUSHW[ ]\011/* 1 value pushed */
6 
RCVT[ ]\011/* ReadCVT */
IF[ ]\011/* If */
PUSHW[ ]\011/* 1 value pushed */
4 
MDAP[1]\011/* MoveDirectAbsPt */
ELSE[ ]\011/* Else */
PUSHW[ ]\011/* 2 values pushed */
4 17 
MIAP[0]\011/* MoveIndirectAbsPt */
EIF[ ]\011/* EndIf */
PUSHW[ ]\011/* 1 value pushed */
6 
RCVT[ ]\011/* ReadCVT */
IF[ ]\011/* If */
PUSHW[ ]\011/* 1 value pushed */
2 
MDAP[1]\011/* MoveDirectAbsPt */
ELSE[ ]\011/* Else */
PUSHW[ ]\011/* 2 values pushed */
2 13 
MIAP[0]\011/* MoveIndirectAbsPt */
EIF[ ]\011/* EndIf */
PUSHW[ ]\011/* 3 values pushed */
6 2 0 
SRP1[ ]\011/* SetRefPoint1 */
SRP2[ ]\011/* SetRefPoint2 */
IP[ ]\011/* InterpolatePts */
IUP[0]\011/* InterpolateUntPts */
IUP[1]\011/* InterpolateUntPts */";
};
width = 184;
},
{
hints = (
{
horizontal = 1;
origin = "{0, 0}";
target = "{0, 6}";
type = Stem;
},
{
horizontal = 1;
origin = "{0, 8}";
target = down;
type = TopGhost;
},
{
origin = "{0, 9}";
target = "{0, 6}";
type = Stem;
},
{
origin = "{0, 5}";
target = "{0, 2}";
type = Stem;
}
);
layerId = "DBA696BD-A337-48FC-9DA1-CD58B2C81FFB";
paths = (
{
closed = 1;
nodes = (
"14 0 LINE",
"34 0 LINE",
"42 8 LINE",
"42 600 LINE",
"30 600 LINE",
"30 11 LINE",
"18 11 LINE",
"18 600 LINE",
"6 600 LINE",
"6 8 LINE"
);
}
);
width = 48;
}
);
note = v;
unicode = 0076;
},
{
color = 4;
glyphname = w;
lastChange = "2020-09-25 15:35:57 +0000";
layers = (
{
hints = (
{
horizontal = 1;
origin = "{0, 12}";
target = "{0, 8}";
type = Stem;
},
{
horizontal = 1;
origin = "{0, 10}";
target = down;
type = TopGhost;
},
{
horizontal = 1;
origin = "{0, 14}";
target = "{0, 8}";
type = Stem;
},
{
origin = "{0, 11}";
target = "{0, 13}";
type = Stem;
},
{
origin = "{0, 20}";
target = "{0, 0}";
type = Stem;
},
{
origin = "{0, 16}";
target = "{0, 17}";
type = Stem;
}
);
layerId = "B64BEB12-03E1-41C2-8D0F-395888C0A328";
paths = (
{
closed = 1;
nodes = (
"270 45 LINE",
"270 600 LINE",
"190 600 LINE",
"190 75 LINE",
"178 75 LINE",
"178 600 LINE",
"98 600 LINE",
"98 75 LINE",
"86 75 LINE",
"86 600 LINE",
"6 600 LINE",
"6 45 LINE",
"46 0 LINE",
"86 0 LINE",
"86 25 LINE",
"98 25 LINE",
"98 0 LINE",
"178 0 LINE",
"178 25 LINE",
"190 25 LINE",
"190 0 LINE",
"231 0 LINE"
);
}
);
userData = {
assembly = "PUSHW[ ]\011/* 1 value pushed */
10 
CALL[ ]\011/* CallFunction */
SVTCA[0]\011/* SetFreedomAndProjectionVectorToAxis */
PUSHW[ ]\011/* 1 value pushed */
6 
RCVT[ ]\011/* ReadCVT */
IF[ ]\011/* If */
PUSHW[ ]\011/* 1 value pushed */
0 
MDAP[1]\011/* MoveDirectAbsPt */
ELSE[ ]\011/* Else */
PUSHW[ ]\011/* 2 values pushed */
0 17 
MIAP[0]\011/* MoveIndirectAbsPt */
EIF[ ]\011/* EndIf */
PUSHW[ ]\011/* 1 value pushed */
6 
RCVT[ ]\011/* ReadCVT */
IF[ ]\011/* If */
PUSHW[ ]\011/* 1 value pushed */
6 
MDAP[1]\011/* MoveDirectAbsPt */
ELSE[ ]\011/* Else */
PUSHW[ ]\011/* 2 values pushed */
6 17 
MIAP[0]\011/* MoveIndirectAbsPt */
EIF[ ]\011/* EndIf */
PUSHW[ ]\011/* 1 value pushed */
6 
RCVT[ ]\011/* ReadCVT */
IF[ ]\011/* If */
PUSHW[ ]\011/* 1 value pushed */
9 
MDAP[1]\011/* MoveDirectAbsPt */
ELSE[ ]\011/* Else */
PUSHW[ ]\011/* 2 values pushed */
9 17 
MIAP[0]\011/* MoveIndirectAbsPt */
EIF[ ]\011/* EndIf */
PUSHW[ ]\011/* 1 value pushed */
6 
RCVT[ ]\011/* ReadCVT */
IF[ ]\011/* If */
PUSHW[ ]\011/* 1 value pushed */
1 
MDAP[1]\011/* MoveDirectAbsPt */
ELSE[ ]\011/* Else */
PUSHW[ ]\011/* 2 values pushed */
1 13 
MIAP[0]\011/* MoveIndirectAbsPt */
EIF[ ]\011/* EndIf */
PUSHW[ ]\011/* 1 value pushed */
6 
RCVT[ ]\011/* ReadCVT */
IF[ ]\011/* If */
PUSHW[ ]\011/* 1 value pushed */
4 
MDAP[1]\011/* MoveDirectAbsPt */
ELSE[ ]\011/* Else */
PUSHW[ ]\011/* 2 values pushed */
4 13 
MIAP[0]\011/* MoveIndirectAbsPt */
EIF[ ]\011/* EndIf */
PUSHW[ ]\011/* 3 values pushed */
3 1 0 
SRP1[ ]\011/* SetRefPoint1 */
SRP2[ ]\011/* SetRefPoint2 */
IP[ ]\011/* InterpolatePts */
PUSHW[ ]\011/* 3 values pushed */
8 1 0 
SRP1[ ]\011/* SetRefPoint1 */
SRP2[ ]\011/* SetRefPoint2 */
IP[ ]\011/* InterpolatePts */
PUSHW[ ]\011/* 3 values pushed */
11 1 0 
SRP1[ ]\011/* SetRefPoint1 */
SRP2[ ]\011/* SetRefPoint2 */
IP[ ]\011/* InterpolatePts */
IUP[0]\011/* InterpolateUntPts */
IUP[1]\011/* InterpolateUntPts */";
};
width = 276;
},
{
hints = (
{
horizontal = 1;
origin = "{0, 12}";
target = "{0, 8}";
type = Stem;
},
{
horizontal = 1;
origin = "{0, 10}";
target = down;
type = TopGhost;
},
{
origin = "{0, 11}";
target = "{0, 13}";
type = Stem;
},
{
origin = "{0, 19}";
target = "{0, 0}";
type = Stem;
},
{
origin = "{0, 15}";
target = "{0, 17}";
type = Stem;
}
);
layerId = "DBA696BD-A337-48FC-9DA1-CD58B2C81FFB";
paths = (
{
closed = 1;
nodes = (
"66 8 LINE",
"66 600 LINE",
"54 600 LINE",
"54 11 LINE",
"42 11 LINE",
"42 600 LINE",
"30 600 LINE",
"30 11 LINE",
"18 11 LINE",
"18 600 LINE",
"6 600 LINE",
"6 8 LINE",
"14 0 LINE",
"18 0 LINE",
"18 0 LINE",
"30 0 LINE",
"30 0 LINE",
"42 0 LINE",
"42 0 LINE",
"54 0 LINE",
"54 0 LINE",
"58 0 LINE"
);
}
);
width = 72;
}
);
note = w;
unicode = 0077;
},
{
color = 4;
glyphname = x;
lastChange = "2020-09-25 16:07:41 +0000";
layers = (
{
hints = (
{
horizontal = 1;
origin = "{0, 19}";
target = up;
type = BottomGhost;
},
{
horizontal = 1;
origin = "{0, 1}";
target = "{0, 18}";
type = Stem;
},
{
horizontal = 1;
origin = "{0, 14}";
target = down;
type = TopGhost;
},
{
horizontal = 1;
origin = "{0, 15}";
target = "{0, 12}";
type = Stem;
},
{
origin = "{0, 3}";
target = "{0, 4}";
type = Stem;
},
{
origin = "{0, 19}";
target = "{0, 0}";
type = Stem;
}
);
layerId = "B64BEB12-03E1-41C2-8D0F-395888C0A328";
paths = (
{
closed = 1;
nodes = (
"86 0 LINE",
"86 272 LINE",
"98 272 LINE",
"98 0 LINE",
"178 0 LINE",
"178 303 LINE",
"145 303 LINE",
"145 315 LINE",
"178 315 LINE",
"178 600 LINE",
"98 600 LINE",
"98 347 LINE",
"86 347 LINE",
"86 600 LINE",
"6 600 LINE",
"6 315 LINE",
"39 315 LINE",
"39 303 LINE",
"6 303 LINE",
"6 0 LINE"
);
}
);
userData = {
assembly = "PUSHW[ ]\011/* 1 value pushed */
10 
CALL[ ]\011/* CallFunction */
SVTCA[0]\011/* SetFreedomAndProjectionVectorToAxis */
PUSHW[ ]\011/* 1 value pushed */
6 
RCVT[ ]\011/* ReadCVT */
IF[ ]\011/* If */
PUSHW[ ]\011/* 1 value pushed */
7 
MDAP[1]\011/* MoveDirectAbsPt */
ELSE[ ]\011/* Else */
PUSHW[ ]\011/* 2 values pushed */
7 17 
MIAP[0]\011/* MoveIndirectAbsPt */
EIF[ ]\011/* EndIf */
PUSHW[ ]\011/* 1 value pushed */
6 
RCVT[ ]\011/* ReadCVT */
IF[ ]\011/* If */
PUSHW[ ]\011/* 1 value pushed */
10 
MDAP[1]\011/* MoveDirectAbsPt */
ELSE[ ]\011/* Else */
PUSHW[ ]\011/* 2 values pushed */
10 17 
MIAP[0]\011/* MoveIndirectAbsPt */
EIF[ ]\011/* EndIf */
PUSHW[ ]\011/* 1 value pushed */
6 
RCVT[ ]\011/* ReadCVT */
IF[ ]\011/* If */
PUSHW[ ]\011/* 1 value pushed */
1 
MDAP[1]\011/* MoveDirectAbsPt */
ELSE[ ]\011/* Else */
PUSHW[ ]\011/* 2 values pushed */
1 13 
MIAP[0]\011/* MoveIndirectAbsPt */
EIF[ ]\011/* EndIf */
PUSHW[ ]\011/* 1 value pushed */
6 
RCVT[ ]\011/* ReadCVT */
IF[ ]\011/* If */
PUSHW[ ]\011/* 1 value pushed */
4 
MDAP[1]\011/* MoveDirectAbsPt */
ELSE[ ]\011/* Else */
PUSHW[ ]\011/* 2 values pushed */
4 13 
MIAP[0]\011/* MoveIndirectAbsPt */
EIF[ ]\011/* EndIf */
PUSHW[ ]\011/* 3 values pushed */
3 1 7 
SRP1[ ]\011/* SetRefPoint1 */
SRP2[ ]\011/* SetRefPoint2 */
IP[ ]\011/* InterpolatePts */
PUSHW[ ]\011/* 3 values pushed */
9 1 7 
SRP1[ ]\011/* SetRefPoint1 */
SRP2[ ]\011/* SetRefPoint2 */
IP[ ]\011/* InterpolatePts */
IUP[0]\011/* InterpolateUntPts */
IUP[1]\011/* InterpolateUntPts */";
};
width = 184;
},
{
hints = (
{
horizontal = 1;
origin = "{0, 19}";
target = up;
type = BottomGhost;
},
{
horizontal = 1;
origin = "{0, 1}";
target = "{0, 15}";
type = Stem;
},
{
horizontal = 1;
origin = "{0, 14}";
target = down;
type = TopGhost;
},
{
origin = "{0, 19}";
target = "{0, 0}";
type = Stem;
},
{
origin = "{0, 3}";
target = "{0, 4}";
type = Stem;
}
);
layerId = "DBA696BD-A337-48FC-9DA1-CD58B2C81FFB";
paths = (
{
closed = 1;
nodes = (
"18 0 LINE",
"18 300 LINE",
"30 300 LINE",
"30 0 LINE",
"42 0 LINE",
"42 299 LINE",
"37 299 LINE",
"37 311 LINE",
"42 311 LINE",
"42 600 LINE",
"30 600 LINE",
"30 311 LINE",
"18 311 LINE",
"18 600 LINE",
"6 600 LINE",
"6 311 LINE",
"11 311 LINE",
"11 299 LINE",
"6 299 LINE",
"6 0 LINE"
);
}
);
width = 48;
}
);
note = x;
unicode = 0078;
},
{
color = 4;
glyphname = y;
lastChange = "2020-10-05 08:46:20 +0000";
layers = (
{
hints = (
{
horizontal = 1;
origin = "{0, 16}";
target = "{0, 14}";
type = Stem;
},
{
horizontal = 1;
origin = "{0, 8}";
target = "{0, 2}";
type = Stem;
},
{
origin = "{0, 11}";
target = "{0, 18}";
type = Stem;
},
{
origin = "{0, 15}";
target = "{0, 12}";
type = Stem;
}
);
layerId = "B64BEB12-03E1-41C2-8D0F-395888C0A328";
paths = (
{
closed = 1;
nodes = (
"98 600 LINE",
"98 75 LINE",
"86 75 LINE",
"86 600 LINE",
"6 600 LINE",
"6 45 LINE",
"46 0 LINE",
"86 0 LINE",
"86 25 LINE",
"98 25 LINE",
"98 0 LINE",
"98 -55 LINE",
"86 -55 LINE",
"86 -12 LINE",
"6 -12 LINE",
"6 -85 LINE",
"45 -130 LINE",
"139 -130 LINE",
"178 -85 LINE",
"178 600 LINE"
);
}
);
userData = {
assembly = "PUSHW[ ]\011/* 1 value pushed */
10 
CALL[ ]\011/* CallFunction */
PUSHW[ ]\011/* 1 value pushed */
17 
MDAP[1]\011/* MoveDirectAbsPt */
PUSHW[ ]\011/* 1 value pushed */
0 
MDAP[1]\011/* MoveDirectAbsPt */
PUSHW[ ]\011/* 2 values pushed */
2 9 
MIRP[10100]\011/* MoveIndirectRelPt */
PUSHW[ ]\011/* 1 value pushed */
17 
SRP0[ ]\011/* SetRefPoint0 */
PUSHW[ ]\011/* 1 value pushed */
10 
MDRP[10000]\011/* MoveDirectRelPt */
PUSHW[ ]\011/* 1 value pushed */
10 
MDAP[1]\011/* MoveDirectAbsPt */
PUSHW[ ]\011/* 1 value pushed */
5 
MDRP[10000]\011/* MoveDirectRelPt */
PUSHW[ ]\011/* 1 value pushed */
0 
SRP0[ ]\011/* SetRefPoint0 */
PUSHW[ ]\011/* 1 value pushed */
7 
MDRP[10000]\011/* MoveDirectRelPt */
PUSHW[ ]\011/* 1 value pushed */
10 
SRP0[ ]\011/* SetRefPoint0 */
PUSHW[ ]\011/* 2 values pushed */
14 9 
MIRP[10100]\011/* MoveIndirectRelPt */
PUSHW[ ]\011/* 1 value pushed */
0 
SRP0[ ]\011/* SetRefPoint0 */
PUSHW[ ]\011/* 1 value pushed */
15 
MDRP[10000]\011/* MoveDirectRelPt */
PUSHW[ ]\011/* 1 value pushed */
2 
SRP0[ ]\011/* SetRefPoint0 */
PUSHW[ ]\011/* 1 value pushed */
18 
MDRP[11100]\011/* MoveDirectRelPt */
SVTCA[0]\011/* SetFreedomAndProjectionVectorToAxis */
PUSHW[ ]\011/* 1 value pushed */
6 
RCVT[ ]\011/* ReadCVT */
IF[ ]\011/* If */
PUSHW[ ]\011/* 1 value pushed */
0 
MDAP[1]\011/* MoveDirectAbsPt */
ELSE[ ]\011/* Else */
PUSHW[ ]\011/* 2 values pushed */
0 17 
MIAP[0]\011/* MoveIndirectAbsPt */
EIF[ ]\011/* EndIf */
PUSHW[ ]\011/* 1 value pushed */
6 
RCVT[ ]\011/* ReadCVT */
IF[ ]\011/* If */
PUSHW[ ]\011/* 1 value pushed */
11 
MDAP[1]\011/* MoveDirectAbsPt */
ELSE[ ]\011/* Else */
PUSHW[ ]\011/* 2 values pushed */
11 17 
MIAP[0]\011/* MoveIndirectAbsPt */
EIF[ ]\011/* EndIf */
PUSHW[ ]\011/* 1 value pushed */
6 
RCVT[ ]\011/* ReadCVT */
IF[ ]\011/* If */
PUSHW[ ]\011/* 1 value pushed */
13 
MDAP[1]\011/* MoveDirectAbsPt */
ELSE[ ]\011/* Else */
PUSHW[ ]\011/* 2 values pushed */
13 17 
MIAP[0]\011/* MoveIndirectAbsPt */
EIF[ ]\011/* EndIf */
PUSHW[ ]\011/* 1 value pushed */
6 
RCVT[ ]\011/* ReadCVT */
IF[ ]\011/* If */
PUSHW[ ]\011/* 1 value pushed */
8 
MDAP[1]\011/* MoveDirectAbsPt */
ELSE[ ]\011/* Else */
PUSHW[ ]\011/* 2 values pushed */
8 13 
MIAP[0]\011/* MoveIndirectAbsPt */
EIF[ ]\011/* EndIf */
PUSHW[ ]\011/* 1 value pushed */
6 
RCVT[ ]\011/* ReadCVT */
IF[ ]\011/* If */
PUSHW[ ]\011/* 1 value pushed */
4 
MDAP[1]\011/* MoveDirectAbsPt */
ELSE[ ]\011/* Else */
PUSHW[ ]\011/* 2 values pushed */
4 15 
MIAP[0]\011/* MoveIndirectAbsPt */
EIF[ ]\011/* EndIf */
PUSHW[ ]\011/* 2 values pushed */
6 8 
MIRP[10100]\011/* MoveIndirectRelPt */
IUP[0]\011/* InterpolateUntPts */
IUP[1]\011/* InterpolateUntPts */";
};
width = 184;
},
{
hints = (
{
horizontal = 1;
origin = "{0, 16}";
target = "{0, 12}";
type = Stem;
},
{
horizontal = 1;
origin = "{0, 6}";
target = "{0, 2}";
type = Stem;
},
{
horizontal = 1;
origin = "{0, 4}";
target = down;
type = TopGhost;
},
{
origin = "{0, 15}";
target = "{0, 12}";
type = Stem;
},
{
origin = "{0, 11}";
target = "{0, 18}";
type = Stem;
}
);
layerId = "DBA696BD-A337-48FC-9DA1-CD58B2C81FFB";
paths = (
{
closed = 1;
nodes = (
"30 600 LINE",
"30 11 LINE",
"18 11 LINE",
"18 600 LINE",
"6 600 LINE",
"6 8 LINE",
"14 0 LINE",
"18 0 LINE",
"18 0 LINE",
"30 0 LINE",
"30 0 LINE",
"30 -78 LINE",
"18 -78 LINE",
"18 -12 LINE",
"6 -12 LINE",
"6 -82 LINE",
"14 -90 LINE",
"34 -90 LINE",
"42 -82 LINE",
"42 600 LINE"
);
}
);
width = 48;
}
);
note = y;
unicode = 0079;
},
{
color = 4;
glyphname = z;
lastChange = "2020-09-25 15:28:56 +0000";
layers = (
{
hints = (
{
horizontal = 1;
origin = "{0, 0}";
target = "{0, 6}";
type = Stem;
},
{
horizontal = 1;
origin = "{0, 7}";
target = "{0, 17}";
type = Stem;
},
{
horizontal = 1;
origin = "{0, 11}";
target = "{0, 14}";
type = Stem;
},
{
origin = "{0, 0}";
target = "{0, 6}";
type = Stem;
},
{
origin = "{0, 5}";
target = "{0, 2}";
type = Stem;
}
);
layerId = "B64BEB12-03E1-41C2-8D0F-395888C0A328";
paths = (
{
closed = 1;
nodes = (
"6 0 LINE",
"47 0 LINE",
"178 0 LINE",
"178 250 LINE",
"98 250 LINE",
"98 75 LINE",
"86 75 LINE",
"86 262 LINE",
"178 262 LINE",
"178 555 LINE",
"138 600 LINE",
"6 600 LINE",
"6 349 LINE",
"86 349 LINE",
"86 525 LINE",
"98 525 LINE",
"98 337 LINE",
"6 337 LINE"
);
}
);
userData = {
assembly = "PUSHW[ ]\011/* 1 value pushed */
10 
CALL[ ]\011/* CallFunction */
PUSHW[ ]\011/* 4 values pushed */
9 12 6 14 
CALL[ ]\011/* CallFunction */
PUSHW[ ]\011/* 1 value pushed */
9 
SRP0[ ]\011/* SetRefPoint0 */
PUSHW[ ]\011/* 1 value pushed */
1 
MDRP[10000]\011/* MoveDirectRelPt */
PUSHW[ ]\011/* 1 value pushed */
1 
MDAP[1]\011/* MoveDirectAbsPt */
PUSHW[ ]\011/* 1 value pushed */
6 
SRP0[ ]\011/* SetRefPoint0 */
PUSHW[ ]\011/* 1 value pushed */
3 
MDRP[10000]\011/* MoveDirectRelPt */
PUSHW[ ]\011/* 1 value pushed */
9 
SRP0[ ]\011/* SetRefPoint0 */
PUSHW[ ]\011/* 1 value pushed */
11 
MDRP[11100]\011/* MoveDirectRelPt */
SVTCA[0]\011/* SetFreedomAndProjectionVectorToAxis */
PUSHW[ ]\011/* 1 value pushed */
6 
RCVT[ ]\011/* ReadCVT */
IF[ ]\011/* If */
PUSHW[ ]\011/* 1 value pushed */
7 
MDAP[1]\011/* MoveDirectAbsPt */
ELSE[ ]\011/* Else */
PUSHW[ ]\011/* 2 values pushed */
7 17 
MIAP[0]\011/* MoveIndirectAbsPt */
EIF[ ]\011/* EndIf */
PUSHW[ ]\011/* 1 value pushed */
6 
RCVT[ ]\011/* ReadCVT */
IF[ ]\011/* If */
PUSHW[ ]\011/* 1 value pushed */
2 
MDAP[1]\011/* MoveDirectAbsPt */
ELSE[ ]\011/* Else */
PUSHW[ ]\011/* 2 values pushed */
2 13 
MIAP[0]\011/* MoveIndirectAbsPt */
EIF[ ]\011/* EndIf */
PUSHW[ ]\011/* 2 values pushed */
0 8 
MIRP[10100]\011/* MoveIndirectRelPt */
PUSHW[ ]\011/* 1 value pushed */
7 
SRP0[ ]\011/* SetRefPoint0 */
PUSHW[ ]\011/* 2 values pushed */
5 8 
MIRP[10100]\011/* MoveIndirectRelPt */
IUP[0]\011/* InterpolateUntPts */
IUP[1]\011/* InterpolateUntPts */";
};
width = 184;
},
{
hints = (
{
horizontal = 1;
origin = "{0, 0}";
target = "{0, 6}";
type = Stem;
},
{
horizontal = 1;
origin = "{0, 7}";
target = "{0, 17}";
type = Stem;
},
{
horizontal = 1;
origin = "{0, 11}";
target = "{0, 14}";
type = Stem;
},
{
origin = "{0, 0}";
target = "{0, 6}";
type = Stem;
},
{
origin = "{0, 5}";
target = "{0, 2}";
type = Stem;
}
);
layerId = "DBA696BD-A337-48FC-9DA1-CD58B2C81FFB";
paths = (
{
closed = 1;
nodes = (
"6 0 LINE",
"14 0 LINE",
"42 0 LINE",
"42 314 LINE",
"30 314 LINE",
"30 11 LINE",
"18 11 LINE",
"18 326 LINE",
"42 326 LINE",
"42 592 LINE",
"34 600 LINE",
"6 600 LINE",
"6 349 LINE",
"18 349 LINE",
"18 589 LINE",
"30 589 LINE",
"30 337 LINE",
"6 337 LINE"
);
}
);
width = 48;
}
);
note = z;
unicode = 007A;
},
